<svg width="1000" height="1000" vertion="1.1" style="background-color:#fff" id="svg" xmlns="http://www.w3.org/2000/svg">
    <circle stroke="#eee" fill="transparent" stroke-width="10" cx="500" cy="500" r="400"></circle><line stroke="#eee" fill="transparent" stroke-width="10" x1="500" y1="100" x2="500" y2="100"></line><line stroke="#eee" fill="transparent" stroke-width="10" x1="235.42486889354092" y1="200" x2="764.5751311064591" y2="200"></line><line stroke="#eee" fill="transparent" stroke-width="10" x1="153.58983848622455" y1="300" x2="846.4101615137754" y2="300"></line><line stroke="#eee" fill="transparent" stroke-width="10" x1="112.70166537925832" y1="400" x2="887.2983346207417" y2="400"></line><line stroke="#eee" fill="transparent" stroke-width="10" x1="100" y1="500" x2="900" y2="500"></line><line stroke="#eee" fill="transparent" stroke-width="10" x1="112.70166537925832" y1="600" x2="887.2983346207417" y2="600"></line><line stroke="#eee" fill="transparent" stroke-width="10" x1="153.58983848622455" y1="700" x2="846.4101615137754" y2="700"></line><line stroke="#eee" fill="transparent" stroke-width="10" x1="235.42486889354092" y1="800" x2="764.5751311064591" y2="800"></line><line stroke="#eee" fill="transparent" stroke-width="10" x1="500" y1="900" x2="500" y2="900"></line><circle stroke="transparent" fill="white" r="17" cx="285.8745753765106" cy="732.1639066562057"></circle><circle stroke="transparent" fill="white" r="17" cx="548.0399305000901" cy="706.630327180028"></circle><circle stroke="transparent" fill="white" r="17" cx="204.94830310344696" cy="754.3318746611476"></circle><circle stroke="transparent" fill="white" r="17" cx="889.9926828220487" cy="534.6267120912671"></circle><circle stroke="transparent" fill="white" r="17" cx="867.1241519972682" cy="382.2459354996681"></circle><circle stroke="transparent" fill="white" r="17" cx="363.7679809704423" cy="777.883068844676"></circle><circle stroke="transparent" fill="white" r="17" cx="777.7006272226572" cy="532.6285053044558"></circle><circle stroke="transparent" fill="white" r="17" cx="633.2866989076138" cy="430.84711730480194"></circle><circle stroke="transparent" fill="white" r="17" cx="542.0230153948069" cy="209.3854257836938"></circle><circle stroke="transparent" fill="white" r="17" cx="352.1922351792455" cy="326.6667539253831"></circle><circle stroke="transparent" fill="white" r="17" cx="416.7581748217344" cy="352.7272164821625"></circle><circle stroke="transparent" fill="white" r="17" cx="772.5532691925764" cy="515.3654076159"></circle><circle stroke="transparent" fill="white" r="17" cx="298.6943485215306" cy="642.7322711795568"></circle><circle stroke="transparent" fill="white" r="17" cx="283.42043198645115" cy="329.92385644465685"></circle><circle stroke="transparent" fill="white" r="17" cx="224.4138091802597" cy="775.1045452430844"></circle><circle stroke="transparent" fill="white" r="17" cx="668.2556468993425" cy="540.5498888343573"></circle><circle stroke="transparent" fill="white" r="17" cx="323.08615259826183" cy="394.6216784417629"></circle><circle stroke="transparent" fill="white" r="17" cx="450.30789617449045" cy="835.3453990072012"></circle><circle stroke="transparent" fill="white" r="17" cx="851.0573884472251" cy="586.7168543860316"></circle><circle stroke="transparent" fill="white" r="17" cx="844.0548595041037" cy="374.1926558315754"></circle><circle stroke="transparent" fill="#d85c9c" r="10" cx="285.8745753765106" cy="732.1639066562057"></circle><circle stroke="transparent" fill="#d85c9c" r="10" cx="548.0399305000901" cy="706.630327180028"></circle><circle stroke="transparent" fill="#d85c9c" r="10" cx="204.94830310344696" cy="754.3318746611476"></circle><circle stroke="transparent" fill="#5aa6b1" r="10" cx="889.9926828220487" cy="534.6267120912671"></circle><circle stroke="transparent" fill="#ea6b16" r="10" cx="867.1241519972682" cy="382.2459354996681"></circle><circle stroke="transparent" fill="#d85c9c" r="10" cx="363.7679809704423" cy="777.883068844676"></circle><circle stroke="transparent" fill="#5aa6b1" r="10" cx="777.7006272226572" cy="532.6285053044558"></circle><circle stroke="transparent" fill="#4cbd7d" r="10" cx="633.2866989076138" cy="430.84711730480194"></circle><circle stroke="transparent" fill="#3189d2" r="10" cx="542.0230153948069" cy="209.3854257836938"></circle><circle stroke="transparent" fill="#ea6b16" r="10" cx="352.1922351792455" cy="326.6667539253831"></circle><circle stroke="transparent" fill="#ea6b16" r="10" cx="416.7581748217344" cy="352.7272164821625"></circle><circle stroke="transparent" fill="#5aa6b1" r="10" cx="772.5532691925764" cy="515.3654076159"></circle><circle stroke="transparent" fill="#76cc14" r="10" cx="298.6943485215306" cy="642.7322711795568"></circle><circle stroke="transparent" fill="#ea6b16" r="10" cx="283.42043198645115" cy="329.92385644465685"></circle><circle stroke="transparent" fill="#d85c9c" r="10" cx="224.4138091802597" cy="775.1045452430844"></circle><circle stroke="transparent" fill="#5aa6b1" r="10" cx="668.2556468993425" cy="540.5498888343573"></circle><circle stroke="transparent" fill="#ea6b16" r="10" cx="323.08615259826183" cy="394.6216784417629"></circle><circle stroke="transparent" fill="#c5b725" r="10" cx="450.30789617449045" cy="835.3453990072012"></circle><circle stroke="transparent" fill="#5aa6b1" r="10" cx="851.0573884472251" cy="586.7168543860316"></circle><circle stroke="transparent" fill="#ea6b16" r="10" cx="844.0548595041037" cy="374.1926558315754"></circle></svg>