<?xml version="1.0" standalone="no"?><!DOCTYPE svg PUBLIC "-//W3C//DTD SVG 1.1//EN" "http://www.w3.org/Graphics/SVG/1.1/DTD/svg11.dtd"><svg width="1232" height="360" vertion="1.1" style="background-color:#fff" id="svg" version="1.1" xmlns="http://www.w3.org/2000/svg" xmlns:xlink="http://www.w3.org/1999/xlink"><defs xmlns="http://www.w3.org/1999/xhtml"><style type="text/css"><![CDATA[]]></style></defs>
    <polygon stroke="#ddd" fill="#D8E2C9" stroke-width="3" points="40 128.33333333333334 148.2706766917293 128.33333333333334 148.34116541353384 11.666666666666686 264.9295112781955 11.666666666666686 265.00881109022555 128.33333333333334 490 128.33333333333334 490 128.33333333333334 40 128.33333333333334"/><line stroke="#ddd" fill="transparent" stroke-width="3" x1="40" y1="128.33333333333334" x2="490" y2="128.33333333333334"/><line stroke="#ddd" fill="transparent" stroke-width="3" x1="148.33333333333331" y1="123.33333333333334" x2="148.33333333333331" y2="133.33333333333334"/><line stroke="#ddd" fill="transparent" stroke-width="3" x1="265" y1="123.33333333333334" x2="265" y2="133.33333333333334"/><line stroke="#ddd" fill="transparent" stroke-width="3" x1="381.66666666666663" y1="123.33333333333334" x2="381.66666666666663" y2="133.33333333333334"/><line stroke="#ddd" fill="transparent" stroke-width="3" x1="148.33333333333331" y1="140" x2="148.33333333333331" y2="0"/><line stroke="#ddd" fill="transparent" stroke-width="3" x1="143.33333333333331" y1="128.33333333333334" x2="153.33333333333331" y2="128.33333333333334"/><line stroke="#ddd" fill="transparent" stroke-width="3" x1="143.33333333333331" y1="11.666666666666686" x2="153.33333333333331" y2="11.666666666666686"/><polyline stroke="#576544" fill="transparent" stroke-width="3" points="40 128.33333333333334 148.2706766917293 128.33333333333334 148.34116541353384 11.666666666666686 264.9295112781955 11.666666666666686 265.00881109022555 128.33333333333334 490 128.33333333333334"/><polygon stroke="#ddd" fill="#F0E0C5" stroke-width="3" points="40 348.33333333333337 264.9295112781955 348.33333333333337 265.00881109022555 231.66666666666669 381.6588345864662 231.66666666666669 381.72932330827075 348.33333333333337 490 348.33333333333337 490 348.33333333333337 40 348.33333333333337"/><line stroke="#ddd" fill="transparent" stroke-width="3" x1="40" y1="348.33333333333337" x2="490" y2="348.33333333333337"/><line stroke="#ddd" fill="transparent" stroke-width="3" x1="148.33333333333331" y1="343.33333333333337" x2="148.33333333333331" y2="353.33333333333337"/><line stroke="#ddd" fill="transparent" stroke-width="3" x1="265" y1="343.33333333333337" x2="265" y2="353.33333333333337"/><line stroke="#ddd" fill="transparent" stroke-width="3" x1="381.66666666666663" y1="343.33333333333337" x2="381.66666666666663" y2="353.33333333333337"/><line stroke="#ddd" fill="transparent" stroke-width="3" x1="148.33333333333331" y1="360" x2="148.33333333333331" y2="220"/><line stroke="#ddd" fill="transparent" stroke-width="3" x1="143.33333333333331" y1="348.33333333333337" x2="153.33333333333331" y2="348.33333333333337"/><line stroke="#ddd" fill="transparent" stroke-width="3" x1="143.33333333333331" y1="231.66666666666669" x2="153.33333333333331" y2="231.66666666666669"/><polyline stroke="#AB9269" fill="transparent" stroke-width="3" points="40 348.33333333333337 264.9295112781955 348.33333333333337 265.00881109022555 231.66666666666669 381.6588345864662 231.66666666666669 381.72932330827075 348.33333333333337 490 348.33333333333337"/><polygon stroke="transparent" fill="#F0E0C5" stroke-width="3" points="742 238.33333333333334 966.9295112781955 238.33333333333334 967.0088110902255 121.66666666666669 1083.6588345864661 121.66666666666669 1083.7293233082708 238.33333333333334 1192 238.33333333333334 1192 238.33333333333334 742 238.33333333333334"/><polygon stroke="transparent" fill="#D8E2C9" stroke-width="3" points="742 238.33333333333334 850.2706766917294 238.33333333333334 850.3411654135339 121.66666666666669 966.9295112781955 121.66666666666669 967.0088110902255 238.33333333333334 1192 238.33333333333334 1192 238.33333333333334 742 238.33333333333334"/><line stroke="#ddd" fill="transparent" stroke-width="3" x1="742" y1="238.33333333333334" x2="1192" y2="238.33333333333334"/><line stroke="#ddd" fill="transparent" stroke-width="3" x1="850.3333333333334" y1="233.33333333333334" x2="850.3333333333334" y2="243.33333333333334"/><line stroke="#ddd" fill="transparent" stroke-width="3" x1="967" y1="233.33333333333334" x2="967" y2="243.33333333333334"/><line stroke="#ddd" fill="transparent" stroke-width="3" x1="1083.6666666666665" y1="233.33333333333334" x2="1083.6666666666665" y2="243.33333333333334"/><line stroke="#ddd" fill="transparent" stroke-width="3" x1="850.3333333333334" y1="250" x2="850.3333333333334" y2="110"/><line stroke="#ddd" fill="transparent" stroke-width="3" x1="845.3333333333334" y1="238.33333333333334" x2="855.3333333333334" y2="238.33333333333334"/><line stroke="#ddd" fill="transparent" stroke-width="3" x1="845.3333333333334" y1="121.66666666666669" x2="855.3333333333334" y2="121.66666666666669"/><polyline stroke="#666" fill="transparent" stroke-width="3" points="742 238.33333333333334 850.2706766917294 238.33333333333334 850.3411654135339 121.66666666666669 1083.6588345864661 121.66666666666669 1083.7293233082708 238.33333333333334 1192 238.33333333333334"/><text stroke="transparent" fill="#ddd" stroke-width="3" x="245" y="195" font-size="64px">+</text><text stroke="transparent" fill="#ddd" stroke-width="3" x="596" y="195" font-size="64px">=</text></svg>