<?xml version="1.0" standalone="no"?><!DOCTYPE svg PUBLIC "-//W3C//DTD SVG 1.1//EN" "http://www.w3.org/Graphics/SVG/1.1/DTD/svg11.dtd"><svg width="1232" height="540" vertion="1.1" style="background-color:#fff" id="svg" version="1.1" xmlns="http://www.w3.org/2000/svg" xmlns:xlink="http://www.w3.org/1999/xlink"><defs xmlns="http://www.w3.org/1999/xhtml"><style type="text/css"><![CDATA[]]></style></defs>
    <polygon stroke="#ddd" fill="#D8E2C9" stroke-width="3" points="40 183.33333333333334 98.32941729323309 183.33333333333334 98.48801691729324 16.666666666666686 264.9295112781955 16.666666666666686 265.08811090225566 183.33333333333334 490 183.33333333333334 490 183.33333333333334 40 183.33333333333334"/><line stroke="#ddd" fill="transparent" stroke-width="3" x1="40" y1="183.33333333333334" x2="490" y2="183.33333333333334"/><line stroke="#ddd" fill="transparent" stroke-width="3" x1="98.33333333333334" y1="178.33333333333334" x2="98.33333333333334" y2="188.33333333333334"/><line stroke="#ddd" fill="transparent" stroke-width="3" x1="265" y1="178.33333333333334" x2="265" y2="188.33333333333334"/><line stroke="#ddd" fill="transparent" stroke-width="3" x1="431.6666666666667" y1="178.33333333333334" x2="431.6666666666667" y2="188.33333333333334"/><line stroke="#ddd" fill="transparent" stroke-width="3" x1="98.33333333333334" y1="200" x2="98.33333333333334" y2="0"/><line stroke="#ddd" fill="transparent" stroke-width="3" x1="93.33333333333334" y1="183.33333333333334" x2="103.33333333333334" y2="183.33333333333334"/><line stroke="#ddd" fill="transparent" stroke-width="3" x1="93.33333333333334" y1="16.666666666666686" x2="103.33333333333334" y2="16.666666666666686"/><polyline stroke="#576544" fill="transparent" stroke-width="3" points="40 183.33333333333334 98.32941729323309 183.33333333333334 98.48801691729324 16.666666666666686 264.9295112781955 16.666666666666686 265.08811090225566 183.33333333333334 490 183.33333333333334"/><polygon stroke="#ddd" fill="#F0E0C5" stroke-width="3" points="40 523.3333333333334 264.9295112781955 523.3333333333334 265.08811090225566 356.6666666666667 431.6353383458647 356.6666666666667 431.74107142857144 523.3333333333334 490 523.3333333333334 490 523.3333333333334 40 523.3333333333334"/><line stroke="#ddd" fill="transparent" stroke-width="3" x1="40" y1="523.3333333333334" x2="490" y2="523.3333333333334"/><line stroke="#ddd" fill="transparent" stroke-width="3" x1="98.33333333333334" y1="518.3333333333334" x2="98.33333333333334" y2="528.3333333333334"/><line stroke="#ddd" fill="transparent" stroke-width="3" x1="265" y1="518.3333333333334" x2="265" y2="528.3333333333334"/><line stroke="#ddd" fill="transparent" stroke-width="3" x1="431.6666666666667" y1="518.3333333333334" x2="431.6666666666667" y2="528.3333333333334"/><line stroke="#ddd" fill="transparent" stroke-width="3" x1="98.33333333333334" y1="540" x2="98.33333333333334" y2="340"/><line stroke="#ddd" fill="transparent" stroke-width="3" x1="93.33333333333334" y1="523.3333333333334" x2="103.33333333333334" y2="523.3333333333334"/><line stroke="#ddd" fill="transparent" stroke-width="3" x1="93.33333333333334" y1="356.6666666666667" x2="103.33333333333334" y2="356.6666666666667"/><polyline stroke="#AB9269" fill="transparent" stroke-width="3" points="40 523.3333333333334 264.9295112781955 523.3333333333334 265.08811090225566 356.6666666666667 431.6353383458647 356.6666666666667 431.74107142857144 523.3333333333334 490 523.3333333333334"/><polygon stroke="transparent" fill="#F0E0C5" stroke-width="3" points="742 353.33333333333337 966.9295112781955 353.33333333333337 967.0881109022557 186.66666666666669 1133.6353383458647 186.66666666666669 1133.7410714285716 353.33333333333337 1192 353.33333333333337 1192 353.33333333333337 742 353.33333333333337"/><polygon stroke="transparent" fill="#D8E2C9" stroke-width="3" points="742 353.33333333333337 800.3294172932331 353.33333333333337 800.4880169172932 186.66666666666669 966.9295112781955 186.66666666666669 967.0881109022557 353.33333333333337 1192 353.33333333333337 1192 353.33333333333337 742 353.33333333333337"/><line stroke="#ddd" fill="transparent" stroke-width="3" x1="742" y1="353.33333333333337" x2="1192" y2="353.33333333333337"/><line stroke="#ddd" fill="transparent" stroke-width="3" x1="800.3333333333334" y1="348.33333333333337" x2="800.3333333333334" y2="358.33333333333337"/><line stroke="#ddd" fill="transparent" stroke-width="3" x1="967" y1="348.33333333333337" x2="967" y2="358.33333333333337"/><line stroke="#ddd" fill="transparent" stroke-width="3" x1="1133.6666666666667" y1="348.33333333333337" x2="1133.6666666666667" y2="358.33333333333337"/><line stroke="#ddd" fill="transparent" stroke-width="3" x1="800.3333333333334" y1="370" x2="800.3333333333334" y2="170"/><line stroke="#ddd" fill="transparent" stroke-width="3" x1="795.3333333333334" y1="353.33333333333337" x2="805.3333333333334" y2="353.33333333333337"/><line stroke="#ddd" fill="transparent" stroke-width="3" x1="795.3333333333334" y1="186.66666666666669" x2="805.3333333333334" y2="186.66666666666669"/><polyline stroke="#666" fill="transparent" stroke-width="3" points="742 353.33333333333337 800.3294172932331 353.33333333333337 800.4880169172932 186.66666666666669 1133.6353383458647 186.66666666666669 1133.7410714285716 353.33333333333337 1192 353.33333333333337"/><text stroke="transparent" fill="#ddd" stroke-width="3" x="245" y="285" font-size="64px">+</text><text stroke="transparent" fill="#ddd" stroke-width="3" x="596" y="285" font-size="64px">=</text></svg>