<?xml version="1.0" standalone="no"?><!DOCTYPE svg PUBLIC "-//W3C//DTD SVG 1.1//EN" "http://www.w3.org/Graphics/SVG/1.1/DTD/svg11.dtd"><svg width="1232" height="340" vertion="1.1" style="background-color:#fff" id="svg" version="1.1" xmlns="http://www.w3.org/2000/svg" xmlns:xlink="http://www.w3.org/1999/xlink"><defs xmlns="http://www.w3.org/1999/xhtml"><style type="text/css"><![CDATA[]]></style></defs>
    <polygon stroke="#ddd" fill="#D8E2C9" stroke-width="3" points="170 80.17241379310346 344.99919506933605 80.17241379310346 345.0000532752382 19.827586206896555 375.17238017759826 19.827586206896555 375.172557477827 80.17241379310346 520 80.17241379310346 520 80.17241379310346 170 80.17241379310346"/><line stroke="#ddd" fill="transparent" stroke-width="3" x1="170" y1="80.17241379310346" x2="520" y2="80.17241379310346"/><line stroke="#ddd" fill="transparent" stroke-width="3" x1="224.3103448275862" y1="75.17241379310346" x2="224.3103448275862" y2="85.17241379310346"/><line stroke="#ddd" fill="transparent" stroke-width="3" x1="284.6551724137931" y1="75.17241379310346" x2="284.6551724137931" y2="85.17241379310346"/><line stroke="#ddd" fill="transparent" stroke-width="3" x1="345" y1="75.17241379310346" x2="345" y2="85.17241379310346"/><line stroke="#ddd" fill="transparent" stroke-width="3" x1="405.34482758620686" y1="75.17241379310346" x2="405.34482758620686" y2="85.17241379310346"/><line stroke="#ddd" fill="transparent" stroke-width="3" x1="465.68965517241384" y1="75.17241379310346" x2="465.68965517241384" y2="85.17241379310346"/><line stroke="#ddd" fill="transparent" stroke-width="3" x1="345" y1="100" x2="345" y2="0"/><line stroke="#ddd" fill="transparent" stroke-width="3" x1="340" y1="80.17241379310346" x2="350" y2="80.17241379310346"/><line stroke="#ddd" fill="transparent" stroke-width="3" x1="340" y1="19.827586206896555" x2="350" y2="19.827586206896555"/><polyline stroke="#576544" fill="transparent" stroke-width="3" points="170 80.17241379310346 344.99919506933605 80.17241379310346 345.0000532752382 19.827586206896555 375.17238017759826 19.827586206896555 375.172557477827 80.17241379310346 520 80.17241379310346"/><polygon stroke="#ddd" fill="#F0E0C5" stroke-width="3" points="170 320.1724137931035 375.17238017759826 320.1724137931035 375.172557477827 259.82758620689657 405.3436522790345 259.82758620689657 405.34486567747524 320.1724137931035 520 320.1724137931035 520 320.1724137931035 170 320.1724137931035"/><line stroke="#ddd" fill="transparent" stroke-width="3" x1="170" y1="320.1724137931035" x2="520" y2="320.1724137931035"/><line stroke="#ddd" fill="transparent" stroke-width="3" x1="224.3103448275862" y1="315.1724137931035" x2="224.3103448275862" y2="325.1724137931035"/><line stroke="#ddd" fill="transparent" stroke-width="3" x1="284.6551724137931" y1="315.1724137931035" x2="284.6551724137931" y2="325.1724137931035"/><line stroke="#ddd" fill="transparent" stroke-width="3" x1="345" y1="315.1724137931035" x2="345" y2="325.1724137931035"/><line stroke="#ddd" fill="transparent" stroke-width="3" x1="405.34482758620686" y1="315.1724137931035" x2="405.34482758620686" y2="325.1724137931035"/><line stroke="#ddd" fill="transparent" stroke-width="3" x1="465.68965517241384" y1="315.1724137931035" x2="465.68965517241384" y2="325.1724137931035"/><line stroke="#ddd" fill="transparent" stroke-width="3" x1="345" y1="340" x2="345" y2="240"/><line stroke="#ddd" fill="transparent" stroke-width="3" x1="340" y1="320.1724137931035" x2="350" y2="320.1724137931035"/><line stroke="#ddd" fill="transparent" stroke-width="3" x1="340" y1="259.82758620689657" x2="350" y2="259.82758620689657"/><polyline stroke="#AB9269" fill="transparent" stroke-width="3" points="170 320.1724137931035 375.17238017759826 320.1724137931035 375.172557477827 259.82758620689657 405.3436522790345 259.82758620689657 405.34486567747524 320.1724137931035 520 320.1724137931035"/><polygon stroke="transparent" fill="#F0E0C5" stroke-width="3" points="712 200.17241379310346 917.1723801775983 200.17241379310346 917.172557477827 139.82758620689657 947.3436522790345 139.82758620689657 947.3448656774752 200.17241379310346 1062 200.17241379310346 1062 200.17241379310346 712 200.17241379310346"/><polygon stroke="transparent" fill="#D8E2C9" stroke-width="3" points="712 200.17241379310346 886.9991950693361 200.17241379310346 887.0000532752382 139.82758620689657 917.1723801775983 139.82758620689657 917.172557477827 200.17241379310346 1062 200.17241379310346 1062 200.17241379310346 712 200.17241379310346"/><line stroke="#ddd" fill="transparent" stroke-width="3" x1="712" y1="200.17241379310346" x2="1062" y2="200.17241379310346"/><line stroke="#ddd" fill="transparent" stroke-width="3" x1="766.3103448275862" y1="195.17241379310346" x2="766.3103448275862" y2="205.17241379310346"/><line stroke="#ddd" fill="transparent" stroke-width="3" x1="826.6551724137931" y1="195.17241379310346" x2="826.6551724137931" y2="205.17241379310346"/><line stroke="#ddd" fill="transparent" stroke-width="3" x1="887" y1="195.17241379310346" x2="887" y2="205.17241379310346"/><line stroke="#ddd" fill="transparent" stroke-width="3" x1="947.3448275862069" y1="195.17241379310346" x2="947.3448275862069" y2="205.17241379310346"/><line stroke="#ddd" fill="transparent" stroke-width="3" x1="1007.6896551724138" y1="195.17241379310346" x2="1007.6896551724138" y2="205.17241379310346"/><line stroke="#ddd" fill="transparent" stroke-width="3" x1="887" y1="220" x2="887" y2="120"/><line stroke="#ddd" fill="transparent" stroke-width="3" x1="882" y1="200.17241379310346" x2="892" y2="200.17241379310346"/><line stroke="#ddd" fill="transparent" stroke-width="3" x1="882" y1="139.82758620689657" x2="892" y2="139.82758620689657"/><polyline stroke="#666" fill="transparent" stroke-width="3" points="712 200.17241379310346 886.9991950693361 200.17241379310346 887.0000532752382 139.82758620689657 947.3436522790345 139.82758620689657 947.3448656774752 200.17241379310346 1062 200.17241379310346"/><text stroke="transparent" fill="#ddd" stroke-width="3" x="325" y="185" font-size="64px">+</text><text stroke="transparent" fill="#ddd" stroke-width="3" x="596" y="185" font-size="64px">=</text></svg>