<?xml version="1.0" standalone="no"?><!DOCTYPE svg PUBLIC "-//W3C//DTD SVG 1.1//EN" "http://www.w3.org/Graphics/SVG/1.1/DTD/svg11.dtd"><svg width="1232" height="360" vertion="1.1" style="background-color:#fff" id="svg" version="1.1" xmlns="http://www.w3.org/2000/svg" xmlns:xlink="http://www.w3.org/1999/xlink"><defs xmlns="http://www.w3.org/1999/xhtml"><style type="text/css"><![CDATA[]]></style></defs>
    <line stroke="#eee" fill="transparent" stroke-width="3" x1="40" y1="128.33333333333334" x2="490" y2="128.33333333333334"/><line stroke="#eee" fill="transparent" stroke-width="3" x1="148.33333333333331" y1="123.33333333333334" x2="148.33333333333331" y2="133.33333333333334"/><line stroke="#eee" fill="transparent" stroke-width="3" x1="265" y1="123.33333333333334" x2="265" y2="133.33333333333334"/><line stroke="#eee" fill="transparent" stroke-width="3" x1="381.66666666666663" y1="123.33333333333334" x2="381.66666666666663" y2="133.33333333333334"/><line stroke="#eee" fill="transparent" stroke-width="3" x1="148.33333333333331" y1="140" x2="148.33333333333331" y2="0"/><line stroke="#eee" fill="transparent" stroke-width="3" x1="143.33333333333331" y1="128.33333333333334" x2="153.33333333333331" y2="128.33333333333334"/><line stroke="#eee" fill="transparent" stroke-width="3" x1="143.33333333333331" y1="11.666666666666686" x2="153.33333333333331" y2="11.666666666666686"/><polygon stroke="#eee" fill="#d4e1e8" stroke-width="3" points="40.0 128.3 148.3 128.3 148.3 11.7 264.9 11.7 265.0 128.3 490.0 128.3 490.0 128.3 40.0 128.3"/><polyline stroke="#738b97" fill="transparent" stroke-width="3" points="40.0 128.3 148.3 128.3 148.3 11.7 264.9 11.7 265.0 128.3 490.0 128.3"/><line stroke="#eee" fill="transparent" stroke-width="3" x1="40" y1="348.33333333333337" x2="490" y2="348.33333333333337"/><line stroke="#eee" fill="transparent" stroke-width="3" x1="148.33333333333331" y1="343.33333333333337" x2="148.33333333333331" y2="353.33333333333337"/><line stroke="#eee" fill="transparent" stroke-width="3" x1="265" y1="343.33333333333337" x2="265" y2="353.33333333333337"/><line stroke="#eee" fill="transparent" stroke-width="3" x1="381.66666666666663" y1="343.33333333333337" x2="381.66666666666663" y2="353.33333333333337"/><line stroke="#eee" fill="transparent" stroke-width="3" x1="148.33333333333331" y1="360" x2="148.33333333333331" y2="220"/><line stroke="#eee" fill="transparent" stroke-width="3" x1="143.33333333333331" y1="348.33333333333337" x2="153.33333333333331" y2="348.33333333333337"/><line stroke="#eee" fill="transparent" stroke-width="3" x1="143.33333333333331" y1="231.66666666666669" x2="153.33333333333331" y2="231.66666666666669"/><polygon stroke="#eee" fill="#dee8d4" stroke-width="3" points="40.0 348.3 264.9 348.3 265.0 231.7 381.7 231.7 381.7 348.3 490.0 348.3 490.0 348.3 40.0 348.3"/><polyline stroke="#859773" fill="transparent" stroke-width="3" points="40.0 348.3 264.9 348.3 265.0 231.7 381.7 231.7 381.7 348.3 490.0 348.3"/><line stroke="#eee" fill="transparent" stroke-width="3" x1="742" y1="238.33333333333334" x2="1192" y2="238.33333333333334"/><line stroke="#eee" fill="transparent" stroke-width="3" x1="850.3333333333334" y1="233.33333333333334" x2="850.3333333333334" y2="243.33333333333334"/><line stroke="#eee" fill="transparent" stroke-width="3" x1="967" y1="233.33333333333334" x2="967" y2="243.33333333333334"/><line stroke="#eee" fill="transparent" stroke-width="3" x1="1083.6666666666665" y1="233.33333333333334" x2="1083.6666666666665" y2="243.33333333333334"/><line stroke="#eee" fill="transparent" stroke-width="3" x1="850.3333333333334" y1="250" x2="850.3333333333334" y2="110"/><line stroke="#eee" fill="transparent" stroke-width="3" x1="845.3333333333334" y1="238.33333333333334" x2="855.3333333333334" y2="238.33333333333334"/><line stroke="#eee" fill="transparent" stroke-width="3" x1="845.3333333333334" y1="121.66666666666669" x2="855.3333333333334" y2="121.66666666666669"/><polygon stroke="transparent" fill="#d4e1e8" stroke-width="3" points="742.0 238.3 850.3 238.3 850.3 121.7 966.9 121.7 967.0 238.3 1192.0 238.3 1192.0 238.3 742.0 238.3"/><polyline stroke="#fff" fill="transparent" stroke-width="3" points="742.0 238.3 850.3 238.3 850.3 121.7 966.9 121.7 967.0 238.3 1192.0 238.3"/><polygon stroke="transparent" fill="#dee8d4" stroke-width="3" points="742.0 238.3 850.3 238.3 850.3 121.7 1083.7 121.7 1083.7 238.3 1192.0 238.3 1192.0 238.3 967.0 238.3 966.9 121.7 850.3 121.7 850.3 238.3 742.0 238.3"/><polyline stroke="#666" fill="transparent" stroke-width="3" points="742.0 238.3 850.3 238.3 850.3 121.7 1083.7 121.7 1083.7 238.3 1192.0 238.3"/><text stroke="transparent" fill="#ddd" stroke-width="3" x="245" y="195" font-size="64px">+</text><text stroke="transparent" fill="#ddd" stroke-width="3" x="596" y="195" font-size="64px">=</text></svg>