<?xml version="1.0" standalone="no"?><!DOCTYPE svg PUBLIC "-//W3C//DTD SVG 1.1//EN" "http://www.w3.org/Graphics/SVG/1.1/DTD/svg11.dtd"><svg width="1232" height="280" vertion="1.1" style="background-color:#fff" id="svg" version="1.1" xmlns="http://www.w3.org/2000/svg" xmlns:xlink="http://www.w3.org/1999/xlink"><defs xmlns="http://www.w3.org/1999/xhtml"><style type="text/css"><![CDATA[]]></style></defs>
    <line stroke="#eee" fill="transparent" stroke-width="3" x1="20" y1="84.35185185185186" x2="550" y2="84.35185185185186"/><line stroke="#eee" fill="transparent" stroke-width="3" x1="88.70370370370371" y1="79.35185185185186" x2="88.70370370370371" y2="89.35185185185186"/><line stroke="#eee" fill="transparent" stroke-width="3" x1="186.85185185185185" y1="79.35185185185186" x2="186.85185185185185" y2="89.35185185185186"/><line stroke="#eee" fill="transparent" stroke-width="3" x1="285" y1="79.35185185185186" x2="285" y2="89.35185185185186"/><line stroke="#eee" fill="transparent" stroke-width="3" x1="383.1481481481481" y1="79.35185185185186" x2="383.1481481481481" y2="89.35185185185186"/><line stroke="#eee" fill="transparent" stroke-width="3" x1="481.2962962962963" y1="79.35185185185186" x2="481.2962962962963" y2="89.35185185185186"/><line stroke="#eee" fill="transparent" stroke-width="3" x1="285" y1="100" x2="285" y2="0"/><line stroke="#eee" fill="transparent" stroke-width="3" x1="280" y1="84.35185185185186" x2="290" y2="84.35185185185186"/><polygon stroke="#eee" fill="#d4e1e8" stroke-width="3" points="20 81.94953292304582 33.28320802005013 80.95243185556308 45.238095238095234 79.78254402669016 57.19298245614038 78.3071022621593 67.81954887218043 76.70372747118292 78.44611528822054 74.797795167422 89.07268170426066 72.56938108848996 99.69924812030077 70.00826909898112 110.32581453634087 67.11704752082895 120.95238095238096 63.91400672394321 132.90726817042608 59.98391045132268 148.84711779448622 54.347806492763716 171.42857142857144 46.12184223530322 183.38345864661653 41.97359284933776 192.68170426065166 38.996596263661644 200.65162907268171 36.689821938681824 208.62155388471177 34.66341074939014 216.59147869674186 32.964410542801616 223.23308270676696 31.828459415740838 229.87468671679198 30.96812377007994 236.51629072681703 30.398742577639027 243.1578947368421 30.13086586594696 249.7994987468672 30.169919654633432 256.4411027568923 30.51601805802254 263.08270676691734 31.163931928509797 269.72431077694233 32.10321680295506 276.36591478696744 33.31849604927322 284.33583959899755 35.11286567941231 292.3057644110276 37.23409044206879 301.6040100250627 40.05730876867791 312.2305764411028 43.63954513947493 330.8270676691729 50.436801306638216 349.42355889724314 57.32598006446356 361.3784461152882 61.53323243135363 372.0050125313283 65.01493490448007 382.63157894736844 68.19554283951771 391.92982456140356 70.70439286433471 401.22807017543863 72.94595300466526 411.8546365914787 75.18018044362039 422.4812030075188 77.0771375709112 433.1077694235589 78.65959066304954 445.06265664160406 80.10123461049919 457.0175438596492 81.23085404914843 470.30075187969925 82.18053739977722 486.2406015037595 82.9842936922862 506.1654135338346 83.61521360494946 532.7318295739349 84.05068975985203 550 84.19040277647704 550 84.35185185185186 20 84.35185185185186"/><polyline stroke="#738b97" fill="transparent" stroke-width="3" points="20 81.94953292304582 33.28320802005013 80.95243185556308 45.238095238095234 79.78254402669016 57.19298245614038 78.3071022621593 67.81954887218043 76.70372747118292 78.44611528822054 74.797795167422 89.07268170426066 72.56938108848996 99.69924812030077 70.00826909898112 110.32581453634087 67.11704752082895 120.95238095238096 63.91400672394321 132.90726817042608 59.98391045132268 148.84711779448622 54.347806492763716 171.42857142857144 46.12184223530322 183.38345864661653 41.97359284933776 192.68170426065166 38.996596263661644 200.65162907268171 36.689821938681824 208.62155388471177 34.66341074939014 216.59147869674186 32.964410542801616 223.23308270676696 31.828459415740838 229.87468671679198 30.96812377007994 236.51629072681703 30.398742577639027 243.1578947368421 30.13086586594696 249.7994987468672 30.169919654633432 256.4411027568923 30.51601805802254 263.08270676691734 31.163931928509797 269.72431077694233 32.10321680295506 276.36591478696744 33.31849604927322 284.33583959899755 35.11286567941231 292.3057644110276 37.23409044206879 301.6040100250627 40.05730876867791 312.2305764411028 43.63954513947493 330.8270676691729 50.436801306638216 349.42355889724314 57.32598006446356 361.3784461152882 61.53323243135363 372.0050125313283 65.01493490448007 382.63157894736844 68.19554283951771 391.92982456140356 70.70439286433471 401.22807017543863 72.94595300466526 411.8546365914787 75.18018044362039 422.4812030075188 77.0771375709112 433.1077694235589 78.65959066304954 445.06265664160406 80.10123461049919 457.0175438596492 81.23085404914843 470.30075187969925 82.18053739977722 486.2406015037595 82.9842936922862 506.1654135338346 83.61521360494946 532.7318295739349 84.05068975985203 550 84.19040277647704"/><line stroke="#eee" fill="transparent" stroke-width="3" x1="20" y1="264.35185185185185" x2="550" y2="264.35185185185185"/><line stroke="#eee" fill="transparent" stroke-width="3" x1="88.70370370370371" y1="259.35185185185185" x2="88.70370370370371" y2="269.35185185185185"/><line stroke="#eee" fill="transparent" stroke-width="3" x1="186.85185185185185" y1="259.35185185185185" x2="186.85185185185185" y2="269.35185185185185"/><line stroke="#eee" fill="transparent" stroke-width="3" x1="285" y1="259.35185185185185" x2="285" y2="269.35185185185185"/><line stroke="#eee" fill="transparent" stroke-width="3" x1="383.1481481481481" y1="259.35185185185185" x2="383.1481481481481" y2="269.35185185185185"/><line stroke="#eee" fill="transparent" stroke-width="3" x1="481.2962962962963" y1="259.35185185185185" x2="481.2962962962963" y2="269.35185185185185"/><line stroke="#eee" fill="transparent" stroke-width="3" x1="285" y1="280" x2="285" y2="180"/><line stroke="#eee" fill="transparent" stroke-width="3" x1="280" y1="264.35185185185185" x2="290" y2="264.35185185185185"/><polygon stroke="#eee" fill="#dee8d4" stroke-width="3" points="20 264.1904027764771 49.2230576441103 263.89702678496826 70.47619047619047 263.44195790408895 87.74436090225566 262.81253440458937 102.35588972431079 262.0132900038669 115.6390977443609 261.004233942554 127.59398496240603 259.80958437113173 138.22055137844615 258.47801355811134 148.84711779448622 256.857765877268 159.47368421052633 254.91971320937625 168.77192982456143 252.94595300466526 178.0701754385965 250.7043928643347 188.6967418546366 247.8157900042595 199.3233082706767 244.59526532452838 211.2781954887218 240.6217487165602 225.88972431077693 235.3842732428882 249.7994987468672 226.4992059629597 261.7543859649123 222.2594484430025 271.0526315789474 219.2167989525889 279.02255639097746 216.85983463770208 286.9924812030075 214.7898883869959 294.96240601503763 213.05425421553838 301.6040100250627 211.89272024709405 308.2456140350877 211.01063198831815 314.88721804511283 210.4224094271831 321.5288220551379 210.1374717634008 328.17042606516287 210.1599846456668 334.812030075188 210.48876397781936 341.453634085213 211.11733902227797 348.09523809523813 212.03417068351553 354.7368421052632 213.22301433798552 362.7067669172933 214.97961388714572 370.67669172932335 217.05615755774946 379.9749373433584 219.8190434426516 390.6015037593985 223.32379206281348 407.8696741854637 229.49095090370145 427.7944862155389 236.73756101469775 441.07769423558904 241.32824617163797 451.7042606516291 244.74233783264452 462.3308270676692 247.8700936203182 472.95739348370927 250.67984330964373 483.5839598997494 253.15747120012165 494.2105263157895 255.30387461898687 504.83709273182956 257.1319884293565 515.4636591478697 258.6636832102913 527.4185463659148 260.06732294858557 540.7017543859649 261.2824021465447 550 261.9495329230458 550 264.35185185185185 20 264.35185185185185"/><polyline stroke="#859773" fill="transparent" stroke-width="3" points="20 264.1904027764771 49.2230576441103 263.89702678496826 70.47619047619047 263.44195790408895 87.74436090225566 262.81253440458937 102.35588972431079 262.0132900038669 115.6390977443609 261.004233942554 127.59398496240603 259.80958437113173 138.22055137844615 258.47801355811134 148.84711779448622 256.857765877268 159.47368421052633 254.91971320937625 168.77192982456143 252.94595300466526 178.0701754385965 250.7043928643347 188.6967418546366 247.8157900042595 199.3233082706767 244.59526532452838 211.2781954887218 240.6217487165602 225.88972431077693 235.3842732428882 249.7994987468672 226.4992059629597 261.7543859649123 222.2594484430025 271.0526315789474 219.2167989525889 279.02255639097746 216.85983463770208 286.9924812030075 214.7898883869959 294.96240601503763 213.05425421553838 301.6040100250627 211.89272024709405 308.2456140350877 211.01063198831815 314.88721804511283 210.4224094271831 321.5288220551379 210.1374717634008 328.17042606516287 210.1599846456668 334.812030075188 210.48876397781936 341.453634085213 211.11733902227797 348.09523809523813 212.03417068351553 354.7368421052632 213.22301433798552 362.7067669172933 214.97961388714572 370.67669172932335 217.05615755774946 379.9749373433584 219.8190434426516 390.6015037593985 223.32379206281348 407.8696741854637 229.49095090370145 427.7944862155389 236.73756101469775 441.07769423558904 241.32824617163797 451.7042606516291 244.74233783264452 462.3308270676692 247.8700936203182 472.95739348370927 250.67984330964373 483.5839598997494 253.15747120012165 494.2105263157895 255.30387461898687 504.83709273182956 257.1319884293565 515.4636591478697 258.6636832102913 527.4185463659148 260.06732294858557 540.7017543859649 261.2824021465447 550 261.9495329230458"/><line stroke="#eee" fill="transparent" stroke-width="3" x1="682" y1="209.07407407407408" x2="1212" y2="209.07407407407408"/><line stroke="#eee" fill="transparent" stroke-width="3" x1="750.7037037037037" y1="204.07407407407408" x2="750.7037037037037" y2="214.07407407407408"/><line stroke="#eee" fill="transparent" stroke-width="3" x1="848.8518518518518" y1="204.07407407407408" x2="848.8518518518518" y2="214.07407407407408"/><line stroke="#eee" fill="transparent" stroke-width="3" x1="947" y1="204.07407407407408" x2="947" y2="214.07407407407408"/><line stroke="#eee" fill="transparent" stroke-width="3" x1="1045.148148148148" y1="204.07407407407408" x2="1045.148148148148" y2="214.07407407407408"/><line stroke="#eee" fill="transparent" stroke-width="3" x1="1143.2962962962963" y1="204.07407407407408" x2="1143.2962962962963" y2="214.07407407407408"/><line stroke="#eee" fill="transparent" stroke-width="3" x1="947" y1="230" x2="947" y2="90"/><line stroke="#eee" fill="transparent" stroke-width="3" x1="942" y1="209.07407407407408" x2="952" y2="209.07407407407408"/><line stroke="#eee" fill="transparent" stroke-width="3" x1="942" y1="110.92592592592594" x2="952" y2="110.92592592592594"/><polygon stroke="transparent" fill="#d4e1e8" stroke-width="3" points="682 206.67175514526804 695.2832080200501 205.6746540777853 707.2380952380952 204.50476624891238 719.1929824561404 203.0293244843815 729.8195488721805 201.42594969340513 740.4461152882205 199.5200173896442 751.0726817042606 197.29160331071216 761.6992481203008 194.73049132120332 772.3258145363409 191.83926974305115 782.952380952381 188.63622894616543 794.907268170426 184.70613267354491 810.8471177944862 179.07002871498594 833.4285714285714 170.84406445752546 845.3834586466165 166.69581507156 854.6817042606517 163.71881848588387 862.6516290726818 161.41204416090403 870.6215538847118 159.38563297161238 878.5914786967419 157.68663276502383 885.2330827067669 156.55068163796307 891.874686716792 155.69034599230218 898.516290726817 155.12096479986124 905.1578947368421 154.8530880881692 911.7994987468671 154.89214187685565 918.4411027568923 155.23824028024478 925.0827067669173 155.886154150732 931.7243107769423 156.82543902517727 938.3659147869674 158.04071827149545 946.3358395989976 159.83508790163452 954.3057644110277 161.956312664291 963.6040100250627 164.77953099090013 974.2305764411028 168.36176736169716 992.827067669173 175.15902352886042 1011.4235588972431 182.04820228668575 1023.3784461152882 186.25545465357584 1034.0050125313282 189.7371571267023 1044.6315789473683 192.9177650617399 1053.9298245614036 195.42661508655692 1063.2280701754387 197.66817522688746 1073.8546365914788 199.9024026658426 1084.4812030075188 201.79935979313342 1095.107769423559 203.38181288527176 1107.062656641604 204.8234568327214 1119.0175438596493 205.95307627137063 1132.3007518796992 206.90275962199945 1148.2406015037595 207.7065159145084 1168.1654135338347 208.33743582717167 1194.7318295739349 208.77291198207425 1212 208.91262499869924 1212 209.07407407407408 682 209.07407407407408"/><polygon stroke="transparent" fill="#dee8d4" stroke-width="3" points="682 206.5103060698932 693.9548872180451 205.5383006566368 705.9097744360903 204.26958965404503 716.5363408521303 202.84240890416993 725.8345864661654 201.32471959305224 735.1328320802005 199.52350782890056 744.4310776942356 197.408801471549 752.4010025062656 195.32577667139185 760.3709273182958 192.97728558326375 768.3408521303259 190.351487385185 776.3107769423559 187.44047603985445 784.280701754386 184.2411446011085 792.250626566416 180.75601734018144 800.2205513784461 176.9940095465206 809.5187969924812 172.27674957378107 818.8170426065163 167.24296019699372 829.4436090225564 161.17087561136475 861.3233082706768 142.0217932526482 871.9498746867168 135.80604631828407 881.2481203007519 130.65411883423778 889.218045112782 126.5424640781642 895.859649122807 123.38458839614383 902.5012531328321 120.51234852868527 909.1428571428571 117.96200310674125 915.7844611528823 115.7664606476281 921.0977443609022 114.28502670977909 926.4110275689222 113.06186166635081 931.7243107769423 112.10750323277239 937.0375939849624 111.430236662193 942.3508771929825 111.03597498658621 947.6641604010025 110.92817305945263 952.9774436090227 111.10777714777987 958.2907268170427 111.57321110192676 963.6040100250627 112.32039938614231 968.9172932330828 113.3428264990515 974.2305764411028 114.63163157241661 979.5438596491229 116.17573622719623 986.1854636591479 118.44468690051528 992.827067669173 121.0621616637498 999.468671679198 123.99452348754326 1007.438596491228 127.87695923273262 1015.4085213032581 132.09152247629558 1024.7067669172934 137.33321891535616 1039.3182957393483 146.0124468262402 1057.9147869674184 157.2454239407698 1069.8696741854637 164.24411423663406 1079.1679197994988 169.43600493937595 1088.4661654135339 174.33975345529547 1096.436090225564 178.27794289185772 1104.406015037594 181.94907035841527 1112.375939849624 185.33959276999497 1120.345864661654 188.44280339381444 1128.3157894736842 191.25814388647447 1136.2857142857142 193.7904157312327 1144.2556390977443 196.0489330991043 1153.5538847117796 198.35532784081667 1162.8521303258146 200.33213606152634 1172.1503759398497 202.00807407289744 1182.7769423558898 203.59431039821118 1193.4035087719299 204.87398025951262 1205.3583959899752 206.00340566289907 1212 206.5103060698932 1212 208.91262499869924 1194.7318295739349 208.77291198207425 1168.1654135338347 208.33743582717167 1148.2406015037595 207.7065159145084 1132.3007518796992 206.90275962199945 1119.0175438596493 205.95307627137063 1107.062656641604 204.8234568327214 1095.107769423559 203.38181288527176 1084.4812030075188 201.79935979313342 1073.8546365914788 199.9024026658426 1063.2280701754387 197.66817522688746 1053.9298245614036 195.42661508655692 1044.6315789473683 192.9177650617399 1034.0050125313282 189.7371571267023 1023.3784461152882 186.25545465357584 1011.4235588972431 182.04820228668575 992.827067669173 175.15902352886042 974.2305764411028 168.36176736169716 963.6040100250627 164.77953099090013 954.3057644110277 161.956312664291 946.3358395989976 159.83508790163452 938.3659147869674 158.04071827149545 931.7243107769423 156.82543902517727 925.0827067669173 155.886154150732 918.4411027568923 155.23824028024478 911.7994987468671 154.89214187685565 905.1578947368421 154.8530880881692 898.516290726817 155.12096479986124 891.874686716792 155.69034599230218 885.2330827067669 156.55068163796307 878.5914786967419 157.68663276502383 870.6215538847118 159.38563297161238 862.6516290726818 161.41204416090403 854.6817042606517 163.71881848588387 845.3834586466165 166.69581507156 833.4285714285714 170.84406445752546 810.8471177944862 179.07002871498594 794.907268170426 184.70613267354491 782.952380952381 188.63622894616543 772.3258145363409 191.83926974305115 761.6992481203008 194.73049132120332 751.0726817042606 197.29160331071216 740.4461152882205 199.5200173896442 729.8195488721805 201.42594969340513 719.1929824561404 203.0293244843815 707.2380952380952 204.50476624891238 695.2832080200501 205.6746540777853 682 206.67175514526804"/><polyline stroke="#fff" fill="transparent" stroke-width="3" points="682 206.67175514526804 695.2832080200501 205.6746540777853 707.2380952380952 204.50476624891238 719.1929824561404 203.0293244843815 729.8195488721805 201.42594969340513 740.4461152882205 199.5200173896442 751.0726817042606 197.29160331071216 761.6992481203008 194.73049132120332 772.3258145363409 191.83926974305115 782.952380952381 188.63622894616543 794.907268170426 184.70613267354491 810.8471177944862 179.07002871498594 833.4285714285714 170.84406445752546 845.3834586466165 166.69581507156 854.6817042606517 163.71881848588387 862.6516290726818 161.41204416090403 870.6215538847118 159.38563297161238 878.5914786967419 157.68663276502383 885.2330827067669 156.55068163796307 891.874686716792 155.69034599230218 898.516290726817 155.12096479986124 905.1578947368421 154.8530880881692 911.7994987468671 154.89214187685565 918.4411027568923 155.23824028024478 925.0827067669173 155.886154150732 931.7243107769423 156.82543902517727 938.3659147869674 158.04071827149545 946.3358395989976 159.83508790163452 954.3057644110277 161.956312664291 963.6040100250627 164.77953099090013 974.2305764411028 168.36176736169716 992.827067669173 175.15902352886042 1011.4235588972431 182.04820228668575 1023.3784461152882 186.25545465357584 1034.0050125313282 189.7371571267023 1044.6315789473683 192.9177650617399 1053.9298245614036 195.42661508655692 1063.2280701754387 197.66817522688746 1073.8546365914788 199.9024026658426 1084.4812030075188 201.79935979313342 1095.107769423559 203.38181288527176 1107.062656641604 204.8234568327214 1119.0175438596493 205.95307627137063 1132.3007518796992 206.90275962199945 1148.2406015037595 207.7065159145084 1168.1654135338347 208.33743582717167 1194.7318295739349 208.77291198207425 1212 208.91262499869924"/><polyline stroke="#666" fill="transparent" stroke-width="3" points="682 206.5103060698932 693.9548872180451 205.5383006566368 705.9097744360903 204.26958965404503 716.5363408521303 202.84240890416993 725.8345864661654 201.32471959305224 735.1328320802005 199.52350782890056 744.4310776942356 197.408801471549 752.4010025062656 195.32577667139185 760.3709273182958 192.97728558326375 768.3408521303259 190.351487385185 776.3107769423559 187.44047603985445 784.280701754386 184.2411446011085 792.250626566416 180.75601734018144 800.2205513784461 176.9940095465206 809.5187969924812 172.27674957378107 818.8170426065163 167.24296019699372 829.4436090225564 161.17087561136475 861.3233082706768 142.0217932526482 871.9498746867168 135.80604631828407 881.2481203007519 130.65411883423778 889.218045112782 126.5424640781642 895.859649122807 123.38458839614383 902.5012531328321 120.51234852868527 909.1428571428571 117.96200310674125 915.7844611528823 115.7664606476281 921.0977443609022 114.28502670977909 926.4110275689222 113.06186166635081 931.7243107769423 112.10750323277239 937.0375939849624 111.430236662193 942.3508771929825 111.03597498658621 947.6641604010025 110.92817305945263 952.9774436090227 111.10777714777987 958.2907268170427 111.57321110192676 963.6040100250627 112.32039938614231 968.9172932330828 113.3428264990515 974.2305764411028 114.63163157241661 979.5438596491229 116.17573622719623 986.1854636591479 118.44468690051528 992.827067669173 121.0621616637498 999.468671679198 123.99452348754326 1007.438596491228 127.87695923273262 1015.4085213032581 132.09152247629558 1024.7067669172934 137.33321891535616 1039.3182957393483 146.0124468262402 1057.9147869674184 157.2454239407698 1069.8696741854637 164.24411423663406 1079.1679197994988 169.43600493937595 1088.4661654135339 174.33975345529547 1096.436090225564 178.27794289185772 1104.406015037594 181.94907035841527 1112.375939849624 185.33959276999497 1120.345864661654 188.44280339381444 1128.3157894736842 191.25814388647447 1136.2857142857142 193.7904157312327 1144.2556390977443 196.0489330991043 1153.5538847117796 198.35532784081667 1162.8521303258146 200.33213606152634 1172.1503759398497 202.00807407289744 1182.7769423558898 203.59431039821118 1193.4035087719299 204.87398025951262 1205.3583959899752 206.00340566289907 1212 206.5103060698932"/><text stroke="transparent" fill="#ddd" stroke-width="3" x="265" y="155" font-size="64px">+</text><text stroke="transparent" fill="#ddd" stroke-width="3" x="596" y="155" font-size="64px">=</text></svg>