<?xml version="1.0" standalone="no"?><!DOCTYPE svg PUBLIC "-//W3C//DTD SVG 1.1//EN" "http://www.w3.org/Graphics/SVG/1.1/DTD/svg11.dtd"><svg width="1232" height="280" vertion="1.1" style="background-color:#fff" id="svg" version="1.1" xmlns="http://www.w3.org/2000/svg" xmlns:xlink="http://www.w3.org/1999/xlink"><defs xmlns="http://www.w3.org/1999/xhtml"><style type="text/css"><![CDATA[]]></style></defs>
    <line stroke="#eee" fill="transparent" stroke-width="3" x1="20" y1="84.35185185185186" x2="550" y2="84.35185185185186"/><line stroke="#eee" fill="transparent" stroke-width="3" x1="88.70370370370371" y1="79.35185185185186" x2="88.70370370370371" y2="89.35185185185186"/><line stroke="#eee" fill="transparent" stroke-width="3" x1="186.85185185185185" y1="79.35185185185186" x2="186.85185185185185" y2="89.35185185185186"/><line stroke="#eee" fill="transparent" stroke-width="3" x1="285" y1="79.35185185185186" x2="285" y2="89.35185185185186"/><line stroke="#eee" fill="transparent" stroke-width="3" x1="383.1481481481481" y1="79.35185185185186" x2="383.1481481481481" y2="89.35185185185186"/><line stroke="#eee" fill="transparent" stroke-width="3" x1="481.2962962962963" y1="79.35185185185186" x2="481.2962962962963" y2="89.35185185185186"/><line stroke="#eee" fill="transparent" stroke-width="3" x1="285" y1="100" x2="285" y2="0"/><line stroke="#eee" fill="transparent" stroke-width="3" x1="280" y1="84.35185185185186" x2="290" y2="84.35185185185186"/><polygon stroke="#eee" fill="#d4e1e8" stroke-width="3" points="20.0 81.9 33.3 81.0 45.2 79.8 57.2 78.3 67.8 76.7 78.4 74.8 89.1 72.6 99.7 70.0 110.3 67.1 121.0 63.9 132.9 60.0 148.8 54.3 171.4 46.1 183.4 42.0 192.7 39.0 200.7 36.7 208.6 34.7 216.6 33.0 223.2 31.8 229.9 31.0 236.5 30.4 243.2 30.1 249.8 30.2 256.4 30.5 263.1 31.2 269.7 32.1 276.4 33.3 284.3 35.1 292.3 37.2 301.6 40.1 312.2 43.6 330.8 50.4 349.4 57.3 361.4 61.5 372.0 65.0 382.6 68.2 391.9 70.7 401.2 72.9 411.9 75.2 422.5 77.1 433.1 78.7 445.1 80.1 457.0 81.2 470.3 82.2 486.2 83.0 506.2 83.6 532.7 84.1 550.0 84.2 550.0 84.4 20.0 84.4"/><polyline stroke="#738b97" fill="transparent" stroke-width="3" points="20.0 81.9 33.3 81.0 45.2 79.8 57.2 78.3 67.8 76.7 78.4 74.8 89.1 72.6 99.7 70.0 110.3 67.1 121.0 63.9 132.9 60.0 148.8 54.3 171.4 46.1 183.4 42.0 192.7 39.0 200.7 36.7 208.6 34.7 216.6 33.0 223.2 31.8 229.9 31.0 236.5 30.4 243.2 30.1 249.8 30.2 256.4 30.5 263.1 31.2 269.7 32.1 276.4 33.3 284.3 35.1 292.3 37.2 301.6 40.1 312.2 43.6 330.8 50.4 349.4 57.3 361.4 61.5 372.0 65.0 382.6 68.2 391.9 70.7 401.2 72.9 411.9 75.2 422.5 77.1 433.1 78.7 445.1 80.1 457.0 81.2 470.3 82.2 486.2 83.0 506.2 83.6 532.7 84.1 550.0 84.2"/><line stroke="#eee" fill="transparent" stroke-width="3" x1="20" y1="264.35185185185185" x2="550" y2="264.35185185185185"/><line stroke="#eee" fill="transparent" stroke-width="3" x1="88.70370370370371" y1="259.35185185185185" x2="88.70370370370371" y2="269.35185185185185"/><line stroke="#eee" fill="transparent" stroke-width="3" x1="186.85185185185185" y1="259.35185185185185" x2="186.85185185185185" y2="269.35185185185185"/><line stroke="#eee" fill="transparent" stroke-width="3" x1="285" y1="259.35185185185185" x2="285" y2="269.35185185185185"/><line stroke="#eee" fill="transparent" stroke-width="3" x1="383.1481481481481" y1="259.35185185185185" x2="383.1481481481481" y2="269.35185185185185"/><line stroke="#eee" fill="transparent" stroke-width="3" x1="481.2962962962963" y1="259.35185185185185" x2="481.2962962962963" y2="269.35185185185185"/><line stroke="#eee" fill="transparent" stroke-width="3" x1="285" y1="280" x2="285" y2="180"/><line stroke="#eee" fill="transparent" stroke-width="3" x1="280" y1="264.35185185185185" x2="290" y2="264.35185185185185"/><polygon stroke="#eee" fill="#dee8d4" stroke-width="3" points="20.0 264.2 49.2 263.9 70.5 263.4 87.7 262.8 102.4 262.0 115.6 261.0 127.6 259.8 138.2 258.5 148.8 256.9 159.5 254.9 168.8 252.9 178.1 250.7 188.7 247.8 199.3 244.6 211.3 240.6 225.9 235.4 249.8 226.5 261.8 222.3 271.1 219.2 279.0 216.9 287.0 214.8 295.0 213.1 301.6 211.9 308.2 211.0 314.9 210.4 321.5 210.1 328.2 210.2 334.8 210.5 341.5 211.1 348.1 212.0 354.7 213.2 362.7 215.0 370.7 217.1 380.0 219.8 390.6 223.3 407.9 229.5 427.8 236.7 441.1 241.3 451.7 244.7 462.3 247.9 473.0 250.7 483.6 253.2 494.2 255.3 504.8 257.1 515.5 258.7 527.4 260.1 540.7 261.3 550.0 261.9 550.0 264.4 20.0 264.4"/><polyline stroke="#859773" fill="transparent" stroke-width="3" points="20.0 264.2 49.2 263.9 70.5 263.4 87.7 262.8 102.4 262.0 115.6 261.0 127.6 259.8 138.2 258.5 148.8 256.9 159.5 254.9 168.8 252.9 178.1 250.7 188.7 247.8 199.3 244.6 211.3 240.6 225.9 235.4 249.8 226.5 261.8 222.3 271.1 219.2 279.0 216.9 287.0 214.8 295.0 213.1 301.6 211.9 308.2 211.0 314.9 210.4 321.5 210.1 328.2 210.2 334.8 210.5 341.5 211.1 348.1 212.0 354.7 213.2 362.7 215.0 370.7 217.1 380.0 219.8 390.6 223.3 407.9 229.5 427.8 236.7 441.1 241.3 451.7 244.7 462.3 247.9 473.0 250.7 483.6 253.2 494.2 255.3 504.8 257.1 515.5 258.7 527.4 260.1 540.7 261.3 550.0 261.9"/><line stroke="#eee" fill="transparent" stroke-width="3" x1="682" y1="209.07407407407408" x2="1212" y2="209.07407407407408"/><line stroke="#eee" fill="transparent" stroke-width="3" x1="750.7037037037037" y1="204.07407407407408" x2="750.7037037037037" y2="214.07407407407408"/><line stroke="#eee" fill="transparent" stroke-width="3" x1="848.8518518518518" y1="204.07407407407408" x2="848.8518518518518" y2="214.07407407407408"/><line stroke="#eee" fill="transparent" stroke-width="3" x1="947" y1="204.07407407407408" x2="947" y2="214.07407407407408"/><line stroke="#eee" fill="transparent" stroke-width="3" x1="1045.148148148148" y1="204.07407407407408" x2="1045.148148148148" y2="214.07407407407408"/><line stroke="#eee" fill="transparent" stroke-width="3" x1="1143.2962962962963" y1="204.07407407407408" x2="1143.2962962962963" y2="214.07407407407408"/><line stroke="#eee" fill="transparent" stroke-width="3" x1="947" y1="230" x2="947" y2="90"/><line stroke="#eee" fill="transparent" stroke-width="3" x1="942" y1="209.07407407407408" x2="952" y2="209.07407407407408"/><line stroke="#eee" fill="transparent" stroke-width="3" x1="942" y1="110.92592592592594" x2="952" y2="110.92592592592594"/><polygon stroke="transparent" fill="#d4e1e8" stroke-width="3" points="682.0 206.7 695.3 205.7 707.2 204.5 719.2 203.0 729.8 201.4 740.4 199.5 751.1 197.3 761.7 194.7 772.3 191.8 783.0 188.6 794.9 184.7 810.8 179.1 833.4 170.8 845.4 166.7 854.7 163.7 862.7 161.4 870.6 159.4 878.6 157.7 885.2 156.6 891.9 155.7 898.5 155.1 905.2 154.9 911.8 154.9 918.4 155.2 925.1 155.9 931.7 156.8 938.4 158.0 946.3 159.8 954.3 162.0 963.6 164.8 974.2 168.4 992.8 175.2 1011.4 182.0 1023.4 186.3 1034.0 189.7 1044.6 192.9 1053.9 195.4 1063.2 197.7 1073.9 199.9 1084.5 201.8 1095.1 203.4 1107.1 204.8 1119.0 206.0 1132.3 206.9 1148.2 207.7 1168.2 208.3 1194.7 208.8 1212.0 208.9 1212.0 209.1 682.0 209.1"/><polyline stroke="#fff" fill="transparent" stroke-width="3" points="682.0 206.7 695.3 205.7 707.2 204.5 719.2 203.0 729.8 201.4 740.4 199.5 751.1 197.3 761.7 194.7 772.3 191.8 783.0 188.6 794.9 184.7 810.8 179.1 833.4 170.8 845.4 166.7 854.7 163.7 862.7 161.4 870.6 159.4 878.6 157.7 885.2 156.6 891.9 155.7 898.5 155.1 905.2 154.9 911.8 154.9 918.4 155.2 925.1 155.9 931.7 156.8 938.4 158.0 946.3 159.8 954.3 162.0 963.6 164.8 974.2 168.4 992.8 175.2 1011.4 182.0 1023.4 186.3 1034.0 189.7 1044.6 192.9 1053.9 195.4 1063.2 197.7 1073.9 199.9 1084.5 201.8 1095.1 203.4 1107.1 204.8 1119.0 206.0 1132.3 206.9 1148.2 207.7 1168.2 208.3 1194.7 208.8 1212.0 208.9"/><polygon stroke="transparent" fill="#dee8d4" stroke-width="3" points="682.0 206.5 694.0 205.5 705.9 204.3 716.5 202.8 725.8 201.3 735.1 199.5 744.4 197.4 752.4 195.3 760.4 193.0 768.3 190.4 776.3 187.4 784.3 184.2 792.3 180.8 800.2 177.0 809.5 172.3 818.8 167.2 829.4 161.2 861.3 142.0 871.9 135.8 881.2 130.7 889.2 126.5 895.9 123.4 902.5 120.5 909.1 118.0 915.8 115.8 921.1 114.3 926.4 113.1 931.7 112.1 937.0 111.4 942.4 111.0 947.7 110.9 953.0 111.1 958.3 111.6 963.6 112.3 968.9 113.3 974.2 114.6 979.5 116.2 986.2 118.4 992.8 121.1 999.5 124.0 1007.4 127.9 1015.4 132.1 1024.7 137.3 1039.3 146.0 1057.9 157.2 1069.9 164.2 1079.2 169.4 1088.5 174.3 1096.4 178.3 1104.4 181.9 1112.4 185.3 1120.3 188.4 1128.3 191.3 1136.3 193.8 1144.3 196.0 1153.6 198.4 1162.9 200.3 1172.2 202.0 1182.8 203.6 1193.4 204.9 1205.4 206.0 1212.0 206.5 1212.0 208.9 1194.7 208.8 1168.2 208.3 1148.2 207.7 1132.3 206.9 1119.0 206.0 1107.1 204.8 1095.1 203.4 1084.5 201.8 1073.9 199.9 1063.2 197.7 1053.9 195.4 1044.6 192.9 1034.0 189.7 1023.4 186.3 1011.4 182.0 992.8 175.2 974.2 168.4 963.6 164.8 954.3 162.0 946.3 159.8 938.4 158.0 931.7 156.8 925.1 155.9 918.4 155.2 911.8 154.9 905.2 154.9 898.5 155.1 891.9 155.7 885.2 156.6 878.6 157.7 870.6 159.4 862.7 161.4 854.7 163.7 845.4 166.7 833.4 170.8 810.8 179.1 794.9 184.7 783.0 188.6 772.3 191.8 761.7 194.7 751.1 197.3 740.4 199.5 729.8 201.4 719.2 203.0 707.2 204.5 695.3 205.7 682.0 206.7"/><polyline stroke="#666" fill="transparent" stroke-width="3" points="682.0 206.5 694.0 205.5 705.9 204.3 716.5 202.8 725.8 201.3 735.1 199.5 744.4 197.4 752.4 195.3 760.4 193.0 768.3 190.4 776.3 187.4 784.3 184.2 792.3 180.8 800.2 177.0 809.5 172.3 818.8 167.2 829.4 161.2 861.3 142.0 871.9 135.8 881.2 130.7 889.2 126.5 895.9 123.4 902.5 120.5 909.1 118.0 915.8 115.8 921.1 114.3 926.4 113.1 931.7 112.1 937.0 111.4 942.4 111.0 947.7 110.9 953.0 111.1 958.3 111.6 963.6 112.3 968.9 113.3 974.2 114.6 979.5 116.2 986.2 118.4 992.8 121.1 999.5 124.0 1007.4 127.9 1015.4 132.1 1024.7 137.3 1039.3 146.0 1057.9 157.2 1069.9 164.2 1079.2 169.4 1088.5 174.3 1096.4 178.3 1104.4 181.9 1112.4 185.3 1120.3 188.4 1128.3 191.3 1136.3 193.8 1144.3 196.0 1153.6 198.4 1162.9 200.3 1172.2 202.0 1182.8 203.6 1193.4 204.9 1205.4 206.0 1212.0 206.5"/><text stroke="transparent" fill="#ddd" stroke-width="3" x="265" y="155" font-size="64px">+</text><text stroke="transparent" fill="#ddd" stroke-width="3" x="596" y="155" font-size="64px">=</text></svg>