<?xml version="1.0" standalone="no"?><!DOCTYPE svg PUBLIC "-//W3C//DTD SVG 1.1//EN" "http://www.w3.org/Graphics/SVG/1.1/DTD/svg11.dtd"><svg width="1232" height="940" vertion="1.1" style="background-color:#fff" id="svg" version="1.1" xmlns="http://www.w3.org/2000/svg" xmlns:xlink="http://www.w3.org/1999/xlink"><defs xmlns="http://www.w3.org/1999/xhtml"><style type="text/css"><![CDATA[]]></style></defs>
    <polygon stroke="#ddd" fill="#D8E2C9" stroke-width="3" points="40 366.6666666666667 114.9295112781955 366.6666666666667 115.2467105263158 33.33333333333337 281.6353383458647 33.33333333333337 281.8468045112782 366.6666666666667 490 366.6666666666667 490 366.6666666666667 40 366.6666666666667"/><line stroke="#ddd" fill="transparent" stroke-width="3" x1="40" y1="366.6666666666667" x2="490" y2="366.6666666666667"/><line stroke="#ddd" fill="transparent" stroke-width="3" x1="115.00000000000001" y1="361.6666666666667" x2="115.00000000000001" y2="371.6666666666667"/><line stroke="#ddd" fill="transparent" stroke-width="3" x1="448.33333333333337" y1="361.6666666666667" x2="448.33333333333337" y2="371.6666666666667"/><line stroke="#ddd" fill="transparent" stroke-width="3" x1="115.00000000000001" y1="400" x2="115.00000000000001" y2="0"/><line stroke="#ddd" fill="transparent" stroke-width="3" x1="110.00000000000001" y1="366.6666666666667" x2="120.00000000000001" y2="366.6666666666667"/><line stroke="#ddd" fill="transparent" stroke-width="3" x1="110.00000000000001" y1="33.33333333333337" x2="120.00000000000001" y2="33.33333333333337"/><polyline stroke="#576544" fill="transparent" stroke-width="3" points="40 366.6666666666667 114.9295112781955 366.6666666666667 115.2467105263158 33.33333333333337 281.6353383458647 33.33333333333337 281.8468045112782 366.6666666666667 490 366.6666666666667"/><polygon stroke="#ddd" fill="#F0E0C5" stroke-width="3" points="40 906.6666666666667 281.6353383458647 906.6666666666667 281.8468045112782 573.3333333333334 448.27067669172936 573.3333333333334 448.55263157894746 906.6666666666667 490 906.6666666666667 490 906.6666666666667 40 906.6666666666667"/><line stroke="#ddd" fill="transparent" stroke-width="3" x1="40" y1="906.6666666666667" x2="490" y2="906.6666666666667"/><line stroke="#ddd" fill="transparent" stroke-width="3" x1="115.00000000000001" y1="901.6666666666667" x2="115.00000000000001" y2="911.6666666666667"/><line stroke="#ddd" fill="transparent" stroke-width="3" x1="448.33333333333337" y1="901.6666666666667" x2="448.33333333333337" y2="911.6666666666667"/><line stroke="#ddd" fill="transparent" stroke-width="3" x1="115.00000000000001" y1="940" x2="115.00000000000001" y2="540"/><line stroke="#ddd" fill="transparent" stroke-width="3" x1="110.00000000000001" y1="906.6666666666667" x2="120.00000000000001" y2="906.6666666666667"/><line stroke="#ddd" fill="transparent" stroke-width="3" x1="110.00000000000001" y1="573.3333333333334" x2="120.00000000000001" y2="573.3333333333334"/><polyline stroke="#AB9269" fill="transparent" stroke-width="3" points="40 906.6666666666667 281.6353383458647 906.6666666666667 281.8468045112782 573.3333333333334 448.27067669172936 573.3333333333334 448.55263157894746 906.6666666666667 490 906.6666666666667"/><polygon stroke="transparent" fill="#F0E0C5" stroke-width="3" points="742 636.6666666666667 983.6353383458647 636.6666666666667 983.8468045112782 303.33333333333337 1150.2706766917295 303.33333333333337 1150.5526315789475 636.6666666666667 1192 636.6666666666667 1192 636.6666666666667 742 636.6666666666667"/><polygon stroke="transparent" fill="#D8E2C9" stroke-width="3" points="742 636.6666666666667 816.9295112781955 636.6666666666667 817.2467105263158 303.33333333333337 983.6353383458647 303.33333333333337 983.8468045112782 636.6666666666667 1192 636.6666666666667 1192 636.6666666666667 742 636.6666666666667"/><line stroke="#ddd" fill="transparent" stroke-width="3" x1="742" y1="636.6666666666667" x2="1192" y2="636.6666666666667"/><line stroke="#ddd" fill="transparent" stroke-width="3" x1="817" y1="631.6666666666667" x2="817" y2="641.6666666666667"/><line stroke="#ddd" fill="transparent" stroke-width="3" x1="1150.3333333333335" y1="631.6666666666667" x2="1150.3333333333335" y2="641.6666666666667"/><line stroke="#ddd" fill="transparent" stroke-width="3" x1="817" y1="670" x2="817" y2="270"/><line stroke="#ddd" fill="transparent" stroke-width="3" x1="812" y1="636.6666666666667" x2="822" y2="636.6666666666667"/><line stroke="#ddd" fill="transparent" stroke-width="3" x1="812" y1="303.33333333333337" x2="822" y2="303.33333333333337"/><polyline stroke="#666" fill="transparent" stroke-width="3" points="742 636.6666666666667 816.9295112781955 636.6666666666667 817.2467105263158 303.33333333333337 1150.2706766917295 303.33333333333337 1150.5526315789475 636.6666666666667 1192 636.6666666666667"/><text stroke="transparent" fill="#ddd" stroke-width="3" x="245" y="485" font-size="64px">+</text><text stroke="transparent" fill="#ddd" stroke-width="3" x="596" y="485" font-size="64px">=</text></svg>