<?xml version="1.0" standalone="no"?><!DOCTYPE svg PUBLIC "-//W3C//DTD SVG 1.1//EN" "http://www.w3.org/Graphics/SVG/1.1/DTD/svg11.dtd"><svg width="1232" height="360" vertion="1.1" style="background-color:#fff" id="svg" version="1.1" xmlns="http://www.w3.org/2000/svg" xmlns:xlink="http://www.w3.org/1999/xlink"><defs xmlns="http://www.w3.org/1999/xhtml"><style type="text/css"><![CDATA[]]></style></defs>
    <line stroke="#eee" fill="transparent" stroke-width="3" x1="40" y1="113.26923076923077" x2="490" y2="113.26923076923077"/><line stroke="#eee" fill="transparent" stroke-width="3" x1="48.65384615384615" y1="108.26923076923077" x2="48.65384615384615" y2="118.26923076923077"/><line stroke="#eee" fill="transparent" stroke-width="3" x1="135.19230769230774" y1="108.26923076923077" x2="135.19230769230774" y2="118.26923076923077"/><line stroke="#eee" fill="transparent" stroke-width="3" x1="221.73076923076925" y1="108.26923076923077" x2="221.73076923076925" y2="118.26923076923077"/><line stroke="#eee" fill="transparent" stroke-width="3" x1="308.26923076923083" y1="108.26923076923077" x2="308.26923076923083" y2="118.26923076923077"/><line stroke="#eee" fill="transparent" stroke-width="3" x1="394.8076923076923" y1="108.26923076923077" x2="394.8076923076923" y2="118.26923076923077"/><line stroke="#eee" fill="transparent" stroke-width="3" x1="481.34615384615387" y1="108.26923076923077" x2="481.34615384615387" y2="118.26923076923077"/><line stroke="#eee" fill="transparent" stroke-width="3" x1="48.65384615384615" y1="140" x2="48.65384615384615" y2="0"/><line stroke="#eee" fill="transparent" stroke-width="3" x1="43.65384615384615" y1="113.26923076923077" x2="53.65384615384615" y2="113.26923076923077"/><line stroke="#eee" fill="transparent" stroke-width="3" x1="43.65384615384615" y1="26.730769230769226" x2="53.65384615384615" y2="26.730769230769226"/><polygon stroke="#eee" fill="#d4e4ed" stroke-width="3" points="40.0 113.3 49.0 113.3 53.5 113.0 58.0 112.3 62.6 111.0 67.1 109.4 71.6 107.2 76.1 104.6 80.6 101.5 85.1 97.9 89.6 93.9 94.1 89.4 98.6 84.4 103.2 78.9 107.7 73.0 112.2 66.6 116.7 59.8 121.2 52.4 125.7 44.6 130.2 36.4 134.7 27.6 135.9 26.7 221.6 26.7 226.1 27.0 230.6 27.6 235.1 28.8 239.6 30.4 244.1 32.5 248.6 35.1 253.2 38.1 257.7 41.7 262.2 45.6 266.7 50.1 271.2 55.0 275.7 60.4 280.2 66.3 284.7 72.6 289.2 79.4 293.8 86.7 298.3 94.4 302.8 102.6 307.3 111.3 308.4 113.3 490.0 113.3 490.0 113.3 40.0 113.3"/><polyline stroke="#6f8f9f" fill="transparent" stroke-width="3" points="40.0 113.3 49.0 113.3 53.5 113.0 58.0 112.3 62.6 111.0 67.1 109.4 71.6 107.2 76.1 104.6 80.6 101.5 85.1 97.9 89.6 93.9 94.1 89.4 98.6 84.4 103.2 78.9 107.7 73.0 112.2 66.6 116.7 59.8 121.2 52.4 125.7 44.6 130.2 36.4 134.7 27.6 135.9 26.7 221.6 26.7 226.1 27.0 230.6 27.6 235.1 28.8 239.6 30.4 244.1 32.5 248.6 35.1 253.2 38.1 257.7 41.7 262.2 45.6 266.7 50.1 271.2 55.0 275.7 60.4 280.2 66.3 284.7 72.6 289.2 79.4 293.8 86.7 298.3 94.4 302.8 102.6 307.3 111.3 308.4 113.3 490.0 113.3"/><line stroke="#eee" fill="transparent" stroke-width="3" x1="40" y1="333.2692307692308" x2="490" y2="333.2692307692308"/><line stroke="#eee" fill="transparent" stroke-width="3" x1="48.65384615384615" y1="328.2692307692308" x2="48.65384615384615" y2="338.2692307692308"/><line stroke="#eee" fill="transparent" stroke-width="3" x1="135.19230769230774" y1="328.2692307692308" x2="135.19230769230774" y2="338.2692307692308"/><line stroke="#eee" fill="transparent" stroke-width="3" x1="221.73076923076925" y1="328.2692307692308" x2="221.73076923076925" y2="338.2692307692308"/><line stroke="#eee" fill="transparent" stroke-width="3" x1="308.26923076923083" y1="328.2692307692308" x2="308.26923076923083" y2="338.2692307692308"/><line stroke="#eee" fill="transparent" stroke-width="3" x1="394.8076923076923" y1="328.2692307692308" x2="394.8076923076923" y2="338.2692307692308"/><line stroke="#eee" fill="transparent" stroke-width="3" x1="481.34615384615387" y1="328.2692307692308" x2="481.34615384615387" y2="338.2692307692308"/><line stroke="#eee" fill="transparent" stroke-width="3" x1="48.65384615384615" y1="360" x2="48.65384615384615" y2="220"/><line stroke="#eee" fill="transparent" stroke-width="3" x1="43.65384615384615" y1="333.2692307692308" x2="53.65384615384615" y2="333.2692307692308"/><line stroke="#eee" fill="transparent" stroke-width="3" x1="43.65384615384615" y1="246.73076923076923" x2="53.65384615384615" y2="246.73076923076923"/><polygon stroke="#eee" fill="#f1e9d0" stroke-width="3" points="40.0 333.3 221.6 333.3 226.1 333.0 230.6 332.4 235.1 331.2 239.6 329.6 244.1 327.5 248.6 324.9 253.2 321.9 257.7 318.3 262.2 314.4 266.7 309.9 271.2 305.0 275.7 299.6 280.2 293.7 284.7 287.4 289.2 280.6 293.8 273.3 298.3 265.6 302.8 257.4 307.3 248.7 308.4 246.7 394.1 246.7 398.6 246.9 403.2 247.5 407.7 248.6 412.2 250.2 416.7 252.3 421.2 254.8 425.7 257.8 430.2 261.2 434.7 265.2 439.2 269.6 443.8 274.4 448.3 279.8 452.8 285.6 457.3 291.8 461.8 298.6 466.3 305.8 470.8 313.5 475.3 321.7 479.8 330.3 481.0 332.5 482.1 333.3 490.0 333.3 490.0 333.3 40.0 333.3"/><polyline stroke="#a89766" fill="transparent" stroke-width="3" points="40.0 333.3 221.6 333.3 226.1 333.0 230.6 332.4 235.1 331.2 239.6 329.6 244.1 327.5 248.6 324.9 253.2 321.9 257.7 318.3 262.2 314.4 266.7 309.9 271.2 305.0 275.7 299.6 280.2 293.7 284.7 287.4 289.2 280.6 293.8 273.3 298.3 265.6 302.8 257.4 307.3 248.7 308.4 246.7 394.1 246.7 398.6 246.9 403.2 247.5 407.7 248.6 412.2 250.2 416.7 252.3 421.2 254.8 425.7 257.8 430.2 261.2 434.7 265.2 439.2 269.6 443.8 274.4 448.3 279.8 452.8 285.6 457.3 291.8 461.8 298.6 466.3 305.8 470.8 313.5 475.3 321.7 479.8 330.3 481.0 332.5 482.1 333.3 490.0 333.3"/><line stroke="#eee" fill="transparent" stroke-width="3" x1="742" y1="223.26923076923077" x2="1192" y2="223.26923076923077"/><line stroke="#eee" fill="transparent" stroke-width="3" x1="750.6538461538462" y1="218.26923076923077" x2="750.6538461538462" y2="228.26923076923077"/><line stroke="#eee" fill="transparent" stroke-width="3" x1="837.1923076923077" y1="218.26923076923077" x2="837.1923076923077" y2="228.26923076923077"/><line stroke="#eee" fill="transparent" stroke-width="3" x1="923.7307692307693" y1="218.26923076923077" x2="923.7307692307693" y2="228.26923076923077"/><line stroke="#eee" fill="transparent" stroke-width="3" x1="1010.2692307692308" y1="218.26923076923077" x2="1010.2692307692308" y2="228.26923076923077"/><line stroke="#eee" fill="transparent" stroke-width="3" x1="1096.8076923076924" y1="218.26923076923077" x2="1096.8076923076924" y2="228.26923076923077"/><line stroke="#eee" fill="transparent" stroke-width="3" x1="1183.3461538461538" y1="218.26923076923077" x2="1183.3461538461538" y2="228.26923076923077"/><line stroke="#eee" fill="transparent" stroke-width="3" x1="750.6538461538462" y1="250" x2="750.6538461538462" y2="110"/><line stroke="#eee" fill="transparent" stroke-width="3" x1="745.6538461538462" y1="223.26923076923077" x2="755.6538461538462" y2="223.26923076923077"/><line stroke="#eee" fill="transparent" stroke-width="3" x1="745.6538461538462" y1="136.73076923076923" x2="755.6538461538462" y2="136.73076923076923"/><polygon stroke="transparent" fill="#d4e4ed" stroke-width="3" points="742.0 223.3 751.0 223.3 755.5 223.0 760.0 222.3 764.6 221.0 769.1 219.4 773.6 217.2 778.1 214.6 782.6 211.5 787.1 207.9 791.6 203.9 796.1 199.4 800.6 194.4 805.2 188.9 809.7 183.0 814.2 176.6 818.7 169.8 823.2 162.4 827.7 154.6 832.2 146.4 836.7 137.6 837.9 136.7 923.6 136.7 928.1 137.0 932.6 137.6 937.1 138.8 941.6 140.4 946.1 142.5 950.6 145.1 955.2 148.1 959.7 151.7 964.2 155.6 968.7 160.1 973.2 165.0 977.7 170.4 982.2 176.3 986.7 182.6 991.2 189.4 995.8 196.7 1000.3 204.4 1004.8 212.6 1009.3 221.3 1010.4 223.3 1192.0 223.3 1192.0 223.3 742.0 223.3"/><polyline stroke="#fff" fill="transparent" stroke-width="3" points="742.0 223.3 751.0 223.3 755.5 223.0 760.0 222.3 764.6 221.0 769.1 219.4 773.6 217.2 778.1 214.6 782.6 211.5 787.1 207.9 791.6 203.9 796.1 199.4 800.6 194.4 805.2 188.9 809.7 183.0 814.2 176.6 818.7 169.8 823.2 162.4 827.7 154.6 832.2 146.4 836.7 137.6 837.9 136.7 923.6 136.7 928.1 137.0 932.6 137.6 937.1 138.8 941.6 140.4 946.1 142.5 950.6 145.1 955.2 148.1 959.7 151.7 964.2 155.6 968.7 160.1 973.2 165.0 977.7 170.4 982.2 176.3 986.7 182.6 991.2 189.4 995.8 196.7 1000.3 204.4 1004.8 212.6 1009.3 221.3 1010.4 223.3 1192.0 223.3"/><polygon stroke="transparent" fill="#f1e9d0" stroke-width="3" points="742.0 223.3 751.0 223.3 755.5 223.0 760.0 222.3 764.6 221.0 769.1 219.4 773.6 217.2 778.1 214.6 782.6 211.5 787.1 207.9 791.6 203.9 796.1 199.4 800.6 194.4 805.2 188.9 809.7 183.0 814.2 176.6 818.7 169.8 823.2 162.4 827.7 154.6 832.2 146.4 836.7 137.6 837.9 136.7 1096.1 136.7 1100.6 136.9 1105.2 137.5 1109.7 138.6 1114.2 140.2 1118.7 142.3 1123.2 144.8 1127.7 147.8 1132.2 151.2 1136.7 155.2 1141.2 159.6 1145.8 164.4 1150.3 169.8 1154.8 175.6 1159.3 181.8 1163.8 188.6 1168.3 195.8 1172.8 203.5 1177.3 211.7 1181.8 220.3 1183.0 222.5 1184.1 223.3 1192.0 223.3 1192.0 223.3 1010.4 223.3 1009.3 221.3 1004.8 212.6 1000.3 204.4 995.8 196.7 991.2 189.4 986.7 182.6 982.2 176.3 977.7 170.4 973.2 165.0 968.7 160.1 964.2 155.6 959.7 151.7 955.2 148.1 950.6 145.1 946.1 142.5 941.6 140.4 937.1 138.8 932.6 137.6 928.1 137.0 923.6 136.7 837.9 136.7 836.7 137.6 832.2 146.4 827.7 154.6 823.2 162.4 818.7 169.8 814.2 176.6 809.7 183.0 805.2 188.9 800.6 194.4 796.1 199.4 791.6 203.9 787.1 207.9 782.6 211.5 778.1 214.6 773.6 217.2 769.1 219.4 764.6 221.0 760.0 222.3 755.5 223.0 751.0 223.3 742.0 223.3"/><polyline stroke="#666" fill="transparent" stroke-width="3" points="742.0 223.3 751.0 223.3 755.5 223.0 760.0 222.3 764.6 221.0 769.1 219.4 773.6 217.2 778.1 214.6 782.6 211.5 787.1 207.9 791.6 203.9 796.1 199.4 800.6 194.4 805.2 188.9 809.7 183.0 814.2 176.6 818.7 169.8 823.2 162.4 827.7 154.6 832.2 146.4 836.7 137.6 837.9 136.7 1096.1 136.7 1100.6 136.9 1105.2 137.5 1109.7 138.6 1114.2 140.2 1118.7 142.3 1123.2 144.8 1127.7 147.8 1132.2 151.2 1136.7 155.2 1141.2 159.6 1145.8 164.4 1150.3 169.8 1154.8 175.6 1159.3 181.8 1163.8 188.6 1168.3 195.8 1172.8 203.5 1177.3 211.7 1181.8 220.3 1183.0 222.5 1184.1 223.3 1192.0 223.3"/><text stroke="transparent" fill="#ddd" stroke-width="3" x="245" y="195" font-size="64px">+</text><text stroke="transparent" fill="#ddd" stroke-width="3" x="596" y="195" font-size="64px">=</text></svg>