<?xml version="1.0" standalone="no"?><!DOCTYPE svg PUBLIC "-//W3C//DTD SVG 1.1//EN" "http://www.w3.org/Graphics/SVG/1.1/DTD/svg11.dtd"><svg width="1232" height="356.66666666666663" vertion="1.1" style="background-color:#fff" id="svg" version="1.1" xmlns="http://www.w3.org/2000/svg" xmlns:xlink="http://www.w3.org/1999/xlink"><defs xmlns="http://www.w3.org/1999/xhtml"><style type="text/css"><![CDATA[]]></style></defs>
    <line stroke="#eee" fill="transparent" stroke-width="2" x1="282" y1="128.33333333333334" x2="732" y2="128.33333333333334"/><line stroke="#eee" fill="transparent" stroke-width="2" x1="332" y1="123.33333333333334" x2="332" y2="133.33333333333334"/><line stroke="#eee" fill="transparent" stroke-width="2" x1="448.66666666666663" y1="123.33333333333334" x2="448.66666666666663" y2="133.33333333333334"/><line stroke="#eee" fill="transparent" stroke-width="2" x1="565.3333333333333" y1="123.33333333333334" x2="565.3333333333333" y2="133.33333333333334"/><line stroke="#eee" fill="transparent" stroke-width="2" x1="682" y1="123.33333333333334" x2="682" y2="133.33333333333334"/><line stroke="#eee" fill="transparent" stroke-width="2" x1="332" y1="140" x2="332" y2="0"/><line stroke="#eee" fill="transparent" stroke-width="2" x1="327" y1="128.33333333333334" x2="337" y2="128.33333333333334"/><line stroke="#eee" fill="transparent" stroke-width="2" x1="327" y1="11.666666666666686" x2="337" y2="11.666666666666686"/><polygon stroke="#eee" fill="#d4e4ed" stroke-width="2" points="282.0 128.3 332.0 128.3 332.1 40.8 334.6 40.9 337.1 41.1 339.6 41.3 342.1 41.7 344.7 42.2 347.2 42.8 349.7 43.5 352.4 44.4 355.1 45.4 357.8 46.5 360.5 47.7 363.2 49.0 365.9 50.4 368.8 52.1 371.7 53.8 374.6 55.7 377.6 57.8 380.7 60.0 383.9 62.5 387.2 65.0 390.6 67.9 394.2 71.0 398.0 74.3 402.1 78.1 406.6 82.4 412.0 87.6 419.6 95.1 430.4 105.9 436.3 111.8 441.2 116.5 445.5 120.5 448.7 123.4 448.7 11.7 565.3 11.7 565.3 123.4 569.6 119.5 574.3 115.1 579.8 109.6 589.4 100.2 598.2 91.4 604.0 85.7 608.8 81.0 613.2 77.0 617.1 73.3 620.7 70.2 624.1 67.3 627.6 64.4 630.8 61.9 633.9 59.6 636.9 57.4 639.8 55.4 642.7 53.6 645.6 51.8 648.4 50.2 651.1 48.8 653.8 47.5 656.5 46.3 659.3 45.2 662.0 44.2 664.7 43.4 667.2 42.7 669.7 42.1 672.2 41.7 674.7 41.3 677.3 41.0 679.8 40.9 681.9 40.8 682.0 128.3 732.0 128.3 732.0 128.3 282.0 128.3"/><polyline stroke="#6f8f9f" fill="transparent" stroke-width="2" points="282.0 128.3 332.0 128.3 332.1 40.8 334.6 40.9 337.1 41.1 339.6 41.3 342.1 41.7 344.7 42.2 347.2 42.8 349.7 43.5 352.4 44.4 355.1 45.4 357.8 46.5 360.5 47.7 363.2 49.0 365.9 50.4 368.8 52.1 371.7 53.8 374.6 55.7 377.6 57.8 380.7 60.0 383.9 62.5 387.2 65.0 390.6 67.9 394.2 71.0 398.0 74.3 402.1 78.1 406.6 82.4 412.0 87.6 419.6 95.1 430.4 105.9 436.3 111.8 441.2 116.5 445.5 120.5 448.7 123.4 448.7 11.7 565.3 11.7 565.3 123.4 569.6 119.5 574.3 115.1 579.8 109.6 589.4 100.2 598.2 91.4 604.0 85.7 608.8 81.0 613.2 77.0 617.1 73.3 620.7 70.2 624.1 67.3 627.6 64.4 630.8 61.9 633.9 59.6 636.9 57.4 639.8 55.4 642.7 53.6 645.6 51.8 648.4 50.2 651.1 48.8 653.8 47.5 656.5 46.3 659.3 45.2 662.0 44.2 664.7 43.4 667.2 42.7 669.7 42.1 672.2 41.7 674.7 41.3 677.3 41.0 679.8 40.9 681.9 40.8 682.0 128.3 732.0 128.3" stroke-linejoin="bevel"/><line stroke="#eee" fill="transparent" stroke-width="2" x1="332" y1="276.9444444444444" x2="448.66666666666663" y2="276.9444444444444"/><line stroke="#eee" fill="transparent" stroke-width="2" x1="332" y1="271.9444444444444" x2="332" y2="281.9444444444444"/><line stroke="#eee" fill="transparent" stroke-width="2" x1="448.66666666666663" y1="271.9444444444444" x2="448.66666666666663" y2="281.9444444444444"/><line stroke="#eee" fill="transparent" stroke-width="2" x1="332" y1="286.66666666666663" x2="332" y2="170"/><line stroke="#eee" fill="transparent" stroke-width="2" x1="327" y1="276.9444444444444" x2="337" y2="276.9444444444444"/><line stroke="#eee" fill="transparent" stroke-width="2" x1="327" y1="179.72222222222223" x2="337" y2="179.72222222222223"/><polygon stroke="#eee" fill="#d4e4ed" stroke-width="2" points="332.0 204.0 337.5 204.2 343.0 204.9 348.5 206.0 354.2 207.5 360.0 209.5 365.9 212.0 372.1 215.0 378.5 218.7 385.4 223.0 392.8 228.1 401.3 234.5 412.2 243.1 434.6 261.7 444.7 269.8 448.7 272.9 448.7 276.9 332.0 276.9"/><polyline stroke="#6f8f9f" fill="transparent" stroke-width="2" points="332.0 204.0 337.5 204.2 343.0 204.9 348.5 206.0 354.2 207.5 360.0 209.5 365.9 212.0 372.1 215.0 378.5 218.7 385.4 223.0 392.8 228.1 401.3 234.5 412.2 243.1 434.6 261.7 444.7 269.8 448.7 272.9" stroke-linejoin="bevel"/><line stroke="#eee" fill="transparent" stroke-width="2" x1="565.3333333333333" y1="276.9444444444445" x2="682" y2="276.9444444444445"/><line stroke="#eee" fill="transparent" stroke-width="2" x1="565.3333333333333" y1="271.9444444444445" x2="565.3333333333333" y2="281.9444444444445"/><line stroke="#eee" fill="transparent" stroke-width="2" x1="682" y1="271.9444444444445" x2="682" y2="281.9444444444445"/><line stroke="#eee" fill="transparent" stroke-width="2" x1="565.3333333333333" y1="286.66666666666674" x2="565.3333333333333" y2="170"/><line stroke="#eee" fill="transparent" stroke-width="2" x1="560.3333333333333" y1="276.9444444444445" x2="570.3333333333333" y2="276.9444444444445"/><line stroke="#eee" fill="transparent" stroke-width="2" x1="560.3333333333333" y1="179.72222222222223" x2="570.3333333333333" y2="179.72222222222223"/><polygon stroke="#eee" fill="#f1e9d0" stroke-width="2" points="565.3 272.9 575.1 265.2 601.7 243.3 611.6 235.3 619.9 229.1 627.2 224.0 634.0 219.6 640.4 215.9 646.5 212.8 652.4 210.2 658.1 208.0 663.8 206.4 669.3 205.2 674.9 204.4 680.3 204.0 682.0 204.0 682.0 276.9 565.3 276.9"/><polyline stroke="#a89766" fill="transparent" stroke-width="2" points="565.3 272.9 575.1 265.2 601.7 243.3 611.6 235.3 619.9 229.1 627.2 224.0 634.0 219.6 640.4 215.9 646.5 212.8 652.4 210.2 658.1 208.0 663.8 206.4 669.3 205.2 674.9 204.4 680.3 204.0 682.0 204.0" stroke-linejoin="bevel"/><line stroke="#eee" fill="transparent" stroke-width="2" x1="832" y1="276.9444444444445" x2="948.6666666666667" y2="276.9444444444445"/><line stroke="#eee" fill="transparent" stroke-width="2" x1="832" y1="271.9444444444445" x2="832" y2="281.9444444444445"/><line stroke="#eee" fill="transparent" stroke-width="2" x1="948.6666666666667" y1="271.9444444444445" x2="948.6666666666667" y2="281.9444444444445"/><line stroke="#eee" fill="transparent" stroke-width="2" x1="832" y1="286.66666666666674" x2="832" y2="170"/><line stroke="#eee" fill="transparent" stroke-width="2" x1="827" y1="276.9444444444445" x2="837" y2="276.9444444444445"/><line stroke="#eee" fill="transparent" stroke-width="2" x1="827" y1="179.72222222222223" x2="837" y2="179.72222222222223"/><polygon stroke="transparent" fill="#d4e4ed" stroke-width="2" points="832.0 204.0 837.5 204.2 843.0 204.9 848.5 206.0 854.2 207.5 860.0 209.5 865.9 212.0 872.1 215.0 878.5 218.7 885.4 223.0 892.8 228.1 901.3 234.5 912.2 243.1 934.6 261.7 944.7 269.8 948.7 272.9 948.7 276.9 832.0 276.9"/><polyline stroke="#fff" fill="transparent" stroke-width="2" points="832.0 204.0 837.5 204.2 843.0 204.9 848.5 206.0 854.2 207.5 860.0 209.5 865.9 212.0 872.1 215.0 878.5 218.7 885.4 223.0 892.8 228.1 901.3 234.5 912.2 243.1 934.6 261.7 944.7 269.8 948.7 272.9" stroke-linejoin="bevel"/><polygon stroke="transparent" fill="#f1e9d0" stroke-width="2" points="832.0 200.0 838.8 195.0 845.1 190.8 851.1 187.2 856.9 184.2 862.6 181.6 868.1 179.6 873.5 178.0 878.8 176.8 884.1 176.1 889.4 175.8 894.7 175.9 899.9 176.5 905.2 177.5 910.7 179.0 916.2 180.9 921.8 183.3 927.6 186.2 933.6 189.6 940.0 193.7 946.8 198.6 948.7 200.0 948.7 272.9 944.7 269.8 934.6 261.7 912.2 243.1 901.3 234.5 892.8 228.1 885.4 223.0 878.5 218.7 872.1 215.0 865.9 212.0 860.0 209.5 854.2 207.5 848.5 206.0 843.0 204.9 837.5 204.2 832.0 204.0"/><polyline stroke="#666" fill="transparent" stroke-width="2" points="832.0 200.0 838.8 195.0 845.1 190.8 851.1 187.2 856.9 184.2 862.6 181.6 868.1 179.6 873.5 178.0 878.8 176.8 884.1 176.1 889.4 175.8 894.7 175.9 899.9 176.5 905.2 177.5 910.7 179.0 916.2 180.9 921.8 183.3 927.6 186.2 933.6 189.6 940.0 193.7 946.8 198.6 948.7 200.0" stroke-linejoin="bevel"/><text stroke="transparent" fill="#ddd" font-size="64px" x="487" y="243.33333333333331">+</text><text stroke="transparent" fill="#ddd" font-size="64px" x="740" y="243.33333333333331">=</text><text fill="#888" stroke="transparent" font-size="64px" x="375.3333333333333" y="336.66666666666663" font-style="italic">r</text><text fill="#888" stroke="transparent" font-size="24pt" x="389.3333333333333" y="350.66666666666663" font-style="italic">L</text><text fill="#888" stroke="transparent" font-size="64px" x="608.6666666666666" y="336.66666666666663" font-style="italic">r</text><text fill="#888" stroke="transparent" font-size="24pt" x="622.6666666666666" y="350.66666666666663" font-style="italic">R</text><text fill="#888" stroke="transparent" font-size="64px" x="875.3333333333334" y="336.66666666666663" font-style="italic">g</text></svg>