<?xml version="1.0" standalone="no"?><!DOCTYPE svg PUBLIC "-//W3C//DTD SVG 1.1//EN" "http://www.w3.org/Graphics/SVG/1.1/DTD/svg11.dtd"><svg width="1232" height="360" vertion="1.1" style="background-color:#fff" id="svg" version="1.1" xmlns="http://www.w3.org/2000/svg" xmlns:xlink="http://www.w3.org/1999/xlink"><defs xmlns="http://www.w3.org/1999/xhtml"><style type="text/css"><![CDATA[]]></style></defs>
    <line stroke="#eee" fill="transparent" stroke-width="2" x1="40" y1="113.26923076923077" x2="490" y2="113.26923076923077"/><line stroke="#eee" fill="transparent" stroke-width="2" x1="48.65384615384615" y1="108.26923076923077" x2="48.65384615384615" y2="118.26923076923077"/><line stroke="#eee" fill="transparent" stroke-width="2" x1="135.19230769230774" y1="108.26923076923077" x2="135.19230769230774" y2="118.26923076923077"/><line stroke="#eee" fill="transparent" stroke-width="2" x1="221.73076923076925" y1="108.26923076923077" x2="221.73076923076925" y2="118.26923076923077"/><line stroke="#eee" fill="transparent" stroke-width="2" x1="308.26923076923083" y1="108.26923076923077" x2="308.26923076923083" y2="118.26923076923077"/><line stroke="#eee" fill="transparent" stroke-width="2" x1="394.8076923076923" y1="108.26923076923077" x2="394.8076923076923" y2="118.26923076923077"/><line stroke="#eee" fill="transparent" stroke-width="2" x1="481.34615384615387" y1="108.26923076923077" x2="481.34615384615387" y2="118.26923076923077"/><line stroke="#eee" fill="transparent" stroke-width="2" x1="48.65384615384615" y1="140" x2="48.65384615384615" y2="0"/><line stroke="#eee" fill="transparent" stroke-width="2" x1="43.65384615384615" y1="113.26923076923077" x2="53.65384615384615" y2="113.26923076923077"/><line stroke="#eee" fill="transparent" stroke-width="2" x1="43.65384615384615" y1="26.730769230769226" x2="53.65384615384615" y2="26.730769230769226"/><polygon stroke="#eee" fill="#d4e4ed" stroke-width="2" points="40.0 113.3 48.6 113.3 48.7 48.4 55.7 48.9 62.7 50.6 69.9 53.5 77.6 57.7 85.9 63.4 95.5 71.3 108.4 83.5 128.6 103.5 135.2 109.6 135.2 44.7 135.4 44.7 135.6 31.6 135.8 27.0 136.0 44.7 136.2 44.7 136.3 39.3 136.5 29.4 136.7 24.0 136.9 23.8 137.1 28.8 137.2 38.5 137.4 44.7 137.6 44.7 137.8 28.4 138.0 29.9 138.1 44.7 138.3 44.7 138.5 42.3 138.9 34.6 139.2 28.7 139.6 24.8 139.8 23.8 139.9 23.3 140.1 23.4 140.3 24.1 140.5 25.3 140.8 29.5 141.2 35.8 141.6 43.7 141.7 33.4 141.9 44.7 142.1 24.2 142.3 37.7 142.5 29.8 142.6 44.7 142.8 34.8 143.0 26.6 143.2 23.3 143.4 25.2 143.5 32.2 143.7 43.4 143.9 24.9 144.1 44.7 144.3 23.3 144.4 42.6 144.6 23.6 144.8 44.7 145.7 37.9 146.6 32.1 147.3 28.5 148.0 25.7 148.8 24.0 149.5 23.3 150.2 23.6 150.9 25.0 151.6 27.3 152.4 30.7 153.3 36.1 154.2 42.7 154.3 44.1 154.5 44.7 154.7 44.7 154.9 26.9 155.1 31.7 155.2 44.7 155.4 44.7 155.6 36.9 155.8 27.9 156.0 23.5 156.1 24.4 156.3 30.5 156.5 40.9 156.7 39.6 156.9 44.7 157.0 24.9 157.2 35.7 157.4 35.1 157.6 44.7 157.8 41.4 158.1 33.9 158.5 28.2 158.8 24.6 159.0 23.6 159.2 23.2 159.4 23.5 159.6 24.3 159.7 25.7 160.1 30.1 160.5 36.5 160.8 44.6 161.0 23.3 161.2 44.7 161.4 23.2 161.5 44.7 161.7 23.4 161.9 44.2 162.1 32.8 162.3 25.5 162.4 23.3 162.6 26.3 162.8 34.2 163.0 44.7 163.2 26.2 163.3 39.9 163.5 23.7 163.7 44.7 163.9 28.8 164.1 44.7 166.8 37.8 169.3 32.4 171.6 28.4 174.0 25.5 176.1 23.9 178.3 23.2 180.5 23.7 182.8 25.3 185.1 28.2 187.5 32.1 190.0 37.4 192.9 44.7 193.1 23.3 193.2 44.6 193.4 23.2 193.6 44.7 193.8 23.5 194.0 44.1 194.1 32.7 194.3 25.5 194.5 23.3 194.7 26.3 194.9 34.3 195.0 44.7 195.2 26.6 195.4 39.5 195.6 23.8 195.8 44.7 195.9 29.4 196.1 43.9 196.5 35.9 196.8 29.7 197.2 25.4 197.4 24.1 197.6 23.4 197.7 23.3 197.9 23.7 198.1 24.8 198.5 28.6 198.8 34.4 199.2 42.1 199.4 44.7 199.5 44.7 199.7 31.2 199.9 27.3 200.1 44.7 200.3 44.7 200.4 39.1 200.6 29.2 200.8 24.0 201.0 23.9 201.2 29.0 201.3 38.7 201.5 44.7 201.7 44.7 201.9 28.0 202.1 30.3 202.2 44.7 202.4 44.7 202.6 43.9 203.5 37.1 204.4 31.5 205.1 28.0 205.8 25.4 206.6 23.8 207.3 23.2 208.0 23.7 208.7 25.3 209.4 27.8 210.2 31.3 211.1 36.8 212.0 43.5 212.1 44.7 212.3 31.4 212.5 37.1 212.7 24.4 212.9 44.7 213.0 35.3 213.2 41.5 213.4 30.8 213.6 24.6 213.8 23.5 213.9 27.6 214.1 36.5 214.3 44.7 214.5 44.7 214.7 32.9 214.8 26.2 215.0 44.7 215.2 44.7 215.4 43.1 215.8 35.2 216.1 29.1 216.5 25.1 216.7 23.9 216.8 23.3 217.0 23.3 217.2 23.9 217.4 25.1 217.7 29.1 218.1 35.1 218.5 42.9 218.6 44.7 218.8 44.7 219.0 26.6 219.2 32.2 219.4 44.7 219.5 44.7 219.7 36.7 219.9 27.7 220.1 23.5 220.3 24.5 220.4 30.6 220.6 41.2 220.8 37.8 221.0 44.7 221.2 24.7 221.3 36.2 221.5 33.5 221.7 44.7 221.7 109.6 239.0 93.0 254.3 77.9 264.5 68.6 273.2 61.8 281.1 56.6 288.5 52.8 295.7 50.2 302.7 48.7 308.3 48.4 308.3 113.3 490.0 113.3 490.0 113.3 40.0 113.3"/><polyline stroke="#6f8f9f" fill="transparent" stroke-width="2" points="40.0 113.3 48.6 113.3 48.7 48.4 55.7 48.9 62.7 50.6 69.9 53.5 77.6 57.7 85.9 63.4 95.5 71.3 108.4 83.5 128.6 103.5 135.2 109.6 135.2 44.7 135.4 44.7 135.6 31.6 135.8 27.0 136.0 44.7 136.2 44.7 136.3 39.3 136.5 29.4 136.7 24.0 136.9 23.8 137.1 28.8 137.2 38.5 137.4 44.7 137.6 44.7 137.8 28.4 138.0 29.9 138.1 44.7 138.3 44.7 138.5 42.3 138.9 34.6 139.2 28.7 139.6 24.8 139.8 23.8 139.9 23.3 140.1 23.4 140.3 24.1 140.5 25.3 140.8 29.5 141.2 35.8 141.6 43.7 141.7 33.4 141.9 44.7 142.1 24.2 142.3 37.7 142.5 29.8 142.6 44.7 142.8 34.8 143.0 26.6 143.2 23.3 143.4 25.2 143.5 32.2 143.7 43.4 143.9 24.9 144.1 44.7 144.3 23.3 144.4 42.6 144.6 23.6 144.8 44.7 145.7 37.9 146.6 32.1 147.3 28.5 148.0 25.7 148.8 24.0 149.5 23.3 150.2 23.6 150.9 25.0 151.6 27.3 152.4 30.7 153.3 36.1 154.2 42.7 154.3 44.1 154.5 44.7 154.7 44.7 154.9 26.9 155.1 31.7 155.2 44.7 155.4 44.7 155.6 36.9 155.8 27.9 156.0 23.5 156.1 24.4 156.3 30.5 156.5 40.9 156.7 39.6 156.9 44.7 157.0 24.9 157.2 35.7 157.4 35.1 157.6 44.7 157.8 41.4 158.1 33.9 158.5 28.2 158.8 24.6 159.0 23.6 159.2 23.2 159.4 23.5 159.6 24.3 159.7 25.7 160.1 30.1 160.5 36.5 160.8 44.6 161.0 23.3 161.2 44.7 161.4 23.2 161.5 44.7 161.7 23.4 161.9 44.2 162.1 32.8 162.3 25.5 162.4 23.3 162.6 26.3 162.8 34.2 163.0 44.7 163.2 26.2 163.3 39.9 163.5 23.7 163.7 44.7 163.9 28.8 164.1 44.7 166.8 37.8 169.3 32.4 171.6 28.4 174.0 25.5 176.1 23.9 178.3 23.2 180.5 23.7 182.8 25.3 185.1 28.2 187.5 32.1 190.0 37.4 192.9 44.7 193.1 23.3 193.2 44.6 193.4 23.2 193.6 44.7 193.8 23.5 194.0 44.1 194.1 32.7 194.3 25.5 194.5 23.3 194.7 26.3 194.9 34.3 195.0 44.7 195.2 26.6 195.4 39.5 195.6 23.8 195.8 44.7 195.9 29.4 196.1 43.9 196.5 35.9 196.8 29.7 197.2 25.4 197.4 24.1 197.6 23.4 197.7 23.3 197.9 23.7 198.1 24.8 198.5 28.6 198.8 34.4 199.2 42.1 199.4 44.7 199.5 44.7 199.7 31.2 199.9 27.3 200.1 44.7 200.3 44.7 200.4 39.1 200.6 29.2 200.8 24.0 201.0 23.9 201.2 29.0 201.3 38.7 201.5 44.7 201.7 44.7 201.9 28.0 202.1 30.3 202.2 44.7 202.4 44.7 202.6 43.9 203.5 37.1 204.4 31.5 205.1 28.0 205.8 25.4 206.6 23.8 207.3 23.2 208.0 23.7 208.7 25.3 209.4 27.8 210.2 31.3 211.1 36.8 212.0 43.5 212.1 44.7 212.3 31.4 212.5 37.1 212.7 24.4 212.9 44.7 213.0 35.3 213.2 41.5 213.4 30.8 213.6 24.6 213.8 23.5 213.9 27.6 214.1 36.5 214.3 44.7 214.5 44.7 214.7 32.9 214.8 26.2 215.0 44.7 215.2 44.7 215.4 43.1 215.8 35.2 216.1 29.1 216.5 25.1 216.7 23.9 216.8 23.3 217.0 23.3 217.2 23.9 217.4 25.1 217.7 29.1 218.1 35.1 218.5 42.9 218.6 44.7 218.8 44.7 219.0 26.6 219.2 32.2 219.4 44.7 219.5 44.7 219.7 36.7 219.9 27.7 220.1 23.5 220.3 24.5 220.4 30.6 220.6 41.2 220.8 37.8 221.0 44.7 221.2 24.7 221.3 36.2 221.5 33.5 221.7 44.7 221.7 109.6 239.0 93.0 254.3 77.9 264.5 68.6 273.2 61.8 281.1 56.6 288.5 52.8 295.7 50.2 302.7 48.7 308.3 48.4 308.3 113.3 490.0 113.3" stroke-linejoin="bevel"/><line stroke="#eee" fill="transparent" stroke-width="2" x1="40" y1="333.2692307692308" x2="490" y2="333.2692307692308"/><line stroke="#eee" fill="transparent" stroke-width="2" x1="48.65384615384615" y1="328.2692307692308" x2="48.65384615384615" y2="338.2692307692308"/><line stroke="#eee" fill="transparent" stroke-width="2" x1="135.19230769230774" y1="328.2692307692308" x2="135.19230769230774" y2="338.2692307692308"/><line stroke="#eee" fill="transparent" stroke-width="2" x1="221.73076923076925" y1="328.2692307692308" x2="221.73076923076925" y2="338.2692307692308"/><line stroke="#eee" fill="transparent" stroke-width="2" x1="308.26923076923083" y1="328.2692307692308" x2="308.26923076923083" y2="338.2692307692308"/><line stroke="#eee" fill="transparent" stroke-width="2" x1="394.8076923076923" y1="328.2692307692308" x2="394.8076923076923" y2="338.2692307692308"/><line stroke="#eee" fill="transparent" stroke-width="2" x1="481.34615384615387" y1="328.2692307692308" x2="481.34615384615387" y2="338.2692307692308"/><line stroke="#eee" fill="transparent" stroke-width="2" x1="48.65384615384615" y1="360" x2="48.65384615384615" y2="220"/><line stroke="#eee" fill="transparent" stroke-width="2" x1="43.65384615384615" y1="333.2692307692308" x2="53.65384615384615" y2="333.2692307692308"/><line stroke="#eee" fill="transparent" stroke-width="2" x1="43.65384615384615" y1="246.73076923076923" x2="53.65384615384615" y2="246.73076923076923"/><polygon stroke="#eee" fill="#f1e9d0" stroke-width="2" points="40.0 333.3 221.7 333.3 221.7 268.4 228.7 268.9 235.7 270.6 242.9 273.5 250.7 277.7 259.0 283.4 268.5 291.3 281.5 303.5 301.6 323.4 308.3 329.6 308.3 264.7 308.5 253.5 308.7 256.2 308.8 244.7 309.0 264.7 309.2 257.8 309.4 261.2 309.6 250.6 309.7 244.5 309.9 243.5 310.1 247.7 310.3 256.7 310.5 264.7 310.6 264.7 310.8 252.2 311.0 246.6 311.2 264.7 311.4 264.7 311.5 262.9 311.9 255.1 312.3 249.1 312.6 245.1 312.8 243.9 313.0 243.3 313.2 243.3 313.3 243.9 313.5 245.1 313.9 249.1 314.2 255.2 314.6 263.1 314.8 264.7 315.0 264.7 315.2 246.2 315.3 252.9 315.5 264.7 315.7 264.7 315.9 256.5 316.1 247.6 316.2 243.5 316.4 244.6 316.6 250.8 316.8 261.5 317.0 255.3 317.1 264.7 317.3 244.4 317.5 257.1 317.7 251.4 317.9 264.7 318.9 256.8 319.8 251.3 320.6 247.8 321.3 245.3 322.0 243.7 322.7 243.2 323.4 243.8 324.2 245.4 324.9 248.0 325.8 252.5 326.7 258.4 327.4 263.9 327.6 264.7 327.8 264.7 327.9 250.3 328.1 248.0 328.3 264.7 328.5 264.7 328.7 258.7 328.8 249.0 329.0 243.9 329.2 244.0 329.4 249.2 329.6 259.1 329.7 264.7 329.9 264.7 330.1 247.3 330.3 251.2 330.5 264.7 330.6 264.7 330.8 262.1 331.2 254.4 331.5 248.6 331.9 244.8 332.1 243.7 332.3 243.3 332.4 243.4 332.6 244.1 332.8 245.4 333.2 249.7 333.5 255.9 333.9 263.9 334.1 249.4 334.2 264.7 334.4 243.8 334.6 259.5 334.8 246.6 335.0 264.7 335.1 254.3 335.3 246.3 335.5 243.3 335.7 245.5 335.9 252.7 336.0 264.1 336.2 243.5 336.4 264.7 336.6 243.2 336.8 264.6 336.9 243.3 337.1 264.7 339.8 257.8 342.3 252.4 344.7 248.4 347.0 245.5 349.2 243.9 351.3 243.2 353.5 243.7 355.8 245.3 358.2 248.1 360.5 252.0 363.0 257.4 365.9 264.7 366.1 248.8 366.3 264.7 366.5 243.7 366.7 259.9 366.8 246.2 367.0 264.7 367.2 254.2 367.4 246.3 367.6 243.3 367.7 245.5 367.9 252.8 368.1 264.2 368.3 243.4 368.5 264.7 368.6 243.2 368.8 264.7 369.0 243.3 369.2 264.6 369.5 256.5 369.9 250.1 370.3 245.7 370.4 244.3 370.6 243.5 370.8 243.2 371.0 243.6 371.2 244.6 371.5 248.2 371.9 253.9 372.2 261.4 372.4 264.7 372.6 255.1 372.8 255.7 373.0 244.9 373.1 264.7 373.3 259.6 373.5 260.9 373.7 250.5 373.9 244.4 374.0 243.5 374.2 247.9 374.4 256.9 374.6 264.7 374.8 264.7 374.9 251.7 375.1 246.9 375.3 264.7 375.5 264.7 375.7 264.1 376.6 257.3 377.5 251.7 378.2 248.1 378.9 245.5 379.6 243.8 380.3 243.2 381.1 243.7 381.8 245.2 382.5 247.7 383.2 251.1 384.1 256.6 385.2 264.7 385.4 243.6 385.6 262.6 385.7 243.3 385.9 264.7 386.1 244.9 386.3 263.4 386.5 252.2 386.6 245.2 386.8 243.3 387.0 246.6 387.2 254.8 387.4 264.7 387.5 249.8 387.7 257.7 387.9 244.2 388.1 264.7 388.3 253.4 388.4 263.7 388.8 255.8 389.2 249.5 389.5 245.3 389.7 244.1 389.9 243.4 390.1 243.3 390.2 243.8 390.4 244.8 390.8 248.7 391.1 254.6 391.5 262.3 391.7 264.7 391.9 264.7 392.0 249.9 392.2 248.4 392.4 264.7 392.6 264.7 392.8 258.5 392.9 248.8 393.1 243.8 393.3 244.0 393.5 249.4 393.7 259.3 393.8 264.7 394.0 264.7 394.2 247.0 394.4 251.6 394.6 264.7 394.8 264.7 394.9 329.6 412.4 312.6 427.5 297.7 437.8 288.5 446.4 281.7 454.3 276.5 461.7 272.7 468.9 270.1 476.0 268.7 481.3 268.4 481.4 333.3 490.0 333.3 490.0 333.3 40.0 333.3"/><polyline stroke="#a89766" fill="transparent" stroke-width="2" points="40.0 333.3 221.7 333.3 221.7 268.4 228.7 268.9 235.7 270.6 242.9 273.5 250.7 277.7 259.0 283.4 268.5 291.3 281.5 303.5 301.6 323.4 308.3 329.6 308.3 264.7 308.5 253.5 308.7 256.2 308.8 244.7 309.0 264.7 309.2 257.8 309.4 261.2 309.6 250.6 309.7 244.5 309.9 243.5 310.1 247.7 310.3 256.7 310.5 264.7 310.6 264.7 310.8 252.2 311.0 246.6 311.2 264.7 311.4 264.7 311.5 262.9 311.9 255.1 312.3 249.1 312.6 245.1 312.8 243.9 313.0 243.3 313.2 243.3 313.3 243.9 313.5 245.1 313.9 249.1 314.2 255.2 314.6 263.1 314.8 264.7 315.0 264.7 315.2 246.2 315.3 252.9 315.5 264.7 315.7 264.7 315.9 256.5 316.1 247.6 316.2 243.5 316.4 244.6 316.6 250.8 316.8 261.5 317.0 255.3 317.1 264.7 317.3 244.4 317.5 257.1 317.7 251.4 317.9 264.7 318.9 256.8 319.8 251.3 320.6 247.8 321.3 245.3 322.0 243.7 322.7 243.2 323.4 243.8 324.2 245.4 324.9 248.0 325.8 252.5 326.7 258.4 327.4 263.9 327.6 264.7 327.8 264.7 327.9 250.3 328.1 248.0 328.3 264.7 328.5 264.7 328.7 258.7 328.8 249.0 329.0 243.9 329.2 244.0 329.4 249.2 329.6 259.1 329.7 264.7 329.9 264.7 330.1 247.3 330.3 251.2 330.5 264.7 330.6 264.7 330.8 262.1 331.2 254.4 331.5 248.6 331.9 244.8 332.1 243.7 332.3 243.3 332.4 243.4 332.6 244.1 332.8 245.4 333.2 249.7 333.5 255.9 333.9 263.9 334.1 249.4 334.2 264.7 334.4 243.8 334.6 259.5 334.8 246.6 335.0 264.7 335.1 254.3 335.3 246.3 335.5 243.3 335.7 245.5 335.9 252.7 336.0 264.1 336.2 243.5 336.4 264.7 336.6 243.2 336.8 264.6 336.9 243.3 337.1 264.7 339.8 257.8 342.3 252.4 344.7 248.4 347.0 245.5 349.2 243.9 351.3 243.2 353.5 243.7 355.8 245.3 358.2 248.1 360.5 252.0 363.0 257.4 365.9 264.7 366.1 248.8 366.3 264.7 366.5 243.7 366.7 259.9 366.8 246.2 367.0 264.7 367.2 254.2 367.4 246.3 367.6 243.3 367.7 245.5 367.9 252.8 368.1 264.2 368.3 243.4 368.5 264.7 368.6 243.2 368.8 264.7 369.0 243.3 369.2 264.6 369.5 256.5 369.9 250.1 370.3 245.7 370.4 244.3 370.6 243.5 370.8 243.2 371.0 243.6 371.2 244.6 371.5 248.2 371.9 253.9 372.2 261.4 372.4 264.7 372.6 255.1 372.8 255.7 373.0 244.9 373.1 264.7 373.3 259.6 373.5 260.9 373.7 250.5 373.9 244.4 374.0 243.5 374.2 247.9 374.4 256.9 374.6 264.7 374.8 264.7 374.9 251.7 375.1 246.9 375.3 264.7 375.5 264.7 375.7 264.1 376.6 257.3 377.5 251.7 378.2 248.1 378.9 245.5 379.6 243.8 380.3 243.2 381.1 243.7 381.8 245.2 382.5 247.7 383.2 251.1 384.1 256.6 385.2 264.7 385.4 243.6 385.6 262.6 385.7 243.3 385.9 264.7 386.1 244.9 386.3 263.4 386.5 252.2 386.6 245.2 386.8 243.3 387.0 246.6 387.2 254.8 387.4 264.7 387.5 249.8 387.7 257.7 387.9 244.2 388.1 264.7 388.3 253.4 388.4 263.7 388.8 255.8 389.2 249.5 389.5 245.3 389.7 244.1 389.9 243.4 390.1 243.3 390.2 243.8 390.4 244.8 390.8 248.7 391.1 254.6 391.5 262.3 391.7 264.7 391.9 264.7 392.0 249.9 392.2 248.4 392.4 264.7 392.6 264.7 392.8 258.5 392.9 248.8 393.1 243.8 393.3 244.0 393.5 249.4 393.7 259.3 393.8 264.7 394.0 264.7 394.2 247.0 394.4 251.6 394.6 264.7 394.8 264.7 394.9 329.6 412.4 312.6 427.5 297.7 437.8 288.5 446.4 281.7 454.3 276.5 461.7 272.7 468.9 270.1 476.0 268.7 481.3 268.4 481.4 333.3 490.0 333.3" stroke-linejoin="bevel"/><line stroke="#eee" fill="transparent" stroke-width="2" x1="742" y1="223.26923076923077" x2="1192" y2="223.26923076923077"/><line stroke="#eee" fill="transparent" stroke-width="2" x1="750.6538461538462" y1="218.26923076923077" x2="750.6538461538462" y2="228.26923076923077"/><line stroke="#eee" fill="transparent" stroke-width="2" x1="837.1923076923077" y1="218.26923076923077" x2="837.1923076923077" y2="228.26923076923077"/><line stroke="#eee" fill="transparent" stroke-width="2" x1="923.7307692307693" y1="218.26923076923077" x2="923.7307692307693" y2="228.26923076923077"/><line stroke="#eee" fill="transparent" stroke-width="2" x1="1010.2692307692308" y1="218.26923076923077" x2="1010.2692307692308" y2="228.26923076923077"/><line stroke="#eee" fill="transparent" stroke-width="2" x1="1096.8076923076924" y1="218.26923076923077" x2="1096.8076923076924" y2="228.26923076923077"/><line stroke="#eee" fill="transparent" stroke-width="2" x1="1183.3461538461538" y1="218.26923076923077" x2="1183.3461538461538" y2="228.26923076923077"/><line stroke="#eee" fill="transparent" stroke-width="2" x1="750.6538461538462" y1="250" x2="750.6538461538462" y2="110"/><line stroke="#eee" fill="transparent" stroke-width="2" x1="745.6538461538462" y1="223.26923076923077" x2="755.6538461538462" y2="223.26923076923077"/><line stroke="#eee" fill="transparent" stroke-width="2" x1="745.6538461538462" y1="136.73076923076923" x2="755.6538461538462" y2="136.73076923076923"/><polygon stroke="transparent" fill="#d4e4ed" stroke-width="2" points="742.0 223.3 750.6 223.3 750.7 158.4 757.7 158.9 764.7 160.6 771.9 163.5 779.6 167.7 787.9 173.4 797.5 181.3 810.4 193.5 830.6 213.5 837.2 219.6 837.2 154.7 837.4 154.7 837.6 141.6 837.8 137.0 838.0 154.7 838.2 154.7 838.3 149.3 838.5 139.4 838.7 134.0 838.9 133.8 839.1 138.8 839.2 148.5 839.4 154.7 839.6 154.7 839.8 138.4 840.0 139.9 840.1 154.7 840.3 154.7 840.5 152.3 840.9 144.6 841.2 138.7 841.6 134.8 841.8 133.8 841.9 133.3 842.1 133.4 842.3 134.1 842.5 135.3 842.8 139.5 843.2 145.8 843.6 153.7 843.7 143.4 843.9 154.7 844.1 134.2 844.3 147.7 844.5 139.8 844.6 154.7 844.8 144.8 845.0 136.6 845.2 133.3 845.4 135.2 845.5 142.2 845.7 153.4 845.9 134.9 846.1 154.7 846.3 133.3 846.4 152.6 846.6 133.6 846.8 154.7 847.7 147.9 848.6 142.1 849.3 138.5 850.0 135.7 850.8 134.0 851.5 133.3 852.2 133.6 852.9 135.0 853.6 137.3 854.4 140.7 855.3 146.1 856.2 152.7 856.3 154.1 856.5 154.7 856.7 154.7 856.9 136.9 857.1 141.7 857.2 154.7 857.4 154.7 857.6 146.9 857.8 137.9 858.0 133.5 858.1 134.4 858.3 140.5 858.5 150.9 858.7 149.6 858.9 154.7 859.0 134.9 859.2 145.7 859.4 145.1 859.6 154.7 859.8 151.4 860.1 143.9 860.5 138.2 860.8 134.6 861.0 133.6 861.2 133.2 861.4 133.5 861.6 134.3 861.7 135.7 862.1 140.1 862.5 146.5 862.8 154.6 863.0 133.3 863.2 154.7 863.4 133.2 863.5 154.7 863.7 133.4 863.9 154.2 864.1 142.8 864.3 135.5 864.4 133.3 864.6 136.3 864.8 144.2 865.0 154.7 865.2 136.2 865.3 149.9 865.5 133.7 865.7 154.7 865.9 138.8 866.1 154.7 868.8 147.8 871.3 142.4 873.6 138.4 876.0 135.5 878.1 133.9 880.3 133.2 882.5 133.7 884.8 135.3 887.1 138.2 889.5 142.1 892.0 147.4 894.9 154.7 895.1 133.3 895.2 154.6 895.4 133.2 895.6 154.7 895.8 133.5 896.0 154.1 896.1 142.7 896.3 135.5 896.5 133.3 896.7 136.3 896.9 144.3 897.0 154.7 897.2 136.6 897.4 149.5 897.6 133.8 897.8 154.7 897.9 139.4 898.1 153.9 898.5 145.9 898.8 139.7 899.2 135.4 899.4 134.1 899.6 133.4 899.7 133.3 899.9 133.7 900.1 134.8 900.5 138.6 900.8 144.4 901.2 152.1 901.4 154.7 901.5 154.7 901.7 141.2 901.9 137.3 902.1 154.7 902.3 154.7 902.4 149.1 902.6 139.2 902.8 134.0 903.0 133.9 903.2 139.0 903.3 148.7 903.5 154.7 903.7 154.7 903.9 138.0 904.1 140.3 904.2 154.7 904.4 154.7 904.6 153.9 905.5 147.1 906.4 141.5 907.1 138.0 907.8 135.4 908.6 133.8 909.3 133.2 910.0 133.7 910.7 135.3 911.4 137.8 912.2 141.3 913.1 146.8 914.0 153.5 914.1 154.7 914.3 141.4 914.5 147.1 914.7 134.4 914.9 154.7 915.0 145.3 915.2 151.5 915.4 140.8 915.6 134.6 915.8 133.5 915.9 137.6 916.1 146.5 916.3 154.7 916.5 154.7 916.7 142.9 916.8 136.2 917.0 154.7 917.2 154.7 917.4 153.1 917.8 145.2 918.1 139.1 918.5 135.1 918.7 133.9 918.8 133.3 919.0 133.3 919.2 133.9 919.4 135.1 919.7 139.1 920.1 145.1 920.5 152.9 920.6 154.7 920.8 154.7 921.0 136.6 921.2 142.2 921.4 154.7 921.5 154.7 921.7 146.7 921.9 137.7 922.1 133.5 922.3 134.5 922.4 140.6 922.6 151.2 922.8 147.8 923.0 154.7 923.2 134.7 923.3 146.2 923.5 143.5 923.7 154.7 923.7 219.6 941.0 203.0 956.3 187.9 966.5 178.6 975.2 171.8 983.1 166.6 990.5 162.8 997.7 160.2 1004.7 158.7 1010.3 158.4 1010.3 223.3 1192.0 223.3 1192.0 223.3 742.0 223.3"/><polyline stroke="#fff" fill="transparent" stroke-width="2" points="742.0 223.3 750.6 223.3 750.7 158.4 757.7 158.9 764.7 160.6 771.9 163.5 779.6 167.7 787.9 173.4 797.5 181.3 810.4 193.5 830.6 213.5 837.2 219.6 837.2 154.7 837.4 154.7 837.6 141.6 837.8 137.0 838.0 154.7 838.2 154.7 838.3 149.3 838.5 139.4 838.7 134.0 838.9 133.8 839.1 138.8 839.2 148.5 839.4 154.7 839.6 154.7 839.8 138.4 840.0 139.9 840.1 154.7 840.3 154.7 840.5 152.3 840.9 144.6 841.2 138.7 841.6 134.8 841.8 133.8 841.9 133.3 842.1 133.4 842.3 134.1 842.5 135.3 842.8 139.5 843.2 145.8 843.6 153.7 843.7 143.4 843.9 154.7 844.1 134.2 844.3 147.7 844.5 139.8 844.6 154.7 844.8 144.8 845.0 136.6 845.2 133.3 845.4 135.2 845.5 142.2 845.7 153.4 845.9 134.9 846.1 154.7 846.3 133.3 846.4 152.6 846.6 133.6 846.8 154.7 847.7 147.9 848.6 142.1 849.3 138.5 850.0 135.7 850.8 134.0 851.5 133.3 852.2 133.6 852.9 135.0 853.6 137.3 854.4 140.7 855.3 146.1 856.2 152.7 856.3 154.1 856.5 154.7 856.7 154.7 856.9 136.9 857.1 141.7 857.2 154.7 857.4 154.7 857.6 146.9 857.8 137.9 858.0 133.5 858.1 134.4 858.3 140.5 858.5 150.9 858.7 149.6 858.9 154.7 859.0 134.9 859.2 145.7 859.4 145.1 859.6 154.7 859.8 151.4 860.1 143.9 860.5 138.2 860.8 134.6 861.0 133.6 861.2 133.2 861.4 133.5 861.6 134.3 861.7 135.7 862.1 140.1 862.5 146.5 862.8 154.6 863.0 133.3 863.2 154.7 863.4 133.2 863.5 154.7 863.7 133.4 863.9 154.2 864.1 142.8 864.3 135.5 864.4 133.3 864.6 136.3 864.8 144.2 865.0 154.7 865.2 136.2 865.3 149.9 865.5 133.7 865.7 154.7 865.9 138.8 866.1 154.7 868.8 147.8 871.3 142.4 873.6 138.4 876.0 135.5 878.1 133.9 880.3 133.2 882.5 133.7 884.8 135.3 887.1 138.2 889.5 142.1 892.0 147.4 894.9 154.7 895.1 133.3 895.2 154.6 895.4 133.2 895.6 154.7 895.8 133.5 896.0 154.1 896.1 142.7 896.3 135.5 896.5 133.3 896.7 136.3 896.9 144.3 897.0 154.7 897.2 136.6 897.4 149.5 897.6 133.8 897.8 154.7 897.9 139.4 898.1 153.9 898.5 145.9 898.8 139.7 899.2 135.4 899.4 134.1 899.6 133.4 899.7 133.3 899.9 133.7 900.1 134.8 900.5 138.6 900.8 144.4 901.2 152.1 901.4 154.7 901.5 154.7 901.7 141.2 901.9 137.3 902.1 154.7 902.3 154.7 902.4 149.1 902.6 139.2 902.8 134.0 903.0 133.9 903.2 139.0 903.3 148.7 903.5 154.7 903.7 154.7 903.9 138.0 904.1 140.3 904.2 154.7 904.4 154.7 904.6 153.9 905.5 147.1 906.4 141.5 907.1 138.0 907.8 135.4 908.6 133.8 909.3 133.2 910.0 133.7 910.7 135.3 911.4 137.8 912.2 141.3 913.1 146.8 914.0 153.5 914.1 154.7 914.3 141.4 914.5 147.1 914.7 134.4 914.9 154.7 915.0 145.3 915.2 151.5 915.4 140.8 915.6 134.6 915.8 133.5 915.9 137.6 916.1 146.5 916.3 154.7 916.5 154.7 916.7 142.9 916.8 136.2 917.0 154.7 917.2 154.7 917.4 153.1 917.8 145.2 918.1 139.1 918.5 135.1 918.7 133.9 918.8 133.3 919.0 133.3 919.2 133.9 919.4 135.1 919.7 139.1 920.1 145.1 920.5 152.9 920.6 154.7 920.8 154.7 921.0 136.6 921.2 142.2 921.4 154.7 921.5 154.7 921.7 146.7 921.9 137.7 922.1 133.5 922.3 134.5 922.4 140.6 922.6 151.2 922.8 147.8 923.0 154.7 923.2 134.7 923.3 146.2 923.5 143.5 923.7 154.7 923.7 219.6 941.0 203.0 956.3 187.9 966.5 178.6 975.2 171.8 983.1 166.6 990.5 162.8 997.7 160.2 1004.7 158.7 1010.3 158.4 1010.3 223.3 1192.0 223.3" stroke-linejoin="bevel"/><polygon stroke="transparent" fill="#f1e9d0" stroke-width="2" points="742.0 223.3 750.6 223.3 750.7 158.4 757.7 158.9 764.7 160.6 771.9 163.5 779.6 167.7 787.9 173.4 797.5 181.3 810.4 193.5 830.6 213.5 837.2 219.6 837.2 154.7 837.4 154.7 837.6 141.6 837.8 137.0 838.0 154.7 838.2 154.7 838.3 149.3 838.5 139.4 838.7 134.0 838.9 133.8 839.1 138.8 839.2 148.5 839.4 154.7 839.6 154.7 839.8 138.4 840.0 139.9 840.1 154.7 840.3 154.7 840.5 152.3 840.9 144.6 841.2 138.7 841.6 134.8 841.8 133.8 841.9 133.3 842.1 133.4 842.3 134.1 842.5 135.3 842.8 139.5 843.2 145.8 843.6 153.7 843.7 143.4 843.9 154.7 844.1 134.2 844.3 147.7 844.5 139.8 844.6 154.7 844.8 144.8 845.0 136.6 845.2 133.3 845.4 135.2 845.5 142.2 845.7 153.4 845.9 134.9 846.1 154.7 846.3 133.3 846.4 152.6 846.6 133.6 846.8 154.7 847.7 147.9 848.6 142.1 849.3 138.5 850.0 135.7 850.8 134.0 851.5 133.3 852.2 133.6 852.9 135.0 853.6 137.3 854.4 140.7 855.3 146.1 856.2 152.7 856.3 154.1 856.5 154.7 856.7 154.7 856.9 136.9 857.1 141.7 857.2 154.7 857.4 154.7 857.6 146.9 857.8 137.9 858.0 133.5 858.1 134.4 858.3 140.5 858.5 150.9 858.7 149.6 858.9 154.7 859.0 134.9 859.2 145.7 859.4 145.1 859.6 154.7 859.8 151.4 860.1 143.9 860.5 138.2 860.8 134.6 861.0 133.6 861.2 133.2 861.4 133.5 861.6 134.3 861.7 135.7 862.1 140.1 862.5 146.5 862.8 154.6 863.0 133.3 863.2 154.7 863.4 133.2 863.5 154.7 863.7 133.4 863.9 154.2 864.1 142.8 864.3 135.5 864.4 133.3 864.6 136.3 864.8 144.2 865.0 154.7 865.2 136.2 865.3 149.9 865.5 133.7 865.7 154.7 865.9 138.8 866.1 154.7 868.8 147.8 871.3 142.4 873.6 138.4 876.0 135.5 878.1 133.9 880.3 133.2 882.5 133.7 884.8 135.3 887.1 138.2 889.5 142.1 892.0 147.4 894.9 154.7 895.1 133.3 895.2 154.6 895.4 133.2 895.6 154.7 895.8 133.5 896.0 154.1 896.1 142.7 896.3 135.5 896.5 133.3 896.7 136.3 896.9 144.3 897.0 154.7 897.2 136.6 897.4 149.5 897.6 133.8 897.8 154.7 897.9 139.4 898.1 153.9 898.5 145.9 898.8 139.7 899.2 135.4 899.4 134.1 899.6 133.4 899.7 133.3 899.9 133.7 900.1 134.8 900.5 138.6 900.8 144.4 901.2 152.1 901.4 154.7 901.5 154.7 901.7 141.2 901.9 137.3 902.1 154.7 902.3 154.7 902.4 149.1 902.6 139.2 902.8 134.0 903.0 133.9 903.2 139.0 903.3 148.7 903.5 154.7 903.7 154.7 903.9 138.0 904.1 140.3 904.2 154.7 904.4 154.7 904.6 153.9 905.5 147.1 906.4 141.5 907.1 138.0 907.8 135.4 908.6 133.8 909.3 133.2 910.0 133.7 910.7 135.3 911.4 137.8 912.2 141.3 913.1 146.8 914.0 153.5 914.1 154.7 914.3 141.4 914.5 147.1 914.7 134.4 914.9 154.7 915.0 145.3 915.2 151.5 915.4 140.8 915.6 134.6 915.8 133.5 915.9 137.6 916.1 146.5 916.3 154.7 916.5 154.7 916.7 142.9 916.8 136.2 917.0 154.7 917.2 154.7 917.4 153.1 917.8 145.2 918.1 139.1 918.5 135.1 918.7 133.9 918.8 133.3 919.0 133.3 919.2 133.9 919.4 135.1 919.7 139.1 920.1 145.1 920.5 152.9 920.6 154.7 920.8 154.7 921.0 136.6 921.2 142.2 921.4 154.7 921.5 154.7 921.7 146.7 921.9 137.7 922.1 133.5 922.3 134.5 922.4 140.6 922.6 151.2 922.8 147.8 923.0 154.7 923.2 134.7 923.3 146.2 923.5 143.5 923.7 154.7 932.3 147.5 939.9 142.1 947.1 138.1 953.9 135.4 960.6 133.8 967.3 133.2 973.9 133.8 980.8 135.6 987.8 138.5 995.2 142.8 1003.1 148.6 1010.1 154.6 1010.3 154.7 1010.5 143.5 1010.7 146.2 1010.8 134.7 1011.0 154.7 1011.2 147.8 1011.4 151.2 1011.6 140.6 1011.7 134.5 1011.9 133.5 1012.1 137.7 1012.3 146.7 1012.5 154.7 1012.6 154.7 1012.8 142.2 1013.0 136.6 1013.2 154.7 1013.4 154.7 1013.5 152.9 1013.9 145.1 1014.3 139.1 1014.6 135.1 1014.8 133.9 1015.0 133.3 1015.2 133.3 1015.3 133.9 1015.5 135.1 1015.9 139.1 1016.2 145.2 1016.6 153.1 1016.8 154.7 1017.0 154.7 1017.2 136.2 1017.3 142.9 1017.5 154.7 1017.7 154.7 1017.9 146.5 1018.1 137.6 1018.2 133.5 1018.4 134.6 1018.6 140.8 1018.8 151.5 1019.0 145.3 1019.1 154.7 1019.3 134.4 1019.5 147.1 1019.7 141.4 1019.9 154.7 1020.9 146.8 1021.8 141.3 1022.6 137.8 1023.3 135.3 1024.0 133.7 1024.7 133.2 1025.4 133.8 1026.2 135.4 1026.9 138.0 1027.8 142.5 1028.7 148.4 1029.4 153.9 1029.6 154.7 1029.8 154.7 1029.9 140.3 1030.1 138.0 1030.3 154.7 1030.5 154.7 1030.7 148.7 1030.8 139.0 1031.0 133.9 1031.2 134.0 1031.4 139.2 1031.6 149.1 1031.7 154.7 1031.9 154.7 1032.1 137.3 1032.3 141.2 1032.5 154.7 1032.6 154.7 1032.8 152.1 1033.2 144.4 1033.5 138.6 1033.9 134.8 1034.1 133.7 1034.3 133.3 1034.4 133.4 1034.6 134.1 1034.8 135.4 1035.2 139.7 1035.5 145.9 1035.9 153.9 1036.1 139.4 1036.2 154.7 1036.4 133.8 1036.6 149.5 1036.8 136.6 1037.0 154.7 1037.1 144.3 1037.3 136.3 1037.5 133.3 1037.7 135.5 1037.9 142.7 1038.0 154.1 1038.2 133.5 1038.4 154.7 1038.6 133.2 1038.8 154.6 1038.9 133.3 1039.1 154.7 1041.8 147.8 1044.3 142.4 1046.7 138.4 1049.0 135.5 1051.2 133.9 1053.3 133.2 1055.5 133.7 1057.8 135.3 1060.2 138.1 1062.5 142.0 1065.0 147.4 1067.9 154.7 1068.1 138.8 1068.3 154.7 1068.5 133.7 1068.7 149.9 1068.8 136.2 1069.0 154.7 1069.2 144.2 1069.4 136.3 1069.6 133.3 1069.7 135.5 1069.9 142.8 1070.1 154.2 1070.3 133.4 1070.5 154.7 1070.6 133.2 1070.8 154.7 1071.0 133.3 1071.2 154.6 1071.5 146.5 1071.9 140.1 1072.3 135.7 1072.4 134.3 1072.6 133.5 1072.8 133.2 1073.0 133.6 1073.2 134.6 1073.5 138.2 1073.9 143.9 1074.2 151.4 1074.4 154.7 1074.6 145.1 1074.8 145.7 1075.0 134.9 1075.1 154.7 1075.3 149.6 1075.5 150.9 1075.7 140.5 1075.9 134.4 1076.0 133.5 1076.2 137.9 1076.4 146.9 1076.6 154.7 1076.8 154.7 1076.9 141.7 1077.1 136.9 1077.3 154.7 1077.5 154.7 1077.7 154.1 1078.6 147.3 1079.5 141.7 1080.2 138.1 1080.9 135.5 1081.6 133.8 1082.3 133.2 1083.1 133.7 1083.8 135.2 1084.5 137.7 1085.2 141.1 1086.1 146.6 1087.2 154.7 1087.4 133.6 1087.6 152.6 1087.7 133.3 1087.9 154.7 1088.1 134.9 1088.3 153.4 1088.5 142.2 1088.6 135.2 1088.8 133.3 1089.0 136.6 1089.2 144.8 1089.4 154.7 1089.5 139.8 1089.7 147.7 1089.9 134.2 1090.1 154.7 1090.3 143.4 1090.4 153.7 1090.8 145.8 1091.2 139.5 1091.5 135.3 1091.7 134.1 1091.9 133.4 1092.1 133.3 1092.2 133.8 1092.4 134.8 1092.8 138.7 1093.1 144.6 1093.5 152.3 1093.7 154.7 1093.9 154.7 1094.0 139.9 1094.2 138.4 1094.4 154.7 1094.6 154.7 1094.8 148.5 1094.9 138.8 1095.1 133.8 1095.3 134.0 1095.5 139.4 1095.7 149.3 1095.8 154.7 1096.0 154.7 1096.2 137.0 1096.4 141.6 1096.6 154.7 1096.8 154.7 1096.9 219.6 1114.4 202.6 1129.5 187.7 1139.8 178.5 1148.4 171.7 1156.3 166.5 1163.7 162.7 1170.9 160.1 1178.0 158.7 1183.3 158.4 1183.4 223.3 1192.0 223.3 1192.0 223.3 1010.3 223.3 1010.3 158.4 1004.7 158.7 997.7 160.2 990.5 162.8 983.1 166.6 975.2 171.8 966.5 178.6 956.3 187.9 941.0 203.0 923.7 219.6 923.7 154.7 923.5 143.5 923.3 146.2 923.2 134.7 923.0 154.7 922.8 147.8 922.6 151.2 922.4 140.6 922.3 134.5 922.1 133.5 921.9 137.7 921.7 146.7 921.5 154.7 921.4 154.7 921.2 142.2 921.0 136.6 920.8 154.7 920.6 154.7 920.5 152.9 920.1 145.1 919.7 139.1 919.4 135.1 919.2 133.9 919.0 133.3 918.8 133.3 918.7 133.9 918.5 135.1 918.1 139.1 917.8 145.2 917.4 153.1 917.2 154.7 917.0 154.7 916.8 136.2 916.7 142.9 916.5 154.7 916.3 154.7 916.1 146.5 915.9 137.6 915.8 133.5 915.6 134.6 915.4 140.8 915.2 151.5 915.0 145.3 914.9 154.7 914.7 134.4 914.5 147.1 914.3 141.4 914.1 154.7 914.0 153.5 913.1 146.8 912.2 141.3 911.4 137.8 910.7 135.3 910.0 133.7 909.3 133.2 908.6 133.8 907.8 135.4 907.1 138.0 906.4 141.5 905.5 147.1 904.6 153.9 904.4 154.7 904.2 154.7 904.1 140.3 903.9 138.0 903.7 154.7 903.5 154.7 903.3 148.7 903.2 139.0 903.0 133.9 902.8 134.0 902.6 139.2 902.4 149.1 902.3 154.7 902.1 154.7 901.9 137.3 901.7 141.2 901.5 154.7 901.4 154.7 901.2 152.1 900.8 144.4 900.5 138.6 900.1 134.8 899.9 133.7 899.7 133.3 899.6 133.4 899.4 134.1 899.2 135.4 898.8 139.7 898.5 145.9 898.1 153.9 897.9 139.4 897.8 154.7 897.6 133.8 897.4 149.5 897.2 136.6 897.0 154.7 896.9 144.3 896.7 136.3 896.5 133.3 896.3 135.5 896.1 142.7 896.0 154.1 895.8 133.5 895.6 154.7 895.4 133.2 895.2 154.6 895.1 133.3 894.9 154.7 892.0 147.4 889.5 142.1 887.1 138.2 884.8 135.3 882.5 133.7 880.3 133.2 878.1 133.9 876.0 135.5 873.6 138.4 871.3 142.4 868.8 147.8 866.1 154.7 865.9 138.8 865.7 154.7 865.5 133.7 865.3 149.9 865.2 136.2 865.0 154.7 864.8 144.2 864.6 136.3 864.4 133.3 864.3 135.5 864.1 142.8 863.9 154.2 863.7 133.4 863.5 154.7 863.4 133.2 863.2 154.7 863.0 133.3 862.8 154.6 862.5 146.5 862.1 140.1 861.7 135.7 861.6 134.3 861.4 133.5 861.2 133.2 861.0 133.6 860.8 134.6 860.5 138.2 860.1 143.9 859.8 151.4 859.6 154.7 859.4 145.1 859.2 145.7 859.0 134.9 858.9 154.7 858.7 149.6 858.5 150.9 858.3 140.5 858.1 134.4 858.0 133.5 857.8 137.9 857.6 146.9 857.4 154.7 857.2 154.7 857.1 141.7 856.9 136.9 856.7 154.7 856.5 154.7 856.3 154.1 856.2 152.7 855.3 146.1 854.4 140.7 853.6 137.3 852.9 135.0 852.2 133.6 851.5 133.3 850.8 134.0 850.0 135.7 849.3 138.5 848.6 142.1 847.7 147.9 846.8 154.7 846.6 133.6 846.4 152.6 846.3 133.3 846.1 154.7 845.9 134.9 845.7 153.4 845.5 142.2 845.4 135.2 845.2 133.3 845.0 136.6 844.8 144.8 844.6 154.7 844.5 139.8 844.3 147.7 844.1 134.2 843.9 154.7 843.7 143.4 843.6 153.7 843.2 145.8 842.8 139.5 842.5 135.3 842.3 134.1 842.1 133.4 841.9 133.3 841.8 133.8 841.6 134.8 841.2 138.7 840.9 144.6 840.5 152.3 840.3 154.7 840.1 154.7 840.0 139.9 839.8 138.4 839.6 154.7 839.4 154.7 839.2 148.5 839.1 138.8 838.9 133.8 838.7 134.0 838.5 139.4 838.3 149.3 838.2 154.7 838.0 154.7 837.8 137.0 837.6 141.6 837.4 154.7 837.2 154.7 837.2 219.6 830.6 213.5 810.4 193.5 797.5 181.3 787.9 173.4 779.6 167.7 771.9 163.5 764.7 160.6 757.7 158.9 750.7 158.4 750.6 223.3 742.0 223.3"/><polyline stroke="#666" fill="transparent" stroke-width="2" points="742.0 223.3 750.6 223.3 750.7 158.4 757.7 158.9 764.7 160.6 771.9 163.5 779.6 167.7 787.9 173.4 797.5 181.3 810.4 193.5 830.6 213.5 837.2 219.6 837.2 154.7 837.4 154.7 837.6 141.6 837.8 137.0 838.0 154.7 838.2 154.7 838.3 149.3 838.5 139.4 838.7 134.0 838.9 133.8 839.1 138.8 839.2 148.5 839.4 154.7 839.6 154.7 839.8 138.4 840.0 139.9 840.1 154.7 840.3 154.7 840.5 152.3 840.9 144.6 841.2 138.7 841.6 134.8 841.8 133.8 841.9 133.3 842.1 133.4 842.3 134.1 842.5 135.3 842.8 139.5 843.2 145.8 843.6 153.7 843.7 143.4 843.9 154.7 844.1 134.2 844.3 147.7 844.5 139.8 844.6 154.7 844.8 144.8 845.0 136.6 845.2 133.3 845.4 135.2 845.5 142.2 845.7 153.4 845.9 134.9 846.1 154.7 846.3 133.3 846.4 152.6 846.6 133.6 846.8 154.7 847.7 147.9 848.6 142.1 849.3 138.5 850.0 135.7 850.8 134.0 851.5 133.3 852.2 133.6 852.9 135.0 853.6 137.3 854.4 140.7 855.3 146.1 856.2 152.7 856.3 154.1 856.5 154.7 856.7 154.7 856.9 136.9 857.1 141.7 857.2 154.7 857.4 154.7 857.6 146.9 857.8 137.9 858.0 133.5 858.1 134.4 858.3 140.5 858.5 150.9 858.7 149.6 858.9 154.7 859.0 134.9 859.2 145.7 859.4 145.1 859.6 154.7 859.8 151.4 860.1 143.9 860.5 138.2 860.8 134.6 861.0 133.6 861.2 133.2 861.4 133.5 861.6 134.3 861.7 135.7 862.1 140.1 862.5 146.5 862.8 154.6 863.0 133.3 863.2 154.7 863.4 133.2 863.5 154.7 863.7 133.4 863.9 154.2 864.1 142.8 864.3 135.5 864.4 133.3 864.6 136.3 864.8 144.2 865.0 154.7 865.2 136.2 865.3 149.9 865.5 133.7 865.7 154.7 865.9 138.8 866.1 154.7 868.8 147.8 871.3 142.4 873.6 138.4 876.0 135.5 878.1 133.9 880.3 133.2 882.5 133.7 884.8 135.3 887.1 138.2 889.5 142.1 892.0 147.4 894.9 154.7 895.1 133.3 895.2 154.6 895.4 133.2 895.6 154.7 895.8 133.5 896.0 154.1 896.1 142.7 896.3 135.5 896.5 133.3 896.7 136.3 896.9 144.3 897.0 154.7 897.2 136.6 897.4 149.5 897.6 133.8 897.8 154.7 897.9 139.4 898.1 153.9 898.5 145.9 898.8 139.7 899.2 135.4 899.4 134.1 899.6 133.4 899.7 133.3 899.9 133.7 900.1 134.8 900.5 138.6 900.8 144.4 901.2 152.1 901.4 154.7 901.5 154.7 901.7 141.2 901.9 137.3 902.1 154.7 902.3 154.7 902.4 149.1 902.6 139.2 902.8 134.0 903.0 133.9 903.2 139.0 903.3 148.7 903.5 154.7 903.7 154.7 903.9 138.0 904.1 140.3 904.2 154.7 904.4 154.7 904.6 153.9 905.5 147.1 906.4 141.5 907.1 138.0 907.8 135.4 908.6 133.8 909.3 133.2 910.0 133.7 910.7 135.3 911.4 137.8 912.2 141.3 913.1 146.8 914.0 153.5 914.1 154.7 914.3 141.4 914.5 147.1 914.7 134.4 914.9 154.7 915.0 145.3 915.2 151.5 915.4 140.8 915.6 134.6 915.8 133.5 915.9 137.6 916.1 146.5 916.3 154.7 916.5 154.7 916.7 142.9 916.8 136.2 917.0 154.7 917.2 154.7 917.4 153.1 917.8 145.2 918.1 139.1 918.5 135.1 918.7 133.9 918.8 133.3 919.0 133.3 919.2 133.9 919.4 135.1 919.7 139.1 920.1 145.1 920.5 152.9 920.6 154.7 920.8 154.7 921.0 136.6 921.2 142.2 921.4 154.7 921.5 154.7 921.7 146.7 921.9 137.7 922.1 133.5 922.3 134.5 922.4 140.6 922.6 151.2 922.8 147.8 923.0 154.7 923.2 134.7 923.3 146.2 923.5 143.5 923.7 154.7 932.3 147.5 939.9 142.1 947.1 138.1 953.9 135.4 960.6 133.8 967.3 133.2 973.9 133.8 980.8 135.6 987.8 138.5 995.2 142.8 1003.1 148.6 1010.1 154.6 1010.3 154.7 1010.5 143.5 1010.7 146.2 1010.8 134.7 1011.0 154.7 1011.2 147.8 1011.4 151.2 1011.6 140.6 1011.7 134.5 1011.9 133.5 1012.1 137.7 1012.3 146.7 1012.5 154.7 1012.6 154.7 1012.8 142.2 1013.0 136.6 1013.2 154.7 1013.4 154.7 1013.5 152.9 1013.9 145.1 1014.3 139.1 1014.6 135.1 1014.8 133.9 1015.0 133.3 1015.2 133.3 1015.3 133.9 1015.5 135.1 1015.9 139.1 1016.2 145.2 1016.6 153.1 1016.8 154.7 1017.0 154.7 1017.2 136.2 1017.3 142.9 1017.5 154.7 1017.7 154.7 1017.9 146.5 1018.1 137.6 1018.2 133.5 1018.4 134.6 1018.6 140.8 1018.8 151.5 1019.0 145.3 1019.1 154.7 1019.3 134.4 1019.5 147.1 1019.7 141.4 1019.9 154.7 1020.9 146.8 1021.8 141.3 1022.6 137.8 1023.3 135.3 1024.0 133.7 1024.7 133.2 1025.4 133.8 1026.2 135.4 1026.9 138.0 1027.8 142.5 1028.7 148.4 1029.4 153.9 1029.6 154.7 1029.8 154.7 1029.9 140.3 1030.1 138.0 1030.3 154.7 1030.5 154.7 1030.7 148.7 1030.8 139.0 1031.0 133.9 1031.2 134.0 1031.4 139.2 1031.6 149.1 1031.7 154.7 1031.9 154.7 1032.1 137.3 1032.3 141.2 1032.5 154.7 1032.6 154.7 1032.8 152.1 1033.2 144.4 1033.5 138.6 1033.9 134.8 1034.1 133.7 1034.3 133.3 1034.4 133.4 1034.6 134.1 1034.8 135.4 1035.2 139.7 1035.5 145.9 1035.9 153.9 1036.1 139.4 1036.2 154.7 1036.4 133.8 1036.6 149.5 1036.8 136.6 1037.0 154.7 1037.1 144.3 1037.3 136.3 1037.5 133.3 1037.7 135.5 1037.9 142.7 1038.0 154.1 1038.2 133.5 1038.4 154.7 1038.6 133.2 1038.8 154.6 1038.9 133.3 1039.1 154.7 1041.8 147.8 1044.3 142.4 1046.7 138.4 1049.0 135.5 1051.2 133.9 1053.3 133.2 1055.5 133.7 1057.8 135.3 1060.2 138.1 1062.5 142.0 1065.0 147.4 1067.9 154.7 1068.1 138.8 1068.3 154.7 1068.5 133.7 1068.7 149.9 1068.8 136.2 1069.0 154.7 1069.2 144.2 1069.4 136.3 1069.6 133.3 1069.7 135.5 1069.9 142.8 1070.1 154.2 1070.3 133.4 1070.5 154.7 1070.6 133.2 1070.8 154.7 1071.0 133.3 1071.2 154.6 1071.5 146.5 1071.9 140.1 1072.3 135.7 1072.4 134.3 1072.6 133.5 1072.8 133.2 1073.0 133.6 1073.2 134.6 1073.5 138.2 1073.9 143.9 1074.2 151.4 1074.4 154.7 1074.6 145.1 1074.8 145.7 1075.0 134.9 1075.1 154.7 1075.3 149.6 1075.5 150.9 1075.7 140.5 1075.9 134.4 1076.0 133.5 1076.2 137.9 1076.4 146.9 1076.6 154.7 1076.8 154.7 1076.9 141.7 1077.1 136.9 1077.3 154.7 1077.5 154.7 1077.7 154.1 1078.6 147.3 1079.5 141.7 1080.2 138.1 1080.9 135.5 1081.6 133.8 1082.3 133.2 1083.1 133.7 1083.8 135.2 1084.5 137.7 1085.2 141.1 1086.1 146.6 1087.2 154.7 1087.4 133.6 1087.6 152.6 1087.7 133.3 1087.9 154.7 1088.1 134.9 1088.3 153.4 1088.5 142.2 1088.6 135.2 1088.8 133.3 1089.0 136.6 1089.2 144.8 1089.4 154.7 1089.5 139.8 1089.7 147.7 1089.9 134.2 1090.1 154.7 1090.3 143.4 1090.4 153.7 1090.8 145.8 1091.2 139.5 1091.5 135.3 1091.7 134.1 1091.9 133.4 1092.1 133.3 1092.2 133.8 1092.4 134.8 1092.8 138.7 1093.1 144.6 1093.5 152.3 1093.7 154.7 1093.9 154.7 1094.0 139.9 1094.2 138.4 1094.4 154.7 1094.6 154.7 1094.8 148.5 1094.9 138.8 1095.1 133.8 1095.3 134.0 1095.5 139.4 1095.7 149.3 1095.8 154.7 1096.0 154.7 1096.2 137.0 1096.4 141.6 1096.6 154.7 1096.8 154.7 1096.9 219.6 1114.4 202.6 1129.5 187.7 1139.8 178.5 1148.4 171.7 1156.3 166.5 1163.7 162.7 1170.9 160.1 1178.0 158.7 1183.3 158.4 1183.4 223.3 1192.0 223.3" stroke-linejoin="bevel"/><text stroke="transparent" fill="#ddd" stroke-width="2" x="245" y="195" font-size="64px">+</text><text stroke="transparent" fill="#ddd" stroke-width="2" x="596" y="195" font-size="64px">=</text></svg>