<?xml version="1.0" standalone="no"?><!DOCTYPE svg PUBLIC "-//W3C//DTD SVG 1.1//EN" "http://www.w3.org/Graphics/SVG/1.1/DTD/svg11.dtd"><svg width="1232" height="280" vertion="1.1" style="background-color:#fff" id="svg" version="1.1" xmlns="http://www.w3.org/2000/svg" xmlns:xlink="http://www.w3.org/1999/xlink"><defs xmlns="http://www.w3.org/1999/xhtml"><style type="text/css"><![CDATA[]]></style></defs>

      <defs>
        <clipPath id="alphaClip">
          <polygon id="clipAlpha"/>
        </clipPath>
        <clipPath id="betaClip">
          <polygon id="clipBeta"/>
        </clipPath>
        <clipPath id="gammaClip">
          <polygon id="clipGamma"/>
        </clipPath>
      </defs>

      <!-- The circle center and radius line. -->
      <!--
      <line x1="300" y1="300" x2="476.8" y2="123.2"
      stroke="#ccc" fill="transparent" stroke-width="3" />
      <circle cx="300" cy="300" r="9"
      stroke="#ccc" fill="white" stroke-width="3"/>
      -->

      <!-- The triangles. -->
      <!--
      <polygon points="534.9 214.5, 65.1 214.5, 108.5 460.7"
      stroke="#aaa" fill="transparent" stroke-width="3" />
      <polygon points="300 300, 65.1 214.5, 108.5 460.7"
      stroke="#aaa" fill="transparent" stroke-width="3" />
      -->

      <!--
      <line x1="300" y1="300" x2="86.8" y2="337.6"
      stroke="#aaa" stroke-width="3" />
      -->

      <!-- The points. -->
      <!--
      <circle cx="534.9" cy="214.5" r="6"
      stroke="black" fill="black" />
      <circle cx="65.1" cy="214.5" r="6"
      stroke="black" fill="black" />
      <circle cx="108.5" cy="460.7" r="6"
      stroke="black" fill="black" />
      <circle cx="300" cy="300" r="6"
      stroke="black" fill="black" />
      <circle cx="86.8" cy="337.6" r="6"
      stroke="black" fill="black" />
      -->

      <!-- The circle. -->
      <!--
      <circle cx="300" cy="300" r="250"
      stroke="black" fill="transparent" stroke-width="3" />
      -->

      <!--
      <polygon points="20 20, 190 60, 70 400" stroke="black"
      fill="transparent" stroke-width="3" />
      -->
    <line stroke="#ddd" fill="transparent" stroke-width="3" x1="0" y1="246.20689655172413" x2="1232" y2="246.20689655172413"/><line stroke="#ddd" fill="transparent" stroke-width="3" x1="191.17241379310343" y1="241.20689655172413" x2="191.17241379310343" y2="251.20689655172413"/><line stroke="#ddd" fill="transparent" stroke-width="3" x1="403.5862068965517" y1="241.20689655172413" x2="403.5862068965517" y2="251.20689655172413"/><line stroke="#ddd" fill="transparent" stroke-width="3" x1="616" y1="241.20689655172413" x2="616" y2="251.20689655172413"/><line stroke="#ddd" fill="transparent" stroke-width="3" x1="828.4137931034483" y1="241.20689655172413" x2="828.4137931034483" y2="251.20689655172413"/><line stroke="#ddd" fill="transparent" stroke-width="3" x1="1040.8275862068967" y1="241.20689655172413" x2="1040.8275862068967" y2="251.20689655172413"/><line stroke="#ddd" fill="transparent" stroke-width="3" x1="616" y1="280" x2="616" y2="0"/><line stroke="#ddd" fill="transparent" stroke-width="3" x1="611" y1="246.20689655172413" x2="621" y2="246.20689655172413"/><line stroke="#ddd" fill="transparent" stroke-width="3" x1="611" y1="33.79310344827587" x2="621" y2="33.79310344827587"/><polyline stroke="#666" fill="transparent" stroke-width="3" points="0 243.03751578670835 4.120401337792611 242.85474542858978 8.240802675585318 242.6627689983409 12.361204013377929 242.4612078513361 16.48160535117054 242.24967285860583 20.602006688963243 242.02776441266747 24.722408026755858 241.79507245394734 28.84280936454847 241.5511765188955 32.96321070234117 241.2956458108975 37.08361204013379 241.02803929508812 41.204013377926394 240.74790581816796 45.3244147157191 240.45478425431773 49.444816053511715 240.14820367829327 53.56521739130432 239.82768356677025 57.68561872909703 239.49273402898905 61.806020066889644 239.1428560677263 65.92642140468224 238.77754187159354 70.04682274247496 238.39627513962947 74.16722408026757 237.99853143911852 78.28762541806019 237.58377859752403 82.40802675585289 237.15147712938005 86.5284280936455 236.70108069893422 90.6488294314381 236.23203661927658 94.76923076923072 235.74378638862996 98.88963210702343 235.2357662644085 103.01003344481603 234.70740787558168 107.13043478260875 234.15813887380148 111.25083612040135 233.5873836236708 115.37123745819397 232.9945639324423 119.49163879598657 232.37909981934456 123.61204013377929 231.74041032463612 127.73244147157189 231.07791435838416 131.8528428093646 230.39103158885888 135.9732441471572 229.67918337032154 140.09364548494983 228.94179370986876 144.21404682274243 228.17829027287507 148.33444816053515 227.38810542645044 152.45484949832775 226.57067732020198 156.57525083612046 225.7254510034562 160.69565217391306 224.85187957796356 164.8160535117057 223.94942538496912 168.9364548494983 223.01756122539135 173.056856187291 222.05577161170976 177.1772575250836 221.06355405001605 181.29765886287632 220.040420350538 185.41806020066892 218.98589796479897 189.53846153846152 217.89953134742672 193.65886287625418 216.78088334048022 197.77926421404686 215.62953657801438 201.89966555183946 214.44509490845743 206.02006688963212 213.2271848322328 210.14046822742478 211.97545695191303 214.26086956521738 210.68958743205667 218.38127090301006 209.36927946574104 222.50167224080266 208.01426474467397 226.6220735785953 206.62430492963813 230.74247491638798 205.1991931179018 234.86287625418058 203.7387553041115 238.98327759197326 202.24285183107267 243.1036789297659 200.71137882672292 247.2240802675585 199.14426962350433 251.34448160535118 197.5414961562568 255.4648829431438 195.90307033467474 259.58528428093643 194.22904538630013 263.7056856187291 192.51951716596759 267.82608695652175 190.7746254275671 271.94648829431435 188.99455505395278 276.066889632107 187.1795372408008 280.18729096989966 185.32985063020539 284.30769230769226 183.4458223897992 288.428093645485 181.52782923319734 292.5484949832776 179.5762983775876 296.66889632107024 177.5917084343273 300.7892976588629 175.57459022846018 304.90969899665555 173.5255275431311 309.03010033444815 171.44515778495787 313.1505016722408 169.33417256651265 317.27090301003346 167.19331820217621 321.39130434782606 165.02339611374998 325.5117056856187 162.82526314235065 329.6321070234114 160.59983176326426 333.752508361204 158.34807020060344 337.87290969899664 156.07100243879356 341.9933110367893 153.76970812810765 346.1137123745819 151.4453223816809 350.2341137123746 149.09903546165592 354.3545150501672 146.73209235234586 358.4749163879598 144.34579221855054 362.5953177257525 141.94148774742067 366.7157190635451 139.52058437253393 370.83612040133784 137.0845393791316 374.95652173913044 134.6348608897531 379.07692307692304 132.17310672980815 383.19732441471575 129.7008831729343 387.31772575250835 127.21984356630583 391.438127090301 124.73168683638079 395.55852842809367 122.23815587590428 399.6789297658863 119.74103581331832 403.7993311036789 117.24215216606558 407.9197324414716 114.74336887961479 412.04013377926424 112.24658625437576 416.16053511705684 109.75373876301464 420.2809364548495 107.26679276101791 424.40133779264215 104.78774409369618 428.52173913043475 102.318615603149 432.6421404682274 99.86145453904663 436.7625418060201 97.41832987740801 440.88294314381267 94.99132955187213 445.0033444816053 92.58255760226993 449.12374581939804 90.1941312456064 453.2441471571906 87.82817787484956 457.36454849498324 85.48683199120487 461.48494983277595 83.17223207581688 465.6053511705685 80.8865174070942 469.72575250836115 78.631824830088 473.84615384615387 76.41028548457814 477.9665551839465 74.22402149872357 482.08695652173907 72.07514265531859 486.2073578595318 69.96574303786716 490.32775919732444 67.8978976638316 494.448160535117 65.87365911254119 498.5685618729097 63.89505415535217 502.68896321070235 61.96408039573538 506.809364548495 60.08270292702858 510.9297658862876 58.2528510156325 515.0501672240803 56.47641481744469 519.1705685618729 54.75524213531699 523.2909698996656 53.09113522529617 527.4113712374582 51.48584765934777 531.5317725752508 49.94108125218901 535.6521739130435 48.45848305975301 539.7725752508361 47.039642456682145 543.8929765886287 45.68608830009731 548.0133779264214 44.399286186721724 552.133779264214 43.18063581023975 556.2541806020066 42.031468425556085 560.3745819397993 40.95304442638238 564.494983277592 39.94655104231913 568.6153846153845 39.013100161320324 572.7357859531772 38.153726283129885 576.85618729097 37.3693846089636 580.9765886287624 36.66094927237177 585.0969899665552 36.029211715870105 589.2173913043479 35.474879217558964 593.3377926421405 34.99857357156955 597.4581939799331 34.6008299257833 601.5785953177258 34.28209577986675 605.6989966555184 34.04273014624604 609.8193979933111 33.883002876224765 613.9397993311037 33.80309415301494 618.0602006688963 33.80309415301494 622.180602006689 33.883002876224765 626.3010033444816 34.04273014624604 630.4214046822742 34.28209577986675 634.5418060200669 34.6008299257833 638.6622073578595 34.99857357156955 642.7826086956521 35.474879217558964 646.903010033445 36.029211715870105 651.0234113712374 36.66094927237177 655.14381270903 37.3693846089636 659.2642140468228 38.153726283129885 663.3846153846154 39.013100161320324 667.505016722408 39.94655104231913 671.6254180602007 40.95304442638238 675.7458193979933 42.031468425556085 679.8662207357859 43.18063581023975 683.9866220735786 44.399286186721724 688.1070234113713 45.68608830009731 692.2274247491638 47.039642456682145 696.3478260869565 48.45848305975301 700.4682274247492 49.94108125218901 704.5886287625417 51.48584765934777 708.7090301003344 53.09113522529617 712.8294314381271 54.75524213531699 716.9498327759196 56.47641481744469 721.0702341137123 58.2528510156325 725.190635451505 60.08270292702858 729.3110367892978 61.96408039573538 733.4314381270902 63.89505415535217 737.551839464883 65.87365911254119 741.6722408026757 67.8978976638316 745.7926421404682 69.96574303786716 749.9130434782609 72.07514265531859 754.0334448160536 74.22402149872357 758.1538461538461 76.41028548457814 762.2742474916388 78.631824830088 766.3946488294315 80.8865174070942 770.5150501672241 83.17223207581688 774.6354515050167 85.48683199120487 778.7558528428094 87.82817787484956 782.876254180602 90.1941312456064 786.9966555183946 92.58255760226993 791.1170568561873 94.99132955187213 795.2374581939799 97.41832987740801 799.3578595317726 99.86145453904663 803.4782608695652 102.318615603149 807.5986622073578 104.78774409369618 811.7190635451506 107.26679276101797 815.8394648829432 109.75373876301464 819.9598662207358 112.24658625437576 824.0802675585285 114.74336887961482 828.2006688963211 117.24215216606558 832.3210702341137 119.74103581331832 836.4414715719064 122.23815587590431 840.561872909699 124.73168683638079 844.6822742474916 127.21984356630583 848.8026755852843 129.70088317293434 852.9230769230769 132.17310672980815 857.0434782608695 134.6348608897531 861.1638795986622 137.08453937913157 865.2842809364548 139.5205843725339 869.4046822742476 141.94148774742072 873.5250836120402 144.34579221855057 877.6454849498327 146.73209235234586 881.7658862876253 149.09903546165592 885.886287625418 151.44532238168088 890.0066889632106 153.76970812810757 894.1270903010035 156.07100243879358 898.2474916387961 158.3480702006035 902.3678929765887 160.59983176326426 906.4882943143812 162.82526314235065 910.6086956521739 165.02339611374995 914.7290969899665 167.19331820217621 918.8494983277593 169.33417256651268 922.9698996655519 171.4451577849579 927.0903010033445 173.52552754313112 931.210702341137 175.57459022846018 935.3311036789297 177.5917084343273 939.4515050167223 179.57629837758756 943.5719063545151 181.5278292331974 947.6923076923077 183.44582238979922 951.8127090301003 185.3298506302054 955.933110367893 187.1795372408008 960.0535117056855 188.99455505395275 964.1739130434781 190.77462542756706 968.294314381271 192.5195171659676 972.4147157190636 194.22904538630013 976.5351170568562 195.90307033467474 980.6555183946489 197.5414961562568 984.7759197324415 199.1442696235043 988.896321070234 200.71137882672286 993.0167224080269 202.2428518310727 997.1371237458194 203.7387553041115 1001.2575250836121 205.19919311790184 1005.3779264214047 206.62430492963813 1009.4983277591973 208.01426474467394 1013.61872909699 209.36927946574104 1017.7391304347827 210.68958743205673 1021.8595317725752 211.9754569519131 1025.979933110368 213.2271848322328 1030.1003344481605 214.44509490845743 1034.2207357859531 215.62953657801438 1038.3411371237457 216.78088334048022 1042.4615384615386 217.89953134742674 1046.5819397993312 218.985897964799 1050.7023411371238 220.04042035053803 1054.8227424749164 221.06355405001605 1058.943143812709 222.05577161170976 1063.0635451505016 223.01756122539132 1067.1839464882944 223.9494253849691 1071.304347826087 224.8518795779636 1075.4247491638796 225.72545100345621 1079.5451505016722 226.57067732020198 1083.6655518394648 227.38810542645044 1087.7859531772574 228.17829027287505 1091.9063545150502 228.94179370986873 1096.0267558528428 229.67918337032157 1100.1471571906354 230.3910315888589 1104.267558528428 231.07791435838416 1108.3879598662206 231.74041032463612 1112.5083612040132 232.37909981934456 1116.628762541806 232.9945639324423 1120.7491638795987 233.58738362367083 1124.8695652173915 234.15813887380148 1128.989966555184 234.70740787558168 1133.1103678929765 235.2357662644085 1137.230769230769 235.74378638862993 1141.3511705685619 236.23203661927658 1145.4715719063545 236.70108069893422 1149.5919732441473 237.15147712938005 1153.71237458194 237.58377859752403 1157.8327759197325 237.99853143911852 1161.9531772575249 238.39627513962947 1166.0735785953177 238.77754187159354 1170.1939799331103 239.14285606772634 1174.3143812709031 239.49273402898905 1178.4347826086957 239.82768356677025 1182.5551839464883 240.14820367829327 1186.675585284281 240.45478425431773 1190.7959866220735 240.74790581816794 1194.9163879598661 241.02803929508812 1199.036789297659 241.2956458108975 1203.1571906354516 241.5511765188955 1207.2775919732442 241.79507245394734 1211.3979933110368 242.02776441266747 1215.5183946488294 242.24967285860583 1219.6387959866222 242.46120785133613 1223.7591973244148 242.6627689983409 1227.8795986622074 242.85474542858978 1232 243.03751578670835"/></svg>