<?xml version="1.0" standalone="no"?><!DOCTYPE svg PUBLIC "-//W3C//DTD SVG 1.1//EN" "http://www.w3.org/Graphics/SVG/1.1/DTD/svg11.dtd"><svg width="1232" height="390" vertion="1.1" style="background-color:#fff" id="svg" version="1.1" xmlns="http://www.w3.org/2000/svg" xmlns:xlink="http://www.w3.org/1999/xlink"><defs xmlns="http://www.w3.org/1999/xhtml"><style type="text/css"><![CDATA[]]></style></defs>
    <line stroke="#eee" fill="transparent" stroke-width="3" x1="40" y1="41.25" x2="490" y2="41.25"/><line stroke="#eee" fill="transparent" stroke-width="3" x1="58.75000000000003" y1="36.25" x2="58.75000000000003" y2="46.25"/><line stroke="#eee" fill="transparent" stroke-width="3" x1="96.25000000000003" y1="36.25" x2="96.25000000000003" y2="46.25"/><line stroke="#eee" fill="transparent" stroke-width="3" x1="133.75000000000003" y1="36.25" x2="133.75000000000003" y2="46.25"/><line stroke="#eee" fill="transparent" stroke-width="3" x1="171.25000000000003" y1="36.25" x2="171.25000000000003" y2="46.25"/><line stroke="#eee" fill="transparent" stroke-width="3" x1="208.75000000000003" y1="36.25" x2="208.75000000000003" y2="46.25"/><line stroke="#eee" fill="transparent" stroke-width="3" x1="246.25000000000003" y1="36.25" x2="246.25000000000003" y2="46.25"/><line stroke="#eee" fill="transparent" stroke-width="3" x1="283.75" y1="36.25" x2="283.75" y2="46.25"/><line stroke="#eee" fill="transparent" stroke-width="3" x1="321.25000000000006" y1="36.25" x2="321.25000000000006" y2="46.25"/><line stroke="#eee" fill="transparent" stroke-width="3" x1="358.75" y1="36.25" x2="358.75" y2="46.25"/><line stroke="#eee" fill="transparent" stroke-width="3" x1="396.25" y1="36.25" x2="396.25" y2="46.25"/><line stroke="#eee" fill="transparent" stroke-width="3" x1="433.75" y1="36.25" x2="433.75" y2="46.25"/><line stroke="#eee" fill="transparent" stroke-width="3" x1="471.25" y1="36.25" x2="471.25" y2="46.25"/><line stroke="#eee" fill="transparent" stroke-width="3" x1="171.25000000000003" y1="45" x2="171.25000000000003" y2="0"/><line stroke="#eee" fill="transparent" stroke-width="3" x1="166.25000000000003" y1="41.25" x2="176.25000000000003" y2="41.25"/><line stroke="#eee" fill="transparent" stroke-width="3" x1="166.25000000000003" y1="3.75" x2="176.25000000000003" y2="3.75"/><polygon stroke="#eee" fill="#d4e1e8" stroke-width="3" points="40.0 41.3 171.2 41.3 171.3 3.8 190.0 3.8 190.0 41.3 208.8 41.3 208.8 3.8 246.3 3.8 246.3 41.3 265.0 41.3 265.0 3.8 283.8 3.8 283.8 41.3 490.0 41.3 490.0 41.3 40.0 41.3"/><polyline stroke="#738b97" fill="transparent" stroke-width="3" points="40.0 41.3 171.2 41.3 171.3 3.8 190.0 3.8 190.0 41.3 208.8 41.3 208.8 3.8 246.3 3.8 246.3 41.3 265.0 41.3 265.0 3.8 283.8 3.8 283.8 41.3 490.0 41.3"/><line stroke="#eee" fill="transparent" stroke-width="3" x1="40" y1="146.25" x2="490" y2="146.25"/><line stroke="#eee" fill="transparent" stroke-width="3" x1="58.75000000000003" y1="141.25" x2="58.75000000000003" y2="151.25"/><line stroke="#eee" fill="transparent" stroke-width="3" x1="96.25000000000003" y1="141.25" x2="96.25000000000003" y2="151.25"/><line stroke="#eee" fill="transparent" stroke-width="3" x1="133.75000000000003" y1="141.25" x2="133.75000000000003" y2="151.25"/><line stroke="#eee" fill="transparent" stroke-width="3" x1="171.25000000000003" y1="141.25" x2="171.25000000000003" y2="151.25"/><line stroke="#eee" fill="transparent" stroke-width="3" x1="208.75000000000003" y1="141.25" x2="208.75000000000003" y2="151.25"/><line stroke="#eee" fill="transparent" stroke-width="3" x1="246.25000000000003" y1="141.25" x2="246.25000000000003" y2="151.25"/><line stroke="#eee" fill="transparent" stroke-width="3" x1="283.75" y1="141.25" x2="283.75" y2="151.25"/><line stroke="#eee" fill="transparent" stroke-width="3" x1="321.25000000000006" y1="141.25" x2="321.25000000000006" y2="151.25"/><line stroke="#eee" fill="transparent" stroke-width="3" x1="358.75" y1="141.25" x2="358.75" y2="151.25"/><line stroke="#eee" fill="transparent" stroke-width="3" x1="396.25" y1="141.25" x2="396.25" y2="151.25"/><line stroke="#eee" fill="transparent" stroke-width="3" x1="433.75" y1="141.25" x2="433.75" y2="151.25"/><line stroke="#eee" fill="transparent" stroke-width="3" x1="471.25" y1="141.25" x2="471.25" y2="151.25"/><line stroke="#eee" fill="transparent" stroke-width="3" x1="171.25000000000003" y1="150" x2="171.25000000000003" y2="105"/><line stroke="#eee" fill="transparent" stroke-width="3" x1="166.25000000000003" y1="146.25" x2="176.25000000000003" y2="146.25"/><line stroke="#eee" fill="transparent" stroke-width="3" x1="166.25000000000003" y1="108.75" x2="176.25000000000003" y2="108.75"/><polygon stroke="#eee" fill="#dee8d4" stroke-width="3" points="40.0 146.3 246.3 146.3 246.3 108.8 265.0 108.8 265.0 146.3 283.8 146.3 283.8 108.8 321.2 108.8 321.3 146.3 340.0 146.3 340.0 108.8 358.8 108.8 358.8 146.3 490.0 146.3 490.0 146.3 40.0 146.3"/><polyline stroke="#859773" fill="transparent" stroke-width="3" points="40.0 146.3 246.3 146.3 246.3 108.8 265.0 108.8 265.0 146.3 283.8 146.3 283.8 108.8 321.2 108.8 321.3 146.3 340.0 146.3 340.0 108.8 358.8 108.8 358.8 146.3 490.0 146.3"/><line stroke="#eee" fill="transparent" stroke-width="3" x1="742" y1="112.5" x2="1192" y2="112.5"/><line stroke="#eee" fill="transparent" stroke-width="3" x1="779.5" y1="107.5" x2="779.5" y2="117.5"/><line stroke="#eee" fill="transparent" stroke-width="3" x1="854.5" y1="107.5" x2="854.5" y2="117.5"/><line stroke="#eee" fill="transparent" stroke-width="3" x1="929.5" y1="107.5" x2="929.5" y2="117.5"/><line stroke="#eee" fill="transparent" stroke-width="3" x1="1004.5" y1="107.5" x2="1004.5" y2="117.5"/><line stroke="#eee" fill="transparent" stroke-width="3" x1="1079.5" y1="107.5" x2="1079.5" y2="117.5"/><line stroke="#eee" fill="transparent" stroke-width="3" x1="1154.5" y1="107.5" x2="1154.5" y2="117.5"/><line stroke="#eee" fill="transparent" stroke-width="3" x1="779.5" y1="120" x2="779.5" y2="30"/><line stroke="#eee" fill="transparent" stroke-width="3" x1="774.5" y1="112.5" x2="784.5" y2="112.5"/><line stroke="#eee" fill="transparent" stroke-width="3" x1="774.5" y1="37.5" x2="784.5" y2="37.5"/><polygon stroke="transparent" fill="#d4e1e8" stroke-width="3" points="742.0 112.5 779.5 112.5 779.6 37.5 817.0 37.5 817.1 112.5 854.5 112.5 854.6 37.5 929.5 37.5 929.6 112.5 967.0 112.5 967.1 37.5 1004.5 37.5 1004.6 112.5 1192.0 112.5 1192.0 112.5 742.0 112.5"/><polyline stroke="#fff" fill="transparent" stroke-width="3" points="742.0 112.5 779.5 112.5 779.6 37.5 817.0 37.5 817.1 112.5 854.5 112.5 854.6 37.5 929.5 37.5 929.6 112.5 967.0 112.5 967.1 37.5 1004.5 37.5 1004.6 112.5 1192.0 112.5"/><polygon stroke="transparent" fill="#dee8d4" stroke-width="3" points="742.0 112.5 779.5 112.5 779.6 37.5 817.0 37.5 817.1 112.5 854.5 112.5 854.6 37.5 1079.5 37.5 1079.6 112.5 1117.0 112.5 1117.1 37.5 1154.5 37.5 1154.6 112.5 1192.0 112.5 1192.0 112.5 1004.6 112.5 1004.5 37.5 967.1 37.5 967.0 112.5 929.6 112.5 929.5 37.5 854.6 37.5 854.5 112.5 817.1 112.5 817.0 37.5 779.6 37.5 779.5 112.5 742.0 112.5"/><polyline stroke="#666" fill="transparent" stroke-width="3" points="742.0 112.5 779.5 112.5 779.6 37.5 817.0 37.5 817.1 112.5 854.5 112.5 854.6 37.5 1079.5 37.5 1079.6 112.5 1117.0 112.5 1117.1 37.5 1154.5 37.5 1154.6 112.5 1192.0 112.5"/><text stroke="transparent" fill="#ddd" stroke-width="3" x="245" y="90" font-size="56px">+</text><text stroke="transparent" fill="#ddd" stroke-width="3" x="596" y="90" font-size="56px">=</text><line stroke="#eee" fill="transparent" stroke-width="3" x1="40" y1="281.25" x2="490" y2="281.25"/><line stroke="#eee" fill="transparent" stroke-width="3" x1="58.75000000000008" y1="276.25" x2="58.75000000000008" y2="286.25"/><line stroke="#eee" fill="transparent" stroke-width="3" x1="96.25000000000006" y1="276.25" x2="96.25000000000006" y2="286.25"/><line stroke="#eee" fill="transparent" stroke-width="3" x1="133.75000000000006" y1="276.25" x2="133.75000000000006" y2="286.25"/><line stroke="#eee" fill="transparent" stroke-width="3" x1="171.25000000000003" y1="276.25" x2="171.25000000000003" y2="286.25"/><line stroke="#eee" fill="transparent" stroke-width="3" x1="208.75000000000003" y1="276.25" x2="208.75000000000003" y2="286.25"/><line stroke="#eee" fill="transparent" stroke-width="3" x1="246.25000000000003" y1="276.25" x2="246.25000000000003" y2="286.25"/><line stroke="#eee" fill="transparent" stroke-width="3" x1="283.75" y1="276.25" x2="283.75" y2="286.25"/><line stroke="#eee" fill="transparent" stroke-width="3" x1="321.25" y1="276.25" x2="321.25" y2="286.25"/><line stroke="#eee" fill="transparent" stroke-width="3" x1="358.74999999999994" y1="276.25" x2="358.74999999999994" y2="286.25"/><line stroke="#eee" fill="transparent" stroke-width="3" x1="396.25" y1="276.25" x2="396.25" y2="286.25"/><line stroke="#eee" fill="transparent" stroke-width="3" x1="433.74999999999994" y1="276.25" x2="433.74999999999994" y2="286.25"/><line stroke="#eee" fill="transparent" stroke-width="3" x1="471.24999999999994" y1="276.25" x2="471.24999999999994" y2="286.25"/><line stroke="#eee" fill="transparent" stroke-width="3" x1="171.25000000000003" y1="285" x2="171.25000000000003" y2="240"/><line stroke="#eee" fill="transparent" stroke-width="3" x1="166.25000000000003" y1="281.25" x2="176.25000000000003" y2="281.25"/><line stroke="#eee" fill="transparent" stroke-width="3" x1="166.25000000000003" y1="243.75" x2="176.25000000000003" y2="243.75"/><polygon stroke="#eee" fill="#d4e1e8" stroke-width="3" points="40.0 281.3 170.8 281.3 172.0 279.1 183.2 245.3 184.4 244.4 195.6 255.6 196.8 255.7 208.0 244.5 209.2 243.8 245.3 243.8 246.4 244.2 257.7 278.0 258.8 281.2 271.2 268.8 283.6 281.1 490.0 281.3 490.0 281.3 40.0 281.3"/><polyline stroke="#738b97" fill="transparent" stroke-width="3" points="40.0 281.3 170.8 281.3 172.0 279.1 183.2 245.3 184.4 244.4 195.6 255.6 196.8 255.7 208.0 244.5 209.2 243.8 245.3 243.8 246.4 244.2 257.7 278.0 258.8 281.2 271.2 268.8 283.6 281.1 490.0 281.3"/><line stroke="#eee" fill="transparent" stroke-width="3" x1="40" y1="386.25" x2="490" y2="386.25"/><line stroke="#eee" fill="transparent" stroke-width="3" x1="58.75000000000008" y1="381.25" x2="58.75000000000008" y2="391.25"/><line stroke="#eee" fill="transparent" stroke-width="3" x1="96.25000000000006" y1="381.25" x2="96.25000000000006" y2="391.25"/><line stroke="#eee" fill="transparent" stroke-width="3" x1="133.75000000000006" y1="381.25" x2="133.75000000000006" y2="391.25"/><line stroke="#eee" fill="transparent" stroke-width="3" x1="171.25000000000003" y1="381.25" x2="171.25000000000003" y2="391.25"/><line stroke="#eee" fill="transparent" stroke-width="3" x1="208.75000000000003" y1="381.25" x2="208.75000000000003" y2="391.25"/><line stroke="#eee" fill="transparent" stroke-width="3" x1="246.25000000000003" y1="381.25" x2="246.25000000000003" y2="391.25"/><line stroke="#eee" fill="transparent" stroke-width="3" x1="283.75" y1="381.25" x2="283.75" y2="391.25"/><line stroke="#eee" fill="transparent" stroke-width="3" x1="321.25" y1="381.25" x2="321.25" y2="391.25"/><line stroke="#eee" fill="transparent" stroke-width="3" x1="358.74999999999994" y1="381.25" x2="358.74999999999994" y2="391.25"/><line stroke="#eee" fill="transparent" stroke-width="3" x1="396.25" y1="381.25" x2="396.25" y2="391.25"/><line stroke="#eee" fill="transparent" stroke-width="3" x1="433.74999999999994" y1="381.25" x2="433.74999999999994" y2="391.25"/><line stroke="#eee" fill="transparent" stroke-width="3" x1="471.24999999999994" y1="381.25" x2="471.24999999999994" y2="391.25"/><line stroke="#eee" fill="transparent" stroke-width="3" x1="171.25000000000003" y1="390" x2="171.25000000000003" y2="345"/><line stroke="#eee" fill="transparent" stroke-width="3" x1="166.25000000000003" y1="386.25" x2="176.25000000000003" y2="386.25"/><line stroke="#eee" fill="transparent" stroke-width="3" x1="166.25000000000003" y1="348.75" x2="176.25000000000003" y2="348.75"/><polygon stroke="#eee" fill="#dee8d4" stroke-width="3" points="40.0 386.3 245.3 386.3 246.4 385.8 257.7 352.0 258.8 348.8 271.2 361.2 283.6 348.9 320.8 348.8 322.0 350.9 333.2 384.7 334.4 385.6 345.6 374.4 346.8 374.3 358.0 385.5 359.2 386.3 490.0 386.3 490.0 386.3 40.0 386.3"/><polyline stroke="#859773" fill="transparent" stroke-width="3" points="40.0 386.3 245.3 386.3 246.4 385.8 257.7 352.0 258.8 348.8 271.2 361.2 283.6 348.9 320.8 348.8 322.0 350.9 333.2 384.7 334.4 385.6 345.6 374.4 346.8 374.3 358.0 385.5 359.2 386.3 490.0 386.3"/><line stroke="#eee" fill="transparent" stroke-width="3" x1="742" y1="352.5" x2="1192" y2="352.5"/><line stroke="#eee" fill="transparent" stroke-width="3" x1="779.5" y1="347.5" x2="779.5" y2="357.5"/><line stroke="#eee" fill="transparent" stroke-width="3" x1="854.5" y1="347.5" x2="854.5" y2="357.5"/><line stroke="#eee" fill="transparent" stroke-width="3" x1="929.5" y1="347.5" x2="929.5" y2="357.5"/><line stroke="#eee" fill="transparent" stroke-width="3" x1="1004.5" y1="347.5" x2="1004.5" y2="357.5"/><line stroke="#eee" fill="transparent" stroke-width="3" x1="1079.5" y1="347.5" x2="1079.5" y2="357.5"/><line stroke="#eee" fill="transparent" stroke-width="3" x1="1154.5" y1="347.5" x2="1154.5" y2="357.5"/><line stroke="#eee" fill="transparent" stroke-width="3" x1="779.5" y1="360" x2="779.5" y2="270"/><line stroke="#eee" fill="transparent" stroke-width="3" x1="774.5" y1="352.5" x2="784.5" y2="352.5"/><line stroke="#eee" fill="transparent" stroke-width="3" x1="774.5" y1="277.5" x2="784.5" y2="277.5"/><polygon stroke="transparent" fill="#d4e1e8" stroke-width="3" points="742.0 352.5 779.2 352.5 780.3 350.0 804.0 278.9 805.2 278.2 828.8 301.8 830.0 302.0 853.7 278.3 854.8 277.5 929.2 277.5 930.3 280.0 954.0 351.1 955.2 351.8 978.8 328.2 980.0 328.0 1003.7 351.7 1004.8 352.5 1192.0 352.5 1192.0 352.5 742.0 352.5"/><polyline stroke="#fff" fill="transparent" stroke-width="3" points="742.0 352.5 779.2 352.5 780.3 350.0 804.0 278.9 805.2 278.2 828.8 301.8 830.0 302.0 853.7 278.3 854.8 277.5 929.2 277.5 930.3 280.0 954.0 351.1 955.2 351.8 978.8 328.2 980.0 328.0 1003.7 351.7 1004.8 352.5 1192.0 352.5"/><polygon stroke="transparent" fill="#dee8d4" stroke-width="3" points="742.0 352.5 779.2 352.5 780.3 350.0 804.0 278.9 805.2 278.2 828.8 301.8 830.0 302.0 853.7 278.3 854.8 277.5 1079.2 277.5 1080.3 280.0 1104.0 351.1 1105.2 351.8 1128.8 328.2 1130.0 328.0 1153.7 351.7 1154.8 352.5 1192.0 352.5 1192.0 352.5 1004.8 352.5 1003.7 351.7 980.0 328.0 978.8 328.2 955.2 351.8 954.0 351.1 930.3 280.0 929.2 277.5 854.8 277.5 853.7 278.3 830.0 302.0 828.8 301.8 805.2 278.2 804.0 278.9 780.3 350.0 779.2 352.5 742.0 352.5"/><polyline stroke="#666" fill="transparent" stroke-width="3" points="742.0 352.5 779.2 352.5 780.3 350.0 804.0 278.9 805.2 278.2 828.8 301.8 830.0 302.0 853.7 278.3 854.8 277.5 1079.2 277.5 1080.3 280.0 1104.0 351.1 1105.2 351.8 1128.8 328.2 1130.0 328.0 1153.7 351.7 1154.8 352.5 1192.0 352.5"/><text stroke="transparent" fill="#ddd" stroke-width="3" x="245" y="330" font-size="56px">+</text><text stroke="transparent" fill="#ddd" stroke-width="3" x="596" y="330" font-size="56px">=</text></svg>