<?xml version="1.0" standalone="no"?><!DOCTYPE svg PUBLIC "-//W3C//DTD SVG 1.1//EN" "http://www.w3.org/Graphics/SVG/1.1/DTD/svg11.dtd"><svg width="1232" height="360" vertion="1.1" style="background-color:#fff" id="svg" version="1.1" xmlns="http://www.w3.org/2000/svg" xmlns:xlink="http://www.w3.org/1999/xlink"><defs xmlns="http://www.w3.org/1999/xhtml"><style type="text/css"><![CDATA[]]></style></defs>
    <line stroke="#eee" fill="transparent" stroke-width="3" x1="40" y1="113.26923076923077" x2="490" y2="113.26923076923077"/><line stroke="#eee" fill="transparent" stroke-width="3" x1="48.65384615384615" y1="108.26923076923077" x2="48.65384615384615" y2="118.26923076923077"/><line stroke="#eee" fill="transparent" stroke-width="3" x1="135.19230769230774" y1="108.26923076923077" x2="135.19230769230774" y2="118.26923076923077"/><line stroke="#eee" fill="transparent" stroke-width="3" x1="221.73076923076925" y1="108.26923076923077" x2="221.73076923076925" y2="118.26923076923077"/><line stroke="#eee" fill="transparent" stroke-width="3" x1="308.26923076923083" y1="108.26923076923077" x2="308.26923076923083" y2="118.26923076923077"/><line stroke="#eee" fill="transparent" stroke-width="3" x1="394.8076923076923" y1="108.26923076923077" x2="394.8076923076923" y2="118.26923076923077"/><line stroke="#eee" fill="transparent" stroke-width="3" x1="481.34615384615387" y1="108.26923076923077" x2="481.34615384615387" y2="118.26923076923077"/><line stroke="#eee" fill="transparent" stroke-width="3" x1="48.65384615384615" y1="140" x2="48.65384615384615" y2="0"/><line stroke="#eee" fill="transparent" stroke-width="3" x1="43.65384615384615" y1="113.26923076923077" x2="53.65384615384615" y2="113.26923076923077"/><line stroke="#eee" fill="transparent" stroke-width="3" x1="43.65384615384615" y1="26.730769230769226" x2="53.65384615384615" y2="26.730769230769226"/><polygon stroke="#eee" fill="#d4e1e8" stroke-width="3" points="40.0 113.3 47.9 113.3 49.0 112.9 134.7 27.2 135.9 26.7 221.6 26.7 307.3 112.3 308.4 113.3 490.0 113.3 490.0 113.3 40.0 113.3"/><polyline stroke="#738b97" fill="transparent" stroke-width="3" points="40.0 113.3 47.9 113.3 49.0 112.9 134.7 27.2 135.9 26.7 221.6 26.7 307.3 112.3 308.4 113.3 490.0 113.3"/><line stroke="#eee" fill="transparent" stroke-width="3" x1="40" y1="333.2692307692308" x2="490" y2="333.2692307692308"/><line stroke="#eee" fill="transparent" stroke-width="3" x1="48.65384615384615" y1="328.2692307692308" x2="48.65384615384615" y2="338.2692307692308"/><line stroke="#eee" fill="transparent" stroke-width="3" x1="135.19230769230774" y1="328.2692307692308" x2="135.19230769230774" y2="338.2692307692308"/><line stroke="#eee" fill="transparent" stroke-width="3" x1="221.73076923076925" y1="328.2692307692308" x2="221.73076923076925" y2="338.2692307692308"/><line stroke="#eee" fill="transparent" stroke-width="3" x1="308.26923076923083" y1="328.2692307692308" x2="308.26923076923083" y2="338.2692307692308"/><line stroke="#eee" fill="transparent" stroke-width="3" x1="394.8076923076923" y1="328.2692307692308" x2="394.8076923076923" y2="338.2692307692308"/><line stroke="#eee" fill="transparent" stroke-width="3" x1="481.34615384615387" y1="328.2692307692308" x2="481.34615384615387" y2="338.2692307692308"/><line stroke="#eee" fill="transparent" stroke-width="3" x1="48.65384615384615" y1="360" x2="48.65384615384615" y2="220"/><line stroke="#eee" fill="transparent" stroke-width="3" x1="43.65384615384615" y1="333.2692307692308" x2="53.65384615384615" y2="333.2692307692308"/><line stroke="#eee" fill="transparent" stroke-width="3" x1="43.65384615384615" y1="246.73076923076923" x2="53.65384615384615" y2="246.73076923076923"/><polygon stroke="#eee" fill="#dee8d4" stroke-width="3" points="40.0 333.3 221.6 333.3 307.3 247.7 308.4 246.7 394.1 246.7 395.3 247.2 481.0 332.9 482.1 333.3 490.0 333.3 490.0 333.3 40.0 333.3"/><polyline stroke="#859773" fill="transparent" stroke-width="3" points="40.0 333.3 221.6 333.3 307.3 247.7 308.4 246.7 394.1 246.7 395.3 247.2 481.0 332.9 482.1 333.3 490.0 333.3"/><line stroke="#eee" fill="transparent" stroke-width="3" x1="742" y1="223.26923076923077" x2="1192" y2="223.26923076923077"/><line stroke="#eee" fill="transparent" stroke-width="3" x1="750.6538461538462" y1="218.26923076923077" x2="750.6538461538462" y2="228.26923076923077"/><line stroke="#eee" fill="transparent" stroke-width="3" x1="837.1923076923077" y1="218.26923076923077" x2="837.1923076923077" y2="228.26923076923077"/><line stroke="#eee" fill="transparent" stroke-width="3" x1="923.7307692307693" y1="218.26923076923077" x2="923.7307692307693" y2="228.26923076923077"/><line stroke="#eee" fill="transparent" stroke-width="3" x1="1010.2692307692308" y1="218.26923076923077" x2="1010.2692307692308" y2="228.26923076923077"/><line stroke="#eee" fill="transparent" stroke-width="3" x1="1096.8076923076924" y1="218.26923076923077" x2="1096.8076923076924" y2="228.26923076923077"/><line stroke="#eee" fill="transparent" stroke-width="3" x1="1183.3461538461538" y1="218.26923076923077" x2="1183.3461538461538" y2="228.26923076923077"/><line stroke="#eee" fill="transparent" stroke-width="3" x1="750.6538461538462" y1="250" x2="750.6538461538462" y2="110"/><line stroke="#eee" fill="transparent" stroke-width="3" x1="745.6538461538462" y1="223.26923076923077" x2="755.6538461538462" y2="223.26923076923077"/><line stroke="#eee" fill="transparent" stroke-width="3" x1="745.6538461538462" y1="136.73076923076923" x2="755.6538461538462" y2="136.73076923076923"/><polygon stroke="transparent" fill="#d4e1e8" stroke-width="3" points="742.0 223.3 749.9 223.3 751.0 222.9 836.7 137.2 837.9 136.7 923.6 136.7 1009.3 222.3 1010.4 223.3 1192.0 223.3 1192.0 223.3 742.0 223.3"/><polygon stroke="transparent" fill="#dee8d4" stroke-width="3" points="742.0 223.3 749.9 223.3 751.0 222.9 836.7 137.2 837.9 136.7 1096.1 136.7 1097.3 137.2 1183.0 222.9 1184.1 223.3 1192.0 223.3 1192.0 223.3 1010.4 223.3 1009.3 222.3 923.6 136.7 837.9 136.7 836.7 137.2 751.0 222.9 749.9 223.3 742.0 223.3"/><polyline stroke="#fff" fill="transparent" stroke-width="3" points="742.0 223.3 749.9 223.3 751.0 222.9 836.7 137.2 837.9 136.7 923.6 136.7 1009.3 222.3 1010.4 223.3 1192.0 223.3"/><polyline stroke="#666" fill="transparent" stroke-width="3" points="742.0 223.3 749.9 223.3 751.0 222.9 836.7 137.2 837.9 136.7 1096.1 136.7 1097.3 137.2 1183.0 222.9 1184.1 223.3 1192.0 223.3"/><text stroke="transparent" fill="#ddd" stroke-width="3" x="245" y="195" font-size="64px">+</text><text stroke="transparent" fill="#ddd" stroke-width="3" x="596" y="195" font-size="64px">=</text></svg>