<?xml version="1.0" standalone="no"?><!DOCTYPE svg PUBLIC "-//W3C//DTD SVG 1.1//EN" "http://www.w3.org/Graphics/SVG/1.1/DTD/svg11.dtd"><svg width="1232" height="360" vertion="1.1" style="background-color:#fff" id="svg" version="1.1" xmlns="http://www.w3.org/2000/svg" xmlns:xlink="http://www.w3.org/1999/xlink"><defs xmlns="http://www.w3.org/1999/xhtml"><style type="text/css"><![CDATA[]]></style></defs>
    <polygon stroke="#ddd" fill="#D8E2C9" stroke-width="3" points="40 113.26923076923077 47.89473684210526 113.26923076923077 49.02255639097744 112.90052053209948 134.73684210526315 27.186234817813755 135.86466165413532 26.730769230769226 221.57894736842107 26.730769230769226 222.70676691729324 27.706766917293194 307.29323308270676 112.2932330827067 308.42105263157896 113.26923076923077 490 113.26923076923077 490 113.26923076923077 40 113.26923076923077"/><line stroke="#ddd" fill="transparent" stroke-width="3" x1="40" y1="113.26923076923077" x2="490" y2="113.26923076923077"/><line stroke="#ddd" fill="transparent" stroke-width="3" x1="48.65384615384615" y1="108.26923076923077" x2="48.65384615384615" y2="118.26923076923077"/><line stroke="#ddd" fill="transparent" stroke-width="3" x1="135.19230769230774" y1="108.26923076923077" x2="135.19230769230774" y2="118.26923076923077"/><line stroke="#ddd" fill="transparent" stroke-width="3" x1="221.73076923076925" y1="108.26923076923077" x2="221.73076923076925" y2="118.26923076923077"/><line stroke="#ddd" fill="transparent" stroke-width="3" x1="308.26923076923083" y1="108.26923076923077" x2="308.26923076923083" y2="118.26923076923077"/><line stroke="#ddd" fill="transparent" stroke-width="3" x1="394.8076923076923" y1="108.26923076923077" x2="394.8076923076923" y2="118.26923076923077"/><line stroke="#ddd" fill="transparent" stroke-width="3" x1="481.34615384615387" y1="108.26923076923077" x2="481.34615384615387" y2="118.26923076923077"/><line stroke="#ddd" fill="transparent" stroke-width="3" x1="48.65384615384615" y1="140" x2="48.65384615384615" y2="0"/><line stroke="#ddd" fill="transparent" stroke-width="3" x1="43.65384615384615" y1="113.26923076923077" x2="53.65384615384615" y2="113.26923076923077"/><line stroke="#ddd" fill="transparent" stroke-width="3" x1="43.65384615384615" y1="26.730769230769226" x2="53.65384615384615" y2="26.730769230769226"/><polyline stroke="#576544" fill="transparent" stroke-width="3" points="40 113.26923076923077 47.89473684210526 113.26923076923077 49.02255639097744 112.90052053209948 134.73684210526315 27.186234817813755 135.86466165413532 26.730769230769226 221.57894736842107 26.730769230769226 222.70676691729324 27.706766917293194 307.29323308270676 112.2932330827067 308.42105263157896 113.26923076923077 490 113.26923076923077"/><polygon stroke="#ddd" fill="#F0E0C5" stroke-width="3" points="40 333.2692307692308 221.57894736842107 333.2692307692308 222.70676691729324 332.2932330827068 307.29323308270676 247.7067669172933 308.42105263157896 246.73076923076923 394.1353383458646 246.73076923076923 395.2631578947368 247.18623481781373 480.97744360902254 332.90052053209945 482.10526315789474 333.2692307692308 490 333.2692307692308 490 333.2692307692308 40 333.2692307692308"/><line stroke="#ddd" fill="transparent" stroke-width="3" x1="40" y1="333.2692307692308" x2="490" y2="333.2692307692308"/><line stroke="#ddd" fill="transparent" stroke-width="3" x1="48.65384615384615" y1="328.2692307692308" x2="48.65384615384615" y2="338.2692307692308"/><line stroke="#ddd" fill="transparent" stroke-width="3" x1="135.19230769230774" y1="328.2692307692308" x2="135.19230769230774" y2="338.2692307692308"/><line stroke="#ddd" fill="transparent" stroke-width="3" x1="221.73076923076925" y1="328.2692307692308" x2="221.73076923076925" y2="338.2692307692308"/><line stroke="#ddd" fill="transparent" stroke-width="3" x1="308.26923076923083" y1="328.2692307692308" x2="308.26923076923083" y2="338.2692307692308"/><line stroke="#ddd" fill="transparent" stroke-width="3" x1="394.8076923076923" y1="328.2692307692308" x2="394.8076923076923" y2="338.2692307692308"/><line stroke="#ddd" fill="transparent" stroke-width="3" x1="481.34615384615387" y1="328.2692307692308" x2="481.34615384615387" y2="338.2692307692308"/><line stroke="#ddd" fill="transparent" stroke-width="3" x1="48.65384615384615" y1="360" x2="48.65384615384615" y2="220"/><line stroke="#ddd" fill="transparent" stroke-width="3" x1="43.65384615384615" y1="333.2692307692308" x2="53.65384615384615" y2="333.2692307692308"/><line stroke="#ddd" fill="transparent" stroke-width="3" x1="43.65384615384615" y1="246.73076923076923" x2="53.65384615384615" y2="246.73076923076923"/><polyline stroke="#AB9269" fill="transparent" stroke-width="3" points="40 333.2692307692308 221.57894736842107 333.2692307692308 222.70676691729324 332.2932330827068 307.29323308270676 247.7067669172933 308.42105263157896 246.73076923076923 394.1353383458646 246.73076923076923 395.2631578947368 247.18623481781373 480.97744360902254 332.90052053209945 482.10526315789474 333.2692307692308 490 333.2692307692308"/><polygon stroke="transparent" fill="#D8E2C9" stroke-width="3" points="742 223.26923076923077 749.8947368421053 223.26923076923077 751.0225563909775 222.90052053209948 836.7368421052631 137.18623481781376 837.8646616541354 136.73076923076923 923.578947368421 136.73076923076923 924.7067669172932 137.70676691729318 1009.2932330827068 222.2932330827067 1010.421052631579 223.26923076923077 1192 223.26923076923077 1192 223.26923076923077 742 223.26923076923077"/><polygon stroke="transparent" fill="#F0E0C5" stroke-width="3" points="742 223.26923076923077 749.8947368421053 223.26923076923077 751.0225563909775 222.90052053209948 836.7368421052631 137.18623481781376 837.8646616541354 136.73076923076923 1096.1353383458645 136.73076923076923 1097.2631578947369 137.18623481781373 1182.9774436090224 222.90052053209945 1184.1052631578948 223.26923076923077 1192 223.26923076923077 1192 223.26923076923077 1010.421052631579 223.26923076923077 1009.2932330827068 222.2932330827067 924.7067669172932 137.70676691729318 923.578947368421 136.73076923076923 837.8646616541354 136.73076923076923 836.7368421052631 137.18623481781376 751.0225563909775 222.90052053209948 749.8947368421053 223.26923076923077 742 223.26923076923077"/><line stroke="#ddd" fill="transparent" stroke-width="3" x1="742" y1="223.26923076923077" x2="1192" y2="223.26923076923077"/><line stroke="#ddd" fill="transparent" stroke-width="3" x1="750.6538461538462" y1="218.26923076923077" x2="750.6538461538462" y2="228.26923076923077"/><line stroke="#ddd" fill="transparent" stroke-width="3" x1="837.1923076923077" y1="218.26923076923077" x2="837.1923076923077" y2="228.26923076923077"/><line stroke="#ddd" fill="transparent" stroke-width="3" x1="923.7307692307693" y1="218.26923076923077" x2="923.7307692307693" y2="228.26923076923077"/><line stroke="#ddd" fill="transparent" stroke-width="3" x1="1010.2692307692308" y1="218.26923076923077" x2="1010.2692307692308" y2="228.26923076923077"/><line stroke="#ddd" fill="transparent" stroke-width="3" x1="1096.8076923076924" y1="218.26923076923077" x2="1096.8076923076924" y2="228.26923076923077"/><line stroke="#ddd" fill="transparent" stroke-width="3" x1="1183.3461538461538" y1="218.26923076923077" x2="1183.3461538461538" y2="228.26923076923077"/><line stroke="#ddd" fill="transparent" stroke-width="3" x1="750.6538461538462" y1="250" x2="750.6538461538462" y2="110"/><line stroke="#ddd" fill="transparent" stroke-width="3" x1="745.6538461538462" y1="223.26923076923077" x2="755.6538461538462" y2="223.26923076923077"/><line stroke="#ddd" fill="transparent" stroke-width="3" x1="745.6538461538462" y1="136.73076923076923" x2="755.6538461538462" y2="136.73076923076923"/><polyline stroke="#666" fill="transparent" stroke-width="3" points="742 223.26923076923077 749.8947368421053 223.26923076923077 751.0225563909775 222.90052053209948 836.7368421052631 137.18623481781376 837.8646616541354 136.73076923076923 1096.1353383458645 136.73076923076923 1097.2631578947369 137.18623481781373 1182.9774436090224 222.90052053209945 1184.1052631578948 223.26923076923077 1192 223.26923076923077"/><text stroke="transparent" fill="#ddd" stroke-width="3" x="245" y="195" font-size="64px">+</text><text stroke="transparent" fill="#ddd" stroke-width="3" x="596" y="195" font-size="64px">=</text></svg>