<svg width="1000" height="1000" vertion="1.1" style="background-color:#fff" id="svg" xmlns="http://www.w3.org/2000/svg">
    <circle stroke="#eee" fill="transparent" stroke-width="10" cx="500" cy="500" r="400"></circle><line stroke="#eee" fill="transparent" stroke-width="10" x1="698.0667563118387" y1="847.5191506149074" x2="899.7880365557315" y2="513.0202084051314"></line><line stroke="#eee" fill="transparent" stroke-width="10" x1="435.9749925155261" y1="894.8427515057267" x2="819.3451686378976" y2="259.1293640402949"></line><line stroke="#eee" fill="transparent" stroke-width="10" x1="251.5062980947944" y1="813.449964290071" x2="661.2792313444825" y2="133.9549077819334"></line><line stroke="#eee" fill="transparent" stroke-width="10" x1="124.25673720994081" y1="637.1750723268644" x2="445.9941605151894" y2="103.66255627112287"></line><line stroke="#eee" fill="transparent" stroke-width="10" x1="668.9396021391694" y1="137.42668213303511" x2="100.03603438084997" y2="494.63099579033474"></line><line stroke="#eee" fill="transparent" stroke-width="10" x1="829.283828782315" y1="272.9049535933048" x2="152.39299380439786" y2="697.9125292742494"></line><line stroke="#eee" fill="transparent" stroke-width="10" x1="898.5171994289933" y1="465.5900921350848" x2="295.86080922441306" y2="843.9871956766538"></line><line stroke="#eee" fill="transparent" stroke-width="10" x1="801.8907996151381" y1="762.4155961594747" x2="605.1883951049617" y2="885.9214965964484"></line><line stroke="#eee" fill="transparent" stroke-width="10" x1="888.157500939067" y1="596.6113578454327" x2="714.6758293991153" y2="162.488091659269"></line><line stroke="#eee" fill="transparent" stroke-width="10" x1="756.7450452229061" y1="806.7278626950736" x2="474.64817069211415" y2="100.80420248862356"></line><line stroke="#eee" fill="transparent" stroke-width="10" x1="575.7477070879593" y1="892.7623771072233" x2="284.205394403899" y2="163.20230375546925"></line><line stroke="#eee" fill="transparent" stroke-width="10" x1="351.90256958415443" y1="871.5738837757893" x2="136.61041748454193" y2="332.82341276589864"></line><line stroke="#eee" fill="transparent" stroke-width="10" x1="894.8909743712172" y1="563.7269045235267" x2="899.8915080601239" y2="490.68432603620016"></line><line stroke="#eee" fill="transparent" stroke-width="10" x1="674.1324184509779" y1="860.1081793633873" x2="721.5841506741143" y2="166.98278697636152"></line><line stroke="#eee" fill="transparent" stroke-width="10" x1="471.00530425149" y1="898.9477504867666" x2="525.6453515673533" y2="100.82295163300421"></line><line stroke="#eee" fill="transparent" stroke-width="10" x1="275.1988924099905" y1="830.854140107548" x2="322.3858501026038" y2="141.5962977922448"></line><circle stroke="transparent" fill="white" r="17" cx="285.871222615242" cy="671.8142038211226"></circle><circle stroke="transparent" fill="white" r="17" cx="361.78641580045223" cy="731.2535166740417"></circle><circle stroke="transparent" fill="white" r="17" cx="735.1297499611974" cy="672.7312911301851"></circle><circle stroke="transparent" fill="white" r="17" cx="207.3508447036147" cy="243.9667895436287"></circle><circle stroke="transparent" fill="white" r="17" cx="401.63866225630045" cy="638.6233547702432"></circle><circle stroke="transparent" fill="white" r="17" cx="743.470162525773" cy="497.544689103961"></circle><circle stroke="transparent" fill="white" r="17" cx="618.7351796776056" cy="417.56325513124466"></circle><circle stroke="transparent" fill="white" r="17" cx="495.00368870794773" cy="248.22309482842684"></circle><circle stroke="transparent" fill="white" r="17" cx="260.3137580677867" cy="395.9132831543684"></circle><circle stroke="transparent" fill="white" r="17" cx="345.4962907359004" cy="182.7578967437148"></circle><circle stroke="transparent" fill="white" r="17" cx="797.4516335874796" cy="443.7373958528042"></circle><circle stroke="transparent" fill="white" r="17" cx="373.0682663619518" cy="799.0357834845781"></circle><circle stroke="transparent" fill="white" r="17" cx="155.9480767697096" cy="618.4826107695699"></circle><circle stroke="transparent" fill="white" r="17" cx="565.2296088635921" cy="564.0511732548475"></circle><circle stroke="transparent" fill="white" r="17" cx="152.84670516848564" cy="391.205969825387"></circle><circle stroke="transparent" fill="white" r="17" cx="490.99024925380945" cy="188.7951973825693"></circle><circle stroke="transparent" fill="white" r="17" cx="764.8132991045713" cy="561.271433159709"></circle><circle stroke="transparent" fill="white" r="17" cx="736.6286475211382" cy="296.1253233253956"></circle><circle stroke="transparent" fill="white" r="17" cx="234.64273251593113" cy="420.7619599997997"></circle><circle stroke="transparent" fill="white" r="17" cx="321.4354669675231" cy="546.6723239049315"></circle><circle stroke="transparent" fill="white" r="17" cx="266.1646742373705" cy="293.4833060950041"></circle><circle stroke="transparent" fill="white" r="17" cx="446.2810508906841" cy="844.7710506618023"></circle><circle stroke="transparent" fill="white" r="17" cx="474.176736548543" cy="594.2239016294479"></circle><circle stroke="transparent" fill="white" r="17" cx="750.9953618049622" cy="293.12657341361046"></circle><circle stroke="transparent" fill="white" r="17" cx="629.9721693620086" cy="188.08946777135134"></circle><circle stroke="transparent" fill="white" r="17" cx="745.8457622677088" cy="327.60362420231104"></circle><circle stroke="transparent" fill="white" r="17" cx="465.6423816457391" cy="368.3155242353678"></circle><circle stroke="transparent" fill="white" r="17" cx="456.5738882869482" cy="124.44853987544775"></circle><circle stroke="transparent" fill="white" r="17" cx="228.9929822087288" cy="420.88711094111204"></circle><circle stroke="transparent" fill="white" r="17" cx="530.0700463354588" cy="311.16386987268925"></circle><circle stroke="transparent" fill="white" r="17" cx="347.1686078235507" cy="411.06569543480873"></circle><circle stroke="transparent" fill="white" r="17" cx="561.7172207683325" cy="390.6273676082492"></circle><circle stroke="transparent" fill="white" r="17" cx="494.9629284441471" cy="809.826229326427"></circle><circle stroke="transparent" fill="white" r="17" cx="675.3639562055469" cy="214.9722583591938"></circle><circle stroke="transparent" fill="white" r="17" cx="258.41687079519033" cy="667.0794019475579"></circle><circle stroke="transparent" fill="white" r="17" cx="656.9223130121827" cy="688.0848994478583"></circle><circle stroke="transparent" fill="white" r="17" cx="869.8040852323174" cy="443.7765071168542"></circle><circle stroke="transparent" fill="white" r="17" cx="738.8480290770531" cy="493.7475945800543"></circle><circle stroke="transparent" fill="white" r="17" cx="300.1853296533227" cy="328.6854753270745"></circle><circle stroke="transparent" fill="white" r="17" cx="247.88266997784376" cy="389.79606442153454"></circle><circle stroke="transparent" fill="white" r="17" cx="394.02959011495113" cy="633.2815624773502"></circle><circle stroke="transparent" fill="white" r="17" cx="810.9865099191666" cy="501.85770634561777"></circle><circle stroke="transparent" fill="white" r="17" cx="314.2513804137707" cy="321.7596834525466"></circle><circle stroke="transparent" fill="white" r="17" cx="665.3925990685821" cy="304.85881976783276"></circle><circle stroke="transparent" fill="white" r="17" cx="604.2668579146266" cy="592.2365242615342"></circle><circle stroke="transparent" fill="white" r="17" cx="661.3081503659487" cy="232.63193387538195"></circle><circle stroke="transparent" fill="white" r="17" cx="520.5263081938028" cy="274.3416428565979"></circle><circle stroke="transparent" fill="white" r="17" cx="222.1073256805539" cy="733.6569095030427"></circle><circle stroke="transparent" fill="white" r="17" cx="367.31549836695194" cy="287.6259736716747"></circle><circle stroke="transparent" fill="white" r="17" cx="788.0860641598701" cy="500.4256144165993"></circle><circle stroke="transparent" fill="white" r="17" cx="213.46431858837605" cy="545.6281201913953"></circle><circle stroke="transparent" fill="white" r="17" cx="259.3162016943097" cy="781.6236006096005"></circle><circle stroke="transparent" fill="white" r="17" cx="385.0044582039118" cy="869.2633718252182"></circle><circle stroke="transparent" fill="white" r="17" cx="755.7338114827871" cy="768.3358797803521"></circle><circle stroke="transparent" fill="white" r="17" cx="610.0474240258336" cy="599.6776392683387"></circle><circle stroke="transparent" fill="white" r="17" cx="598.9721765741706" cy="674.1922242566943"></circle><circle stroke="transparent" fill="white" r="17" cx="593.3400861918926" cy="162.75295726954937"></circle><circle stroke="transparent" fill="white" r="17" cx="312.1555993333459" cy="644.5770427584648"></circle><circle stroke="transparent" fill="white" r="17" cx="837.3156255111098" cy="309.900114685297"></circle><circle stroke="transparent" fill="white" r="17" cx="441.4106013253331" cy="607.7672736719251"></circle><circle stroke="transparent" fill="white" r="17" cx="672.4629342556" cy="303.6305783316493"></circle><circle stroke="transparent" fill="white" r="17" cx="309.5657914876938" cy="842.7320631220937"></circle><circle stroke="transparent" fill="white" r="17" cx="500.7094219326973" cy="341.08093809336424"></circle><circle stroke="transparent" fill="white" r="17" cx="567.3171879723668" cy="379.0519792586565"></circle><circle stroke="transparent" fill="white" r="17" cx="539.1199588775635" cy="124.31421093642712"></circle><circle stroke="transparent" fill="white" r="17" cx="702.9900809749961" cy="839.4264640286565"></circle><circle stroke="transparent" fill="white" r="17" cx="168.97043827921152" cy="353.78043334931135"></circle><circle stroke="transparent" fill="white" r="17" cx="698.7056151032448" cy="681.0780709609389"></circle><circle stroke="transparent" fill="white" r="17" cx="436.67701315134764" cy="288.8765126466751"></circle><circle stroke="transparent" fill="white" r="17" cx="393.3083737269044" cy="520.8079807460308"></circle><circle stroke="transparent" fill="white" r="17" cx="479.2396804317832" cy="893.094964325428"></circle><circle stroke="transparent" fill="white" r="17" cx="707.1128187701106" cy="747.1818711608648"></circle><circle stroke="transparent" fill="white" r="17" cx="172.01081924140453" cy="489.26585391163826"></circle><circle stroke="transparent" fill="white" r="17" cx="402.4606766179204" cy="816.7662920430303"></circle><circle stroke="transparent" fill="white" r="17" cx="733.8104723021388" cy="810.4391319677234"></circle><circle stroke="transparent" fill="white" r="17" cx="461.4458177238703" cy="416.87049083411694"></circle><circle stroke="transparent" fill="white" r="17" cx="838.4172426536679" cy="683.1461889669299"></circle><circle stroke="transparent" fill="white" r="17" cx="449.29738361388445" cy="111.76848039031029"></circle><circle stroke="transparent" fill="white" r="17" cx="643.0733110755682" cy="819.0869126468897"></circle><circle stroke="transparent" fill="white" r="17" cx="657.337255217135" cy="254.93429861962795"></circle><circle stroke="transparent" fill="white" r="17" cx="712.4925686046481" cy="578.6623714491725"></circle><circle stroke="transparent" fill="white" r="17" cx="331.1102483421564" cy="539.4629064947367"></circle><circle stroke="transparent" fill="white" r="17" cx="498.1634808704257" cy="846.4913619682193"></circle><circle stroke="transparent" fill="white" r="17" cx="314.50018994510174" cy="781.9365557283163"></circle><circle stroke="transparent" fill="white" r="17" cx="293.27209144830704" cy="684.829500131309"></circle><circle stroke="transparent" fill="white" r="17" cx="310.5266582220793" cy="315.07807951420546"></circle><circle stroke="transparent" fill="white" r="17" cx="580.9168182313442" cy="813.3127192035317"></circle><circle stroke="transparent" fill="white" r="17" cx="595.3640770167112" cy="146.90710864961147"></circle><circle stroke="transparent" fill="white" r="17" cx="510.97717955708504" cy="434.4958418980241"></circle><circle stroke="transparent" fill="white" r="17" cx="640.0842035189271" cy="545.7933090627193"></circle><circle stroke="transparent" fill="white" r="17" cx="309.37503930181265" cy="426.5754323452711"></circle><circle stroke="transparent" fill="white" r="17" cx="174.7255850583315" cy="499.0444326773286"></circle><circle stroke="transparent" fill="white" r="17" cx="344.5481600239873" cy="243.55374332517385"></circle><circle stroke="transparent" fill="white" r="17" cx="465.6477462500334" cy="154.65043764561415"></circle><circle stroke="transparent" fill="white" r="17" cx="448.17592576146126" cy="145.96381280571222"></circle><circle stroke="transparent" fill="white" r="17" cx="202.51210872083902" cy="345.9490146487951"></circle><circle stroke="transparent" fill="white" r="17" cx="569.5343999192119" cy="268.1003933772445"></circle><circle stroke="transparent" fill="white" r="17" cx="290.91954603791237" cy="170.2395148575306"></circle><circle stroke="transparent" fill="white" r="17" cx="134.5588844269514" cy="506.0867479071021"></circle><circle stroke="transparent" fill="white" r="17" cx="347.02162370085716" cy="484.9684616550803"></circle><circle stroke="transparent" fill="hsl(310, 73%, 69%)" r="10" cx="285.871222615242" cy="671.8142038211226"></circle><circle stroke="transparent" fill="#76cc14" r="10" cx="361.78641580045223" cy="731.2535166740417"></circle><circle stroke="transparent" fill="hsl(306, 37%, 30%)" r="10" cx="735.1297499611974" cy="672.7312911301851"></circle><circle stroke="transparent" fill="hsl(17, 70%, 55%)" r="10" cx="207.3508447036147" cy="243.9667895436287"></circle><circle stroke="transparent" fill="#76cc14" r="10" cx="401.63866225630045" cy="638.6233547702432"></circle><circle stroke="transparent" fill="hsl(285, 79%, 54%)" r="10" cx="743.470162525773" cy="497.544689103961"></circle><circle stroke="transparent" fill="hsl(74, 40%, 45%)" r="10" cx="618.7351796776056" cy="417.56325513124466"></circle><circle stroke="transparent" fill="hsl(143, 66%, 43%)" r="10" cx="495.00368870794773" cy="248.22309482842684"></circle><circle stroke="transparent" fill="hsl(87, 70%, 22%)" r="10" cx="260.3137580677867" cy="395.9132831543684"></circle><circle stroke="transparent" fill="hsl(16, 54%, 66%)" r="10" cx="345.4962907359004" cy="182.7578967437148"></circle><circle stroke="transparent" fill="hsl(285, 79%, 54%)" r="10" cx="797.4516335874796" cy="443.7373958528042"></circle><circle stroke="transparent" fill="hsl(299, 65%, 59%)" r="10" cx="373.0682663619518" cy="799.0357834845781"></circle><circle stroke="transparent" fill="hsl(133, 79%, 40%)" r="10" cx="155.9480767697096" cy="618.4826107695699"></circle><circle stroke="transparent" fill="#da3a3a" r="10" cx="565.2296088635921" cy="564.0511732548475"></circle><circle stroke="transparent" fill="hsl(237, 61%, 40%)" r="10" cx="152.84670516848564" cy="391.205969825387"></circle><circle stroke="transparent" fill="hsl(335, 62%, 53%)" r="10" cx="490.99024925380945" cy="188.7951973825693"></circle><circle stroke="transparent" fill="hsl(306, 37%, 30%)" r="10" cx="764.8132991045713" cy="561.271433159709"></circle><circle stroke="transparent" fill="hsl(212, 42%, 58%)" r="10" cx="736.6286475211382" cy="296.1253233253956"></circle><circle stroke="transparent" fill="hsl(87, 70%, 22%)" r="10" cx="234.64273251593113" cy="420.7619599997997"></circle><circle stroke="transparent" fill="hsl(277, 68%, 42%)" r="10" cx="321.4354669675231" cy="546.6723239049315"></circle><circle stroke="transparent" fill="hsl(17, 70%, 55%)" r="10" cx="266.1646742373705" cy="293.4833060950041"></circle><circle stroke="transparent" fill="hsl(299, 65%, 59%)" r="10" cx="446.2810508906841" cy="844.7710506618023"></circle><circle stroke="transparent" fill="#3189d2" r="10" cx="474.176736548543" cy="594.2239016294479"></circle><circle stroke="transparent" fill="hsl(212, 42%, 58%)" r="10" cx="750.9953618049622" cy="293.12657341361046"></circle><circle stroke="transparent" fill="hsl(280, 57%, 67%)" r="10" cx="629.9721693620086" cy="188.08946777135134"></circle><circle stroke="transparent" fill="hsl(65, 51%, 66%)" r="10" cx="745.8457622677088" cy="327.60362420231104"></circle><circle stroke="transparent" fill="hsl(143, 66%, 43%)" r="10" cx="465.6423816457391" cy="368.3155242353678"></circle><circle stroke="transparent" fill="hsl(335, 62%, 53%)" r="10" cx="456.5738882869482" cy="124.44853987544775"></circle><circle stroke="transparent" fill="hsl(87, 70%, 22%)" r="10" cx="228.9929822087288" cy="420.88711094111204"></circle><circle stroke="transparent" fill="hsl(109, 59%, 59%)" r="10" cx="530.0700463354588" cy="311.16386987268925"></circle><circle stroke="transparent" fill="hsl(277, 68%, 42%)" r="10" cx="347.1686078235507" cy="411.06569543480873"></circle><circle stroke="transparent" fill="hsl(143, 32%, 24%)" r="10" cx="561.7172207683325" cy="390.6273676082492"></circle><circle stroke="transparent" fill="hsl(294, 72%, 24%)" r="10" cx="494.9629284441471" cy="809.826229326427"></circle><circle stroke="transparent" fill="hsl(280, 57%, 67%)" r="10" cx="675.3639562055469" cy="214.9722583591938"></circle><circle stroke="transparent" fill="hsl(328, 54%, 65%)" r="10" cx="258.41687079519033" cy="667.0794019475579"></circle><circle stroke="transparent" fill="hsl(86, 52%, 20%)" r="10" cx="656.9223130121827" cy="688.0848994478583"></circle><circle stroke="transparent" fill="hsl(329, 64%, 37%)" r="10" cx="869.8040852323174" cy="443.7765071168542"></circle><circle stroke="transparent" fill="hsl(285, 79%, 54%)" r="10" cx="738.8480290770531" cy="493.7475945800543"></circle><circle stroke="transparent" fill="hsl(17, 70%, 55%)" r="10" cx="300.1853296533227" cy="328.6854753270745"></circle><circle stroke="transparent" fill="hsl(17, 70%, 55%)" r="10" cx="247.88266997784376" cy="389.79606442153454"></circle><circle stroke="transparent" fill="#76cc14" r="10" cx="394.02959011495113" cy="633.2815624773502"></circle><circle stroke="transparent" fill="hsl(285, 79%, 54%)" r="10" cx="810.9865099191666" cy="501.85770634561777"></circle><circle stroke="transparent" fill="hsl(23, 41%, 51%)" r="10" cx="314.2513804137707" cy="321.7596834525466"></circle><circle stroke="transparent" fill="hsl(280, 57%, 67%)" r="10" cx="665.3925990685821" cy="304.85881976783276"></circle><circle stroke="transparent" fill="#da3a3a" r="10" cx="604.2668579146266" cy="592.2365242615342"></circle><circle stroke="transparent" fill="hsl(280, 57%, 67%)" r="10" cx="661.3081503659487" cy="232.63193387538195"></circle><circle stroke="transparent" fill="hsl(109, 59%, 59%)" r="10" cx="520.5263081938028" cy="274.3416428565979"></circle><circle stroke="transparent" fill="hsl(328, 54%, 65%)" r="10" cx="222.1073256805539" cy="733.6569095030427"></circle><circle stroke="transparent" fill="hsl(335, 62%, 53%)" r="10" cx="367.31549836695194" cy="287.6259736716747"></circle><circle stroke="transparent" fill="hsl(285, 79%, 54%)" r="10" cx="788.0860641598701" cy="500.4256144165993"></circle><circle stroke="transparent" fill="hsl(133, 79%, 40%)" r="10" cx="213.46431858837605" cy="545.6281201913953"></circle><circle stroke="transparent" fill="hsl(328, 54%, 65%)" r="10" cx="259.3162016943097" cy="781.6236006096005"></circle><circle stroke="transparent" fill="hsl(299, 65%, 59%)" r="10" cx="385.0044582039118" cy="869.2633718252182"></circle><circle stroke="transparent" fill="hsl(349, 60%, 44%)" r="10" cx="755.7338114827871" cy="768.3358797803521"></circle><circle stroke="transparent" fill="#da3a3a" r="10" cx="610.0474240258336" cy="599.6776392683387"></circle><circle stroke="transparent" fill="hsl(86, 52%, 20%)" r="10" cx="598.9721765741706" cy="674.1922242566943"></circle><circle stroke="transparent" fill="hsl(90, 34%, 64%)" r="10" cx="593.3400861918926" cy="162.75295726954937"></circle><circle stroke="transparent" fill="hsl(127, 75%, 35%)" r="10" cx="312.1555993333459" cy="644.5770427584648"></circle><circle stroke="transparent" fill="hsl(329, 64%, 37%)" r="10" cx="837.3156255111098" cy="309.900114685297"></circle><circle stroke="transparent" fill="#76cc14" r="10" cx="441.4106013253331" cy="607.7672736719251"></circle><circle stroke="transparent" fill="hsl(280, 57%, 67%)" r="10" cx="672.4629342556" cy="303.6305783316493"></circle><circle stroke="transparent" fill="hsl(301, 78%, 21%)" r="10" cx="309.5657914876938" cy="842.7320631220937"></circle><circle stroke="transparent" fill="hsl(143, 66%, 43%)" r="10" cx="500.7094219326973" cy="341.08093809336424"></circle><circle stroke="transparent" fill="hsl(143, 32%, 24%)" r="10" cx="567.3171879723668" cy="379.0519792586565"></circle><circle stroke="transparent" fill="hsl(90, 34%, 64%)" r="10" cx="539.1199588775635" cy="124.31421093642712"></circle><circle stroke="transparent" fill="hsl(145, 78%, 61%)" r="10" cx="702.9900809749961" cy="839.4264640286565"></circle><circle stroke="transparent" fill="hsl(17, 70%, 55%)" r="10" cx="168.97043827921152" cy="353.78043334931135"></circle><circle stroke="transparent" fill="hsl(115, 60%, 42%)" r="10" cx="698.7056151032448" cy="681.0780709609389"></circle><circle stroke="transparent" fill="hsl(143, 66%, 43%)" r="10" cx="436.67701315134764" cy="288.8765126466751"></circle><circle stroke="transparent" fill="hsl(277, 68%, 42%)" r="10" cx="393.3083737269044" cy="520.8079807460308"></circle><circle stroke="transparent" fill="hsl(294, 72%, 24%)" r="10" cx="479.2396804317832" cy="893.094964325428"></circle><circle stroke="transparent" fill="hsl(115, 60%, 42%)" r="10" cx="707.1128187701106" cy="747.1818711608648"></circle><circle stroke="transparent" fill="hsl(12, 72%, 41%)" r="10" cx="172.01081924140453" cy="489.26585391163826"></circle><circle stroke="transparent" fill="hsl(299, 65%, 59%)" r="10" cx="402.4606766179204" cy="816.7662920430303"></circle><circle stroke="transparent" fill="hsl(145, 78%, 61%)" r="10" cx="733.8104723021388" cy="810.4391319677234"></circle><circle stroke="transparent" fill="hsl(143, 66%, 43%)" r="10" cx="461.4458177238703" cy="416.87049083411694"></circle><circle stroke="transparent" fill="hsl(349, 60%, 44%)" r="10" cx="838.4172426536679" cy="683.1461889669299"></circle><circle stroke="transparent" fill="hsl(335, 62%, 53%)" r="10" cx="449.29738361388445" cy="111.76848039031029"></circle><circle stroke="transparent" fill="hsl(86, 52%, 20%)" r="10" cx="643.0733110755682" cy="819.0869126468897"></circle><circle stroke="transparent" fill="hsl(280, 57%, 67%)" r="10" cx="657.337255217135" cy="254.93429861962795"></circle><circle stroke="transparent" fill="hsl(285, 79%, 54%)" r="10" cx="712.4925686046481" cy="578.6623714491725"></circle><circle stroke="transparent" fill="hsl(277, 68%, 42%)" r="10" cx="331.1102483421564" cy="539.4629064947367"></circle><circle stroke="transparent" fill="hsl(294, 72%, 24%)" r="10" cx="498.1634808704257" cy="846.4913619682193"></circle><circle stroke="transparent" fill="hsl(24, 41%, 20%)" r="10" cx="314.50018994510174" cy="781.9365557283163"></circle><circle stroke="transparent" fill="hsl(127, 75%, 35%)" r="10" cx="293.27209144830704" cy="684.829500131309"></circle><circle stroke="transparent" fill="hsl(23, 41%, 51%)" r="10" cx="310.5266582220793" cy="315.07807951420546"></circle><circle stroke="transparent" fill="hsl(86, 52%, 20%)" r="10" cx="580.9168182313442" cy="813.3127192035317"></circle><circle stroke="transparent" fill="hsl(90, 34%, 64%)" r="10" cx="595.3640770167112" cy="146.90710864961147"></circle><circle stroke="transparent" fill="hsl(143, 32%, 24%)" r="10" cx="510.97717955708504" cy="434.4958418980241"></circle><circle stroke="transparent" fill="#da3a3a" r="10" cx="640.0842035189271" cy="545.7933090627193"></circle><circle stroke="transparent" fill="hsl(277, 68%, 42%)" r="10" cx="309.37503930181265" cy="426.5754323452711"></circle><circle stroke="transparent" fill="hsl(12, 72%, 41%)" r="10" cx="174.7255850583315" cy="499.0444326773286"></circle><circle stroke="transparent" fill="hsl(16, 54%, 66%)" r="10" cx="344.5481600239873" cy="243.55374332517385"></circle><circle stroke="transparent" fill="hsl(335, 62%, 53%)" r="10" cx="465.6477462500334" cy="154.65043764561415"></circle><circle stroke="transparent" fill="hsl(335, 62%, 53%)" r="10" cx="448.17592576146126" cy="145.96381280571222"></circle><circle stroke="transparent" fill="hsl(17, 70%, 55%)" r="10" cx="202.51210872083902" cy="345.9490146487951"></circle><circle stroke="transparent" fill="hsl(206, 49%, 60%)" r="10" cx="569.5343999192119" cy="268.1003933772445"></circle><circle stroke="transparent" fill="hsl(223, 40%, 48%)" r="10" cx="290.91954603791237" cy="170.2395148575306"></circle><circle stroke="transparent" fill="hsl(12, 72%, 41%)" r="10" cx="134.5588844269514" cy="506.0867479071021"></circle><circle stroke="transparent" fill="hsl(277, 68%, 42%)" r="10" cx="347.02162370085716" cy="484.9684616550803"></circle></svg>